<?xml version="1.0" encoding="utf-8"?>
<!-- Generator: Adobe Illustrator 19.0.0, SVG Export Plug-In . SVG Version: 6.00 Build 0)  -->
<svg version="1.1" id="Capa_1" xmlns="http://www.w3.org/2000/svg" xmlns:xlink="http://www.w3.org/1999/xlink" x="0px" y="0px"
	 viewBox="17 -82.2 480.2 480.2" style="enable-background:new 17 -82.2 480.2 480.2;" xml:space="preserve">
<style type="text/css">
	.st0{fill:#FFFFFF;}
	.st1{fill:#5F4B8B;}
</style>
<g>
	<path class="st0" d="M352.5,169.5L315,121.8c13.3-13.7,21.4-31.6,22.7-50.6h58.1v6.4c-13.4,2.8-23.1,14.6-23.1,28.3
		c0,16,12.9,28.9,28.9,28.9c16,0,28.9-12.9,28.9-28.9c0-13.7-9.7-25.6-23.1-28.3V65.4c0-3.2-2.6-5.8-5.8-5.8h-63.9
		c-1.1-16-7-31.3-16.9-43.9l8.1-8.1h68c3.2,9,13.1,13.8,22.1,10.6C428,15,432.7,5,429.5-4s-13.1-13.8-22.1-10.6
		c-4.9,1.7-8.8,5.6-10.6,10.6h-70.4c-1.5,0-3,0.6-4.1,1.7L313,7c-32.1-30.9-83.2-30-114.1,2.1c-13.1,13.6-21.1,31.5-22.4,50.4h-48.5
		l-18.9-42.5c8.4-4.4,11.7-14.9,7.2-23.3S101.4-17.9,93-13.5C84.5-9,81.3,1.4,85.7,9.9c2.3,4.4,6.5,7.6,11.4,8.8l21.8,49.1
		c0.9,2.1,3,3.4,5.3,3.4h52.3c1.3,18.8,9.2,36.6,22.3,50.1L150,170.1c-31.5-4.7-60.9,17-65.7,48.6c-4.7,31.5,17,60.9,48.6,65.7
		c1,0.1,1.9,0.3,2.9,0.4v29.2c0,3.2,2.6,5.8,5.8,5.8h53.1c3.2,9,13.1,13.8,22.1,10.6s13.8-13.1,10.6-22.1
		c-3.2-9-13.1-13.8-22.1-10.6c-4.9,1.7-8.8,5.6-10.6,10.6h-47.3v-23.4c31.7-3.2,54.9-31.5,51.7-63.2c-2.1-21.5-16.1-40-36.1-47.9
		l44.5-44.5c29,22.8,69.8,23,98.9,0.4l32.1,40.8c-44.3,6.2-75.1,47.1-69,91.3c6.2,44.3,47.1,75.1,91.3,69
		c44.3-6.2,75.1-47.1,69-91.3C424.3,200.3,391.7,170.9,352.5,169.5z M418.9,105.8c0,9.6-7.8,17.3-17.3,17.3
		c-9.6,0-17.3-7.8-17.3-17.3s7.8-17.3,17.3-17.3C411.1,88.5,418.9,96.2,418.9,105.8z M413.1-4c3.2,0,5.8,2.6,5.8,5.8
		s-2.6,5.8-5.8,5.8c-3.2,0-5.8-2.6-5.8-5.8S409.9-4,413.1-4z M101.1,7.6c-3.2,0-5.8-2.6-5.8-5.8S97.9-4,101.1-4
		c3.2,0,5.8,2.6,5.8,5.8S104.3,7.6,101.1,7.6z M210.9,308.1c3.2,0,5.8,2.6,5.8,5.8s-2.6,5.8-5.8,5.8c-3.2,0-5.8-2.6-5.8-5.8
		S207.7,308.1,210.9,308.1z M164.6,267.1c-14.3,8.3-31.9,8.3-46.2,0v-11.1c0-12.8,10.3-23.1,23.1-23.1c12.8,0,23.1,10.3,23.1,23.1
		V267.1z M130,209.8c0-6.4,5.2-11.6,11.6-11.6s11.6,5.2,11.6,11.6s-5.2,11.6-11.6,11.6S130,216.2,130,209.8z M176.2,196.5
		c7.5,8.5,11.6,19.4,11.6,30.7c0,11.2-4.1,22.1-11.6,30.5v-1.6c0-12.6-6.9-24.3-18-30.4c8.8-9.2,8.5-23.9-0.8-32.7
		c-9.2-8.8-23.9-8.5-32.7,0.8c-8.5,8.9-8.5,23,0,31.9c-11.1,6.1-17.9,17.7-17.9,30.4v1.6c-16.9-19.1-15.1-48.4,4.1-65.3
		C130.1,175.5,159.3,177.3,176.2,196.5z M297.5,121.6c-24.1,17.5-56.8,17.5-80.9,0v-14c0-10.5,8.5-19.1,19.1-19.1h12.8l-8.4,21
		c-0.9,2.1-0.4,4.6,1.3,6.2l11.6,11.6c2.3,2.3,5.9,2.3,8.2,0l11.6-11.6c1.6-1.6,2.1-4.1,1.3-6.2l-8.4-21h12.8
		c10.5,0,19.1,8.5,19.1,19.1V121.6L297.5,121.6z M257.9,27.7c-0.2,0.4-0.4,0.7-0.5,1.1c-2.9,8.8-18.7,12.1-28.9,13.1
		c1.6-19.4,10.7-28.6,28.6-28.6c16.4,0,25.4,7.8,28,23.9l-19.3-11.6C263.1,24.1,259.6,25,257.9,27.7z M265.1,38.7l20.7,12.4
		c-2.3,14.1-19.8,25.8-28.6,25.8c-12.9-2.2-23.6-11.1-28.1-23.4C238.9,52.7,256.8,49.7,265.1,38.7z M261.9,110.2l-4.8,4.8l-4.8-4.8
		l4.8-11.9L261.9,110.2z M282.3,77.2c9-7.1,14.6-17.7,15.2-29.2c0-38.2-22-46.2-40.5-46.2s-40.5,8-40.5,46.2
		c0.7,11.5,6.2,22.1,15.2,29.2c-15.3,1.9-26.8,14.9-26.8,30.3v3.5c-25.3-28.7-22.6-72.5,6.1-97.9s72.5-22.6,97.9,6.1
		c23.1,26.2,23.1,65.5,0,91.7v-3.5C309.1,92.1,297.6,79.1,282.3,77.2z M390,306.5c-24.1,17.5-56.8,17.5-80.9,0v-14
		c0-10.5,8.5-19.1,19.1-19.1H341l-8.4,21c-0.9,2.1-0.4,4.6,1.3,6.2l11.6,11.6c2.3,2.3,5.9,2.3,8.2,0l11.6-11.6
		c1.6-1.6,2.1-4.1,1.3-6.2l-8.4-21h12.8c10.5,0,19.1,8.5,19.1,19.1V306.5z M357.5,223.7L357.5,223.7l20.7,12.4
		c-2.3,14.2-19.8,25.8-28.6,25.8c-12.9-2.2-23.6-11.1-28.1-23.4C331.4,237.6,349.2,234.6,357.5,223.7z M321,226.8L321,226.8
		c1.5-19.4,10.7-28.6,28.6-28.6c16.4,0,25.4,7.8,28,23.9l-19.3-11.6c-2.7-1.6-6.3-0.8-7.9,2c-0.2,0.4-0.4,0.7-0.5,1.1
		C346.9,222.5,331.1,225.9,321,226.8z M354.3,295.1l-4.8,4.8l-4.8-4.8l4.8-11.9L354.3,295.1z M401.6,296v-3.5
		c0-15.4-11.5-28.5-26.8-30.4c9-7.1,14.6-17.7,15.2-29.2c0-38.2-22-46.2-40.5-46.2c-18.5,0-40.5,8-40.5,46.2
		c0.7,11.5,6.2,22.1,15.2,29.2c-15.3,1.9-26.8,14.9-26.8,30.3v3.5c-25.3-28.7-22.5-72.5,6.3-97.8s72.5-22.5,97.8,6.3
		c11.1,12.7,17.3,29,17.3,45.8C418.9,267.1,412.7,283.4,401.6,296z"/>
	<circle class="st1" cx="141.5" cy="226.8" r="46.6"/>
	<rect x="134.7" y="191.8" class="st0" width="13.7" height="70"/>
	<rect x="106.5" y="221.4" class="st0" width="70" height="13.7"/>
</g>
</svg>
