<?xml version="1.0" encoding="utf-8"?>
<!-- Generator: Adobe Illustrator 19.0.0, SVG Export Plug-In . SVG Version: 6.00 Build 0)  -->
<svg version="1.1" id="Layer_1" xmlns="http://www.w3.org/2000/svg" xmlns:xlink="http://www.w3.org/1999/xlink" x="0px" y="0px"
	 viewBox="0 0 318 292.5" style="enable-background:new 0 0 318 292.5;" xml:space="preserve">
<style type="text/css">
	.st0{fill:#6C6B70;}
	.st1{fill:#BABABF;}
	.st2{fill:#5F4B8B;}
	.st3{fill:#FFFFFF;}
	.st4{fill:#80362D;}
	.st5{fill:#FFD7A3;}
	.st6{fill:#545465;}
	.st7{fill:#FDC88E;}
	.st8{fill:#FFE1B2;}
	.st9{fill:#E4EBF0;}
	.st10{fill:#D0D7DC;}
	.st11{fill:#B2B9BF;}
	.st12{fill:#3E3654;}
</style>
<path class="st0" d="M105.5,181.8H39.3c-6.6,0-12-5.4-12-12v-31.6c0-6.6,5.4-12,12-12h66.1c6.6,0,12,5.4,12,12v31.6
	C117.5,176.4,112.1,181.8,105.5,181.8z"/>
<path class="st1" d="M105.5,187.7H39.3c-6.6,0-12-5.4-12-12v-31.6c0-6.6,5.4-12,12-12h66.1c6.6,0,12,5.4,12,12v31.6
	C117.5,182.3,112.1,187.7,105.5,187.7z"/>
<path class="st1" d="M105.5,79H39.3c-6.6,0-12-5.4-12-12V35.4c0-6.6,5.4-12,12-12h66.1c6.6,0,12,5.4,12,12V67
	C117.5,73.6,112.1,79,105.5,79z"/>
<rect x="27.3" y="40.2" class="st2" width="90.1" height="119.6"/>
<circle class="st0" cx="72.4" cy="174.2" r="7.6"/>
<path class="st0" d="M86.8,34.4H57.9c-1.1,0-2-0.9-2-2v-1.1c0-1.1,0.9-2,2-2h28.9c1.1,0,2,0.9,2,2v1.1
	C88.8,33.5,87.9,34.4,86.8,34.4z"/>
<path id="XMLID_427_" class="st3" d="M72.4,64.2c-13.4,0-24.3,10.9-24.3,24.4c0,13.5,10.9,24.4,24.3,24.4
	c13.4,0,24.3-10.9,24.3-24.4C96.7,75.1,85.8,64.2,72.4,64.2z M80.7,103.5c-0.9,0-1.7-0.2-2.4-0.5c-0.3-0.1-0.6-0.2-0.8-0.4
	c-2.1-1.2-3.5-3.4-3.5-6c0-1,0.2-1.9,0.6-2.7c-0.6-0.2-1.3-0.4-2-0.4c-0.7,0-1.4,0.1-2,0.4c0.4,0.8,0.6,1.8,0.6,2.7
	c0,2.6-1.4,4.8-3.5,6c-0.3,0.1-0.5,0.3-0.8,0.4c-0.8,0.3-1.6,0.5-2.4,0.5c-3.8,0-6.8-3.1-6.8-6.9s3.1-6.9,6.8-6.9
	c2.5,0,4.6,1.3,5.8,3.3c0.8-0.3,1.6-0.5,2.4-0.5c0.9,0,1.7,0.2,2.4,0.5c1.2-2,3.4-3.3,5.8-3.3c3.8,0,6.8,3.1,6.8,6.9
	S84.4,103.5,80.7,103.5z M89.5,92.8c-0.5-1.2-3.3-2.9-3.7-3c-3.1-1.4-5.3-4.5-5.4-8.2c0,0,0-0.1,0-0.1c0,0.1,0,0.1-0.1,0.2
	c-1.2,3.2-4.2,5.6-7.8,5.9c1.6-1,2.8-2.5,3.5-4.3c-1.1,1.2-2.3,2.2-3.6,3c-0.7,0.5-1.5,0.9-2.2,1.2c-1.5,0.7-3.1,1.2-4.7,1.5
	c0,0,0,0,0,0c-0.5,0.1-1.1,0.2-1.7,0.3c0.2-0.1,0.3-0.3,0.5-0.4c1.2-1.1,2-2.6,2.5-4.2c-1,1.9-2.7,3.4-4.7,4.3c0,0,0,0,0,0
	c-0.6,0.2-1.2,0.4-1.8,0.5c-1.2,0.5-2.2,1.1-3.1,2c-0.6,0.6-1.2,1.4-1.6,2.2c-0.3-1.3-0.5-2.8-0.5-4.2c0-3.9,1.2-7.4,3.2-10.4
	c2.5-3.7,6.3-6.3,10.7-7.3c0,0,0,0,0,0c0-2,1.6-3.6,3.6-3.6c2,0,3.6,1.6,3.6,3.6c6.3,1.4,11.4,6.2,13.2,12.5
	c0.4,1.3,0.6,2.7,0.7,4.1v2C89.8,91.2,89.7,92,89.5,92.8z M80.7,90.7c-2.1,0-4,1.1-5,2.8c-0.2,0.3-0.3,0.5-0.4,0.8
	c-0.3,0.7-0.5,1.5-0.5,2.4c0,2.2,1.2,4.2,3.1,5.2c0.3,0.1,0.5,0.3,0.8,0.4c0.6,0.2,1.3,0.4,2,0.4c3.3,0,5.9-2.7,5.9-5.9
	C86.6,93.4,83.9,90.7,80.7,90.7z M69.1,93.5c-1-1.7-2.9-2.8-5-2.8c-3.3,0-5.9,2.7-5.9,5.9c0,3.3,2.6,5.9,5.9,5.9
	c0.7,0,1.4-0.1,2-0.4c0.3-0.1,0.6-0.2,0.8-0.4c1.8-1,3.1-3,3.1-5.2c0-0.8-0.2-1.6-0.5-2.4C69.4,94,69.3,93.8,69.1,93.5z"/>
<g>
	<g>
		<g>
			<path class="st4" d="M240.8,85.1L220.3,196l14.6,2.9C265.8,176.3,279.1,85.1,240.8,85.1z"/>
		</g>
		<g>
			<path class="st4" d="M240.8,85.1c-5.1-3.1-32.1-11-52.5,0C163,98.6,141,146.9,176.5,196c0.1,0.1,26.3-2.9,26.3-2.9L240.8,85.1z"
				/>
		</g>
		<g>
			<path class="st5" d="M235.1,182.4h-0.2v-6.8h-40.9v6.8c0,6.7,0,13.9-5.8,18.3v65.4h26.3c0,0,13.8,0,26.3,0v-65.5
				C235.1,196.2,235.1,189,235.1,182.4z"/>
		</g>
		<g>
			<path class="st6" d="M214.5,236.9c-6.3,0-12.2-0.8-17.5-2.3v31.5h40.9v-33.4C231.2,235.3,223.2,236.9,214.5,236.9z"/>
		</g>
		<g>
			<path class="st7" d="M237.8,213.5c1.1,0.3,2,0.4,2.9,0.5v-13.4c-5.7-4.4-5.7-11.6-5.7-18.2l0-0.2v-6.8l-32.3,0.2l-8.8,2.9
				C199.9,185,217.8,208,237.8,213.5z"/>
		</g>
		<g>
			<path class="st8" d="M255.4,137.6c0,23.4-23.2,52.5-40.9,52.5s-40.9-29.2-40.9-52.5s18.3-32.1,40.9-32.1S255.4,114.2,255.4,137.6
				z"/>
		</g>
		<g>
			<path class="st4" d="M220.3,90.9c-1.6,0-7,1.8-11.3,3.5l-0.4-0.5c0,0-0.6,0.5-1.6,1.3c-2.4,0.9-4.2,1.6-4.2,1.6l0.7,1.1
				c-11.1,8.7-36.4,28.7-38.6,31c-2.9,2.9,17.5,77.4,17.5,35c0-35.4,19.7-42.4,37.9-46.7c8.3-1.9,10.7-6.8,11.7-11.7
				C233,100.6,223.2,90.9,220.3,90.9z"/>
		</g>
		<g>
			<path class="st4" d="M229.1,108.4c5.4,19.2,16.1,27.9,26.1,30.5c5.5,1.4,3.1-15.9,3.1-15.9s-7.8-19.9-8.8-20.4
				c-1-0.5-8.8-17.5-8.8-17.5l-17.5,14.6L229.1,108.4z"/>
		</g>
		<g>
			<path class="st9" d="M191.4,197.2c-2.7,4.4-8.3,7.6-19.7,7.6h-1c-17.7,0-32.1,14.4-32.1,32.1v20.4c0,4.8,3.9,8.8,8.8,8.8h59.9
				L191.4,197.2z"/>
		</g>
		<g>
			<path class="st9" d="M237.6,197.2c2.7,4.4,8.3,7.6,19.7,7.6h1c17.7,0,32.1,14.4,32.1,32.1v20.4c0,4.8-3.9,8.8-8.8,8.8h-59.9
				L237.6,197.2z"/>
		</g>
		<g>
			<circle class="st10" cx="170.7" cy="251.5" r="8.8"/>
		</g>
		<g>
			<path class="st10" d="M269.2,261.5l-3.6-2.5c3.2-4.7,5-11.7,5-19.2c0-13.1-5.7-24.1-12.4-24.1c-6.7,0-12.4,11-12.4,24.1
				c0,7.5,1.8,14.5,5,19.2l-3.6,2.5c-3.7-5.4-5.8-13.3-5.8-21.7c0-16,7.4-28.5,16.8-28.5c9.4,0,16.8,12.5,16.8,28.5
				C275.1,248.2,272.9,256.1,269.2,261.5z"/>
		</g>
		<g>
			<circle class="st6" cx="249.5" cy="260.2" r="2.9"/>
		</g>
		<g>
			<circle class="st6" cx="267" cy="260.2" r="2.9"/>
		</g>
		<g>
			<path class="st10" d="M170.7,247.8c-1.2,0-2.2-1-2.2-2.2c0-37.8,17.9-48.2,18.6-48.6c1.1-0.6,2.4-0.2,3,0.9
				c0.6,1.1,0.2,2.4-0.8,3c-0.2,0.1-16.4,9.8-16.4,44.8C172.9,246.8,171.9,247.8,170.7,247.8z"/>
		</g>
		<g>
			<circle class="st11" cx="170.7" cy="251.5" r="4.6"/>
		</g>
		<g>
			<path class="st10" d="M258.3,215.7c-0.9,0-1.7-0.6-2.1-1.5c-1.9-5.4-5-7.7-5-7.7c-1-0.7-1.2-2.1-0.5-3c0.7-1,2.1-1.2,3-0.5
				c0.2,0.1,4.3,3,6.6,9.8c0.4,1.1-0.2,2.4-1.3,2.8C258.8,215.7,258.5,215.7,258.3,215.7z"/>
		</g>
	</g>
	<g>
		<path class="st8" d="M251,137.9c4.8-1.1,7.9,1.2,7.9,5.8c0,6.1-6.4,21-13.2,11.7C239,146.1,251,137.9,251,137.9z"/>
	</g>
</g>
<circle class="st3" cx="-284.1" cy="23.4" r="56.5"/>
<path class="st12" d="M75.6,201.2l1.9,3.1l1.1,1.9l1.8,3l1,1.6l5.9,9.7l-7.4,0.2c4.6,16.8,19.4,29.3,37.2,30.5
	c-1.3,0.2-2.6,0.3-3.9,0.3C93.7,252,76.9,238.9,72,220.8l-7.2,0.2l5.8-10.6L75.6,201.2z"/>
<path class="st12" d="M177.3,76.3l-1.9-3.1l-1.1-1.9l-1.8-3l-1-1.6l-5.9-9.7l7.4-0.2c-4.6-16.8-19.4-29.3-37.2-30.5
	c1.3-0.2,2.6-0.3,3.9-0.3c19.5-0.5,36.3,12.5,41.2,30.6l7.2-0.2l-5.8,10.6L177.3,76.3z"/>
</svg>
