<?xml version="1.0" encoding="utf-8"?>
<!-- Generator: Adobe Illustrator 19.0.0, SVG Export Plug-In . SVG Version: 6.00 Build 0)  -->
<svg version="1.1" id="Layer_1" xmlns="http://www.w3.org/2000/svg" xmlns:xlink="http://www.w3.org/1999/xlink" x="0px" y="0px"
	 viewBox="0 0 445 317" style="enable-background:new 0 0 445 317;" xml:space="preserve">
<style type="text/css">
	.st0{fill:#6C6B70;}
	.st1{fill:#BABABF;}
	.st2{fill:#5F4B8B;}
	.st3{fill:#333E48;}
	.st4{fill:#00AD68;}
	.st5{fill:#D1D3D3;}
	.st6{opacity:0.1;enable-background:new    ;}
	.st7{fill:#FFFFFF;}
	.st8{opacity:0.2;enable-background:new    ;}
	.st9{fill:#0071CE;}
	.st10{fill:#FF5959;}
	.st11{fill:#218649;}
	.st12{fill:#F05565;}
	.st13{fill:#EFEBDE;}
	.st14{fill:#D5D0BB;}
	.st15{fill:#36495E;}
	.st16{fill:#7F6E5D;}
	.st17{fill:#EDDCC7;}
	.st18{fill:#D75A4A;}
	.st19{fill:#F29C21;}
	.st20{fill:#D6C4B1;}
	.st21{fill:#A34740;}
	.st22{fill:#E18C25;}
	.st23{fill:#5E5E5E;}
	.st24{fill:#FFD7A3;}
	.st25{fill:#FDC88E;}
	.st26{fill:#FFE1B2;}
	.st27{fill:#7E5449;}
	.st28{fill:#527992;}
	.st29{fill:#545465;}
	.st30{fill:#D0D7DC;}
	.st31{fill:#475F7F;}
	.st32{fill:#E4EBF0;}
	.st33{fill:#80362D;}
	.st34{fill:#B2B9BF;}
	.st35{fill:#D3C8BA;}
	.st36{fill:#E5DED3;}
	.st37{fill:#ED5343;}
	.st38{fill:#999999;}
	.st39{fill:#71C285;}
</style>
<path id="XMLID_6_" class="st0" d="M280.3,254.8h-71.7c-6.6,0-12-5.4-12-12v-35c0-6.6,5.4-12,12-12h71.7c6.6,0,12,5.4,12,12v35
	C292.3,249.4,286.9,254.8,280.3,254.8z"/>
<path id="XMLID_5_" class="st1" d="M280.3,261.1h-71.7c-6.6,0-12-5.4-12-12v-35c0-6.6,5.4-12,12-12h71.7c6.6,0,12,5.4,12,12v35
	C292.3,255.7,286.9,261.1,280.3,261.1z"/>
<path id="XMLID_4_" class="st1" d="M280.3,145.7h-71.7c-6.6,0-12-5.4-12-12v-35c0-6.6,5.4-12,12-12h71.7c6.6,0,12,5.4,12,12v35
	C292.3,140.3,286.9,145.7,280.3,145.7z"/>
<rect id="XMLID_3_" x="196.6" y="104.5" class="st2" width="95.7" height="127"/>
<circle id="XMLID_2_" class="st0" cx="244.5" cy="246.3" r="8.1"/>
<path id="XMLID_38_" class="st3" d="M150.4,104.7c0,0.4-0.3,0.8-0.8,0.8H64c-0.4,0-0.8-0.3-0.8-0.8v-2.7c0-0.4,0.3-0.8,0.8-0.8h85.6
	c0.4,0,0.8,0.3,0.8,0.8V104.7L150.4,104.7z"/>
<path id="XMLID_37_" class="st4" d="M149.7,101.3h-40v4.2h40c0.4,0,0.8-0.3,0.8-0.8v-2.7C150.4,101.6,150.1,101.3,149.7,101.3z"/>
<rect id="XMLID_36_" x="70" y="31.9" class="st5" width="42.1" height="69.4"/>
<rect id="XMLID_35_" x="70" y="31.9" class="st6" width="42.1" height="9.6"/>
<rect id="XMLID_34_" x="75.3" y="73.8" class="st7" width="31.5" height="8.6"/>
<rect id="XMLID_33_" x="75.3" y="73.8" class="st8" width="31.5" height="3.1"/>
<rect id="XMLID_32_" x="89.7" y="73.8" class="st3" width="2.8" height="8.6"/>
<path id="XMLID_67_" class="st9" d="M106.8,83.8H75.3c-0.8,0-1.4-0.6-1.4-1.4v-8.6c0-0.8,0.6-1.4,1.4-1.4h31.5
	c0.8,0,1.4,0.6,1.4,1.4v8.6C108.2,83.1,107.6,83.8,106.8,83.8z M76.7,81h28.8v-5.8H76.7V81z"/>
<rect id="XMLID_29_" x="75.3" y="59.7" class="st7" width="31.5" height="8.6"/>
<rect id="XMLID_28_" x="75.3" y="59.7" class="st8" width="31.5" height="3.1"/>
<rect id="XMLID_27_" x="89.7" y="59.7" class="st3" width="2.8" height="8.6"/>
<path id="XMLID_61_" class="st9" d="M106.8,69.7H75.3c-0.8,0-1.4-0.6-1.4-1.4v-8.6c0-0.8,0.6-1.4,1.4-1.4h31.5
	c0.8,0,1.4,0.6,1.4,1.4v8.6C108.2,69.1,107.6,69.7,106.8,69.7z M76.7,66.9h28.8v-5.8H76.7V66.9z"/>
<rect id="XMLID_24_" x="75.3" y="45.6" class="st7" width="31.5" height="8.6"/>
<rect id="XMLID_23_" x="75.3" y="45.6" class="st8" width="31.5" height="3.1"/>
<rect id="XMLID_22_" x="89.7" y="45.6" class="st3" width="2.8" height="8.6"/>
<path id="XMLID_55_" class="st9" d="M106.8,55.6H75.3c-0.8,0-1.4-0.6-1.4-1.4v-8.6c0-0.8,0.6-1.4,1.4-1.4h31.5
	c0.8,0,1.4,0.6,1.4,1.4v8.6C108.2,55,107.6,55.6,106.8,55.6z M76.7,52.8h28.8V47H76.7V52.8z"/>
<rect id="XMLID_19_" x="82.9" y="89.3" class="st7" width="16.3" height="12"/>
<rect id="XMLID_18_" x="89.7" y="89.3" class="st3" width="2.8" height="12"/>
<path id="XMLID_17_" class="st9" d="M100.6,101.3h-2.8V90.7H84.3v10.6h-2.8v-12c0-0.8,0.6-1.4,1.4-1.4h16.3c0.8,0,1.4,0.6,1.4,1.4
	L100.6,101.3L100.6,101.3z"/>
<path id="XMLID_16_" class="st10" d="M113.4,28.5h-13.1v-4.3c0-1-0.8-1.9-1.9-1.9H83.7c-1,0-1.9,0.8-1.9,1.9v4.3H68.7
	c-1,0-1.9,0.8-1.9,1.9v7.3c0,1,0.8,1.9,1.9,1.9h44.7c1,0,1.9-0.8,1.9-1.9v-7.3C115.3,29.4,114.4,28.5,113.4,28.5z"/>
<path id="XMLID_15_" class="st7" d="M95.6,28.8h-2.4v-2.4c0-0.5-0.4-0.9-0.9-0.9h-2.4c-0.5,0-0.9,0.4-0.9,0.9v2.4h-2.4
	c-0.5,0-0.9,0.4-0.9,0.9v2.4c0,0.5,0.4,0.9,0.9,0.9h2.4v2.4c0,0.5,0.4,0.9,0.9,0.9h2.4c0.5,0,0.9-0.4,0.9-0.9v-2.4h2.4
	c0.5,0,0.9-0.4,0.9-0.9v-2.4C96.5,29.2,96.1,28.8,95.6,28.8z"/>
<rect id="XMLID_14_" x="112.1" y="69.7" class="st5" width="31.6" height="31.6"/>
<rect id="XMLID_13_" x="117.4" y="78.6" class="st7" width="21" height="8.6"/>
<rect id="XMLID_12_" x="117.4" y="78.6" class="st8" width="21" height="3.1"/>
<rect id="XMLID_11_" x="126.5" y="78.6" class="st3" width="2.8" height="8.6"/>
<path id="XMLID_43_" class="st9" d="M138.4,88.5h-21c-0.8,0-1.4-0.6-1.4-1.4v-8.6c0-0.8,0.6-1.4,1.4-1.4h21c0.8,0,1.4,0.6,1.4,1.4
	v8.6C139.8,87.9,139.2,88.5,138.4,88.5z M118.8,85.7H137V80h-18.2V85.7z"/>
<path id="XMLID_8_" class="st10" d="M112.1,64.2h33.3c1,0,1.9,0.8,1.9,1.9v3.6c0,1-0.8,1.9-1.9,1.9h-33.3V64.2z"/>
<polygon id="XMLID_7_" class="st8" points="115.6,71.5 115.6,64.2 112.1,64.2 112.1,101.3 115.6,101.3 115.6,75.1 143.7,75.1 
	143.7,71.5 "/>
<path id="XMLID_1_" class="st11" d="M136.8,101.3c0-3.3-2.7-6-6-6c-3.3,0-6,2.7-6,6H136.8z"/>
<g id="XMLID_40_">
	<g id="XMLID_50_">
		<polygon id="XMLID_72_" class="st12" points="289.2,6.1 289.2,9.9 282.4,9.9 282.4,6.1 259,6.1 259,9.9 252.2,9.9 252.2,6.1 
			244.5,6.1 244.5,16.7 297,16.7 297,6.1 		"/>
		<polygon id="XMLID_71_" class="st13" points="252.2,16.7 244.5,16.7 244.5,58.6 297,58.6 297,16.7 289.2,16.7 282.4,16.7 
			259,16.7 		"/>
		<path id="XMLID_54_" class="st14" d="M280.4,23.6h-1.9h-6.8h-1.9h-6.8H261h-8.7v8.7v1.9v6.8V43v8.7h8.7h1.9h6.8h1.9h6.8h1.9h8.7
			V43v-1.9v-6.8v-1.9v-8.7H280.4z M271.7,25.5h6.8v6.8h-6.8C271.7,32.3,271.7,25.5,271.7,25.5z M278.5,41.1h-6.8v-6.8h6.8V41.1z
			 M262.9,34.2h6.8v6.8h-6.8V34.2z M262.9,25.5h6.8v6.8h-6.8V25.5z M254.2,25.5h6.8v6.8h-6.8V25.5z M254.2,34.2h6.8v6.8h-6.8V34.2z
			 M261,49.8h-6.8V43h6.8V49.8z M269.7,49.8h-6.8V43h6.8V49.8z M278.5,49.8h-6.8V43h6.8V49.8z M287.2,49.8h-6.8V43h6.8V49.8z
			 M287.2,41.1h-6.8v-6.8h6.8V41.1z M280.4,32.3v-6.8h6.8v6.8H280.4z"/>
		<rect id="XMLID_53_" x="252.2" y="2.2" class="st15" width="6.8" height="7.8"/>
		<rect id="XMLID_52_" x="282.4" y="2.2" class="st15" width="6.8" height="7.8"/>
		<rect id="XMLID_51_" x="262.9" y="34.2" class="st16" width="6.8" height="6.8"/>
	</g>
	<g id="XMLID_41_">
		<polygon id="XMLID_49_" class="st17" points="278.3,49.3 278.3,49.3 276.4,56.4 280.9,51.9 		"/>
		<path id="XMLID_48_" class="st18" d="M297,35.7l-1.2-1.2c-0.8-0.8-2-0.8-2.7,0l-3.5,3.5l2.6,2.6L297,35.7z"/>
		
			<rect id="XMLID_47_" x="283.4" y="37" transform="matrix(-0.7071 -0.7071 0.7071 -0.7071 455.1915 278.4473)" class="st19" width="3.6" height="16"/>
		<polygon id="XMLID_46_" class="st20" points="283.8,54.8 283.8,54.8 280.9,51.9 276.4,56.4 276.3,56.9 		"/>
		<path id="XMLID_45_" class="st21" d="M295.1,43.5l3.5-3.5c0.8-0.8,0.8-2,0-2.7l-1.6-1.6l-4.8,4.8L295.1,43.5z"/>
		
			<rect id="XMLID_44_" x="285.9" y="39.7" transform="matrix(0.7071 0.7071 -0.7071 0.7071 118.0874 -189.6844)" class="st22" width="4.1" height="16"/>
		<path id="XMLID_42_" class="st23" d="M275.6,58.5c-0.2,0-0.5-0.1-0.7-0.3c-0.4-0.4-0.4-1,0-1.4l2.1-2.1c0.4-0.4,1-0.4,1.4,0
			c0.4,0.4,0.4,1,0,1.4l-2.1,2.1C276.1,58.4,275.8,58.5,275.6,58.5z"/>
	</g>
</g>
<g id="XMLID_91_">
	<g id="XMLID_126_">
		<path id="XMLID_89_" class="st24" d="M356.9,161.2c2.2-1.4,2-5.7,2-6.7h17.8c0,1-0.3,5.2,1.9,6.7l-10.9,12.2L356.9,161.2z"/>
	</g>
	<g id="XMLID_124_">
		<path id="XMLID_88_" class="st25" d="M374.7,165.5l3.9-4.2c-2.2-1.4-1.9-5.7-1.9-6.7h-17.8C360.1,158.2,368.6,164.6,374.7,165.5z"
			/>
	</g>
	<g id="XMLID_122_">
		<path id="XMLID_87_" class="st26" d="M381.7,141.7c0,7.9-4.6,17.8-13.9,17.8c-9.3,0-13.9-9.9-13.9-17.8s6.2-10.9,13.9-10.9
			S381.7,133.7,381.7,141.7z"/>
	</g>
	<g id="XMLID_120_">
		<path id="XMLID_86_" class="st26" d="M354.4,143.4c-1.5-0.4-2.5,0.4-2.5,2c0,2.1,2,7.1,4.1,4C358.1,146.2,354.4,143.4,354.4,143.4
			z"/>
	</g>
	<g id="XMLID_118_">
		<path id="XMLID_85_" class="st26" d="M381,143.4c1.6-0.4,2.7,0.4,2.7,2c0,2.1-2.2,7.1-4.5,4C376.9,146.2,381,143.4,381,143.4z"/>
	</g>
	<g id="XMLID_116_">
		<path id="XMLID_84_" class="st27" d="M356.9,137.7c-0.4,1.2-1,7.9-1,7.9l-2-1.1l-0.6-7.3L356.9,137.7z"/>
	</g>
	<g id="XMLID_114_">
		<path id="XMLID_83_" class="st27" d="M378.7,137.7c0.4,1.2,1,7.9,1,7.9l2-1.1l0.6-7.3L378.7,137.7z"/>
	</g>
	<g id="XMLID_112_">
		<path id="XMLID_82_" class="st28" d="M390.6,183.3c1.6,0,3-1.3,3-3v-7.6c0-4.4-3.4-9-7.6-10.4l-6.2-2c-3.3,2.6-8.1,6-12,6
			s-8.7-3.5-12-6l-6.2,2c-4.2,1.3-7.6,6-7.6,10.4v7.6c0,1.6,1.3,3,3,3H390.6z"/>
	</g>
	<g id="XMLID_110_">
		<path id="XMLID_81_" class="st29" d="M369.8,169.4c0,0.5-0.4,1-1,1h-2c-0.5,0-1-0.4-1-1v-2c0-0.5,0.4-1,1-1h2c0.5,0,1,0.4,1,1
			V169.4z"/>
	</g>
	<g id="XMLID_108_">
		<circle id="XMLID_80_" class="st30" cx="367.8" cy="175.4" r="1"/>
	</g>
	<g id="XMLID_106_">
		<path id="XMLID_79_" class="st31" d="M367.8,166.5l-4.1,4.1c-0.4,0.4-1.1,0.4-1.5-0.1l-7.3-10l2.3-2.3c0.4-0.4,1-0.4,1.4,0
			L367.8,166.5z"/>
	</g>
	<g id="XMLID_104_">
		<path id="XMLID_78_" class="st31" d="M367.8,166.5l4.1,4.1c0.4,0.4,1.1,0.4,1.5-0.1l7.3-10l-2.3-2.3c-0.4-0.4-1-0.4-1.4,0
			L367.8,166.5z"/>
	</g>
	<g id="XMLID_102_">
		<polygon id="XMLID_77_" class="st29" points="369.2,169.9 367.8,170.4 366.4,169.9 365.8,183.3 367.8,183.3 369.8,183.3 		"/>
	</g>
	<g id="XMLID_100_">
		<path id="XMLID_76_" class="st32" d="M391,183.3c1.5-0.2,2.6-1.4,2.6-2.9v-7.6c0-4.4-3.4-9-7.6-10.4l-5.4-1.7l0,0l-7.9,22.6
			L391,183.3L391,183.3z"/>
	</g>
	<g id="XMLID_98_">
		<path id="XMLID_75_" class="st32" d="M355,160.7L355,160.7l-5.4,1.7c-4.2,1.3-7.6,6-7.6,10.4v7.6c0,1.5,1.1,2.8,2.6,2.9h18.2
			L355,160.7z"/>
	</g>
	<g id="XMLID_96_">
		<path id="XMLID_74_" class="st30" d="M354.9,160.5l-4.2,5.1c-0.4,0.5-0.3,1.1,0.2,1.5l2,1.4l-2.4,2.4c-0.4,0.4-0.4,0.9-0.1,1.3
			l6.4,11.2l5.9,0L354.9,160.5z"/>
	</g>
	<g id="XMLID_94_">
		<path id="XMLID_73_" class="st30" d="M380.7,160.5l4.2,5.1c0.4,0.5,0.3,1.1-0.2,1.5l-2,1.4l2.4,2.4c0.4,0.4,0.4,0.9,0.1,1.3
			l-6.4,11.2l-5.9,0L380.7,160.5z"/>
	</g>
	<g id="XMLID_92_">
		<path id="XMLID_39_" class="st32" d="M382.7,137.7c-9.9,0-19.8,0-29.7,0c0-5.3,0-9,0-14.3c9.3-4.8,20.4-4.8,29.7,0
			C382.7,128.7,382.7,132.4,382.7,137.7z"/>
	</g>
</g>
<g id="XMLID_128_">
	<g id="XMLID_131_">
		<g id="XMLID_164_">
			<path id="XMLID_125_" class="st33" d="M328.1,250.4l-7,38.1l5,1C336.7,281.7,341.3,250.4,328.1,250.4z"/>
		</g>
		<g id="XMLID_162_">
			<path id="XMLID_123_" class="st33" d="M328.1,250.4c-1.8-1.1-11-3.8-18,0c-8.6,4.6-16.2,21.2-4,38.1c0,0,9-1,9-1L328.1,250.4z"/>
		</g>
		<g id="XMLID_160_">
			<path id="XMLID_121_" class="st24" d="M326.2,283.8L326.2,283.8l-0.1-2.3h-14v2.3c0,2.3,0,4.8-2,6.3v22.4h9c0,0,4.7,0,9,0V290
				C326.2,288.5,326.2,286,326.2,283.8z"/>
		</g>
		<g id="XMLID_158_">
			<path id="XMLID_119_" class="st29" d="M319.1,302.5c-2.2,0-4.2-0.3-6-0.8v10.8h14V301C324.8,301.9,322.1,302.5,319.1,302.5z"/>
		</g>
		<g id="XMLID_156_">
			<path id="XMLID_117_" class="st25" d="M327.1,294.4c0.4,0.1,0.7,0.2,1,0.2V290c-1.9-1.5-1.9-4-1.9-6.2l0-0.1v-2.3l-11.1,0.1l-3,1
				C314.1,284.7,320.2,292.6,327.1,294.4z"/>
		</g>
		<g id="XMLID_154_">
			<path id="XMLID_115_" class="st26" d="M333.1,268.4c0,8-8,18-14,18s-14-10-14-18s6.3-11,14-11S333.1,260.4,333.1,268.4z"/>
		</g>
		<g id="XMLID_152_">
			<path id="XMLID_113_" class="st33" d="M321.1,252.4c-0.6,0-2.4,0.6-3.9,1.2l-0.1-0.2c0,0-0.2,0.2-0.6,0.4
				c-0.8,0.3-1.4,0.6-1.4,0.6l0.2,0.4c-3.8,3-12.5,9.8-13.3,10.6c-1,1,6,26.6,6,12c0-12.1,6.7-14.5,13-16c2.8-0.7,3.7-2.3,4-4
				C325.5,255.7,322.1,252.4,321.1,252.4z"/>
		</g>
		<g id="XMLID_150_">
			<path id="XMLID_111_" class="st33" d="M324.1,258.4c1.8,6.6,5.5,9.6,9,10.5c1.9,0.5,1.1-5.4,1.1-5.4s-2.7-6.8-3-7
				c-0.3-0.2-3-6-3-6l-6,5L324.1,258.4z"/>
		</g>
		<g id="XMLID_148_">
			<path id="XMLID_109_" class="st32" d="M311.2,288.8c-0.9,1.5-2.9,2.6-6.8,2.6h-0.3c-6.1,0-11,4.9-11,11v7c0,1.7,1.3,3,3,3h20.6
				L311.2,288.8z"/>
		</g>
		<g id="XMLID_146_">
			<path id="XMLID_107_" class="st32" d="M327,288.8c0.9,1.5,2.9,2.6,6.8,2.6h0.3c6.1,0,11,4.9,11,11v7c0,1.7-1.3,3-3,3h-20.6
				L327,288.8z"/>
		</g>
		<g id="XMLID_144_">
			<circle id="XMLID_105_" class="st30" cx="304.1" cy="307.5" r="3"/>
		</g>
		<g id="XMLID_142_">
			<path id="XMLID_103_" class="st30" d="M337.9,310.9l-1.2-0.9c1.1-1.6,1.7-4,1.7-6.6c0-4.5-1.9-8.3-4.3-8.3s-4.3,3.8-4.3,8.3
				c0,2.6,0.6,5,1.7,6.6l-1.2,0.9c-1.3-1.8-2-4.6-2-7.4c0-5.5,2.5-9.8,5.8-9.8c3.2,0,5.8,4.3,5.8,9.8
				C339.9,306.3,339.2,309,337.9,310.9z"/>
		</g>
		<g id="XMLID_140_">
			<circle id="XMLID_101_" class="st29" cx="331.1" cy="310.5" r="1"/>
		</g>
		<g id="XMLID_138_">
			<circle id="XMLID_99_" class="st29" cx="337.1" cy="310.5" r="1"/>
		</g>
		<g id="XMLID_136_">
			<path id="XMLID_97_" class="st30" d="M304.1,306.2c-0.4,0-0.8-0.3-0.8-0.8c0-13,6.1-16.5,6.4-16.7c0.4-0.2,0.8-0.1,1,0.3
				c0.2,0.4,0.1,0.8-0.3,1c-0.1,0-5.6,3.4-5.6,15.4C304.8,305.9,304.5,306.2,304.1,306.2z"/>
		</g>
		<g id="XMLID_134_">
			<circle id="XMLID_95_" class="st34" cx="304.1" cy="307.5" r="1.6"/>
		</g>
		<g id="XMLID_132_">
			<path id="XMLID_93_" class="st30" d="M334.1,295.2c-0.3,0-0.6-0.2-0.7-0.5c-0.7-1.8-1.7-2.6-1.7-2.6c-0.3-0.2-0.4-0.7-0.2-1
				c0.2-0.3,0.7-0.4,1-0.2c0.1,0,1.5,1,2.3,3.4c0.1,0.4-0.1,0.8-0.5,1C334.3,295.2,334.2,295.2,334.1,295.2z"/>
		</g>
	</g>
	<g id="XMLID_129_">
		<path id="XMLID_90_" class="st26" d="M331.6,268.5c1.6-0.4,2.7,0.4,2.7,2c0,2.1-2.2,7.2-4.5,4S331.6,268.5,331.6,268.5z"/>
	</g>
</g>
<rect id="XMLID_145_" x="125.3" y="222.5" class="st35" width="49.9" height="65.2"/>
<rect id="XMLID_143_" x="119.3" y="216.6" class="st36" width="49.9" height="65.2"/>
<g id="XMLID_161_">
	<path id="XMLID_141_" class="st37" d="M134.9,225.6h-1.8c-0.6,0-1-0.5-1-1v-1.8c0-0.6-0.5-1-1-1h-4c-0.6,0-1,0.5-1,1v1.8
		c0,0.6-0.5,1-1,1h-1.8c-0.6,0-1,0.5-1,1v4c0,0.6,0.5,1,1,1h1.8c0.6,0,1,0.5,1,1v1.8c0,0.6,0.5,1,1,1h4c0.6,0,1-0.5,1-1v-1.8
		c0-0.6,0.5-1,1-1h1.8c0.6,0,1-0.5,1-1v-4C135.9,226.1,135.4,225.6,134.9,225.6z"/>
	<rect id="XMLID_139_" x="120.5" y="240.7" class="st37" width="41.6" height="2.1"/>
</g>
<g id="XMLID_149_">
	<rect id="XMLID_137_" x="126.9" y="252.1" class="st38" width="34.7" height="1.7"/>
	<rect id="XMLID_135_" x="151.2" y="223.5" class="st38" width="13.7" height="1.7"/>
	<rect id="XMLID_133_" x="151.2" y="229" class="st38" width="13.7" height="1.7"/>
	<rect id="XMLID_130_" x="126.9" y="258.1" class="st38" width="34.7" height="1.7"/>
	<rect id="XMLID_127_" x="126.9" y="264.1" class="st38" width="17.2" height="1.7"/>
</g>
<path id="XMLID_442_" class="st7" d="M244.4,123.6c-22.7,0-41,18.5-41,41.3s18.4,41.3,41.1,41.3c22.7,0,41.1-18.5,41.1-41.3
	C285.5,142.1,267.1,123.6,244.4,123.6z M258.4,190.1c-1.4,0-2.9-0.3-4.1-0.8c-0.5-0.2-0.9-0.4-1.4-0.7c-3.6-2-6-5.8-6-10.2
	c0-1.7,0.3-3.2,1-4.6c-1-0.4-2.2-0.6-3.4-0.6s-2.4,0.2-3.4,0.6c0.6,1.4,1,3,1,4.6c0,4.4-2.4,8.2-6,10.2c-0.4,0.3-0.9,0.4-1.4,0.7
	c-1.3,0.5-2.7,0.8-4.1,0.8c-6.4,0-11.6-5.2-11.6-11.6c0-6.4,5.1-11.6,11.5-11.6c4.2,0,7.8,2.2,9.8,5.6c1.3-0.5,2.7-0.8,4.1-0.8
	s2.9,0.3,4.1,0.8c2-3.4,5.7-5.6,9.8-5.6c6.4,0,11.6,5.2,11.6,11.6C269.9,185,264.8,190.1,258.4,190.1z M273.4,172
	c-0.8-2-5.6-5-6.3-5.1c-5.3-2.4-9-7.6-9.1-13.8c0-0.1,0-0.1,0-0.2c-0.1,0.1-0.1,0.2-0.1,0.3c-2.1,5.4-7.2,9.5-13.2,10
	c2.6-1.8,4.7-4.3,5.9-7.3c-1.8,2-3.9,3.7-6.2,5.2c-1.2,0.8-2.5,1.4-3.7,2c-2.5,1.2-5.2,2-8,2.5c0,0,0,0-0.1,0
	c-0.9,0.2-1.9,0.3-2.8,0.4c0.3-0.2,0.6-0.5,0.8-0.8c1.9-1.9,3.4-4.3,4.2-7c-1.8,3.2-4.6,5.7-8,7.1c0,0-0.1,0-0.1,0.1
	c-0.9,0.4-1.9,0.7-3,0.8c-2,0.8-3.7,1.9-5.2,3.4c-1.1,1-2,2.3-2.8,3.6c-0.6-2.3-0.8-4.7-0.8-7.1c0-6.5,2-12.6,5.4-17.6
	c4.2-6.2,10.6-10.7,18-12.3l0,0c0-3.4,2.7-6.1,6.1-6.1c3.4,0,6.1,2.8,6.1,6.1c10.7,2.3,19.3,10.6,22.3,21.2c0.7,2.2,1,4.6,1.2,6.9
	v3.4C273.8,169.2,273.7,170.7,273.4,172z M258.4,168.5c-3.6,0-6.7,1.9-8.5,4.7c-0.3,0.4-0.5,0.9-0.7,1.4c-0.6,1.2-0.8,2.6-0.8,4
	c0,3.8,2.1,7.1,5.2,8.8c0.4,0.3,0.9,0.4,1.4,0.7c1,0.4,2.2,0.6,3.4,0.6c5.5,0,10-4.5,10-10.1C268.4,173,263.9,168.5,258.4,168.5z
	 M238.9,173.2c-1.8-2.8-4.9-4.7-8.5-4.7c-5.5,0-10,4.5-10,10.1s4.5,10.1,10,10.1c1.2,0,2.4-0.2,3.4-0.6c0.5-0.2,0.9-0.4,1.4-0.7
	c3.1-1.7,5.2-5,5.2-8.8c0-1.4-0.3-2.8-0.8-4C239.4,174.1,239.2,173.6,238.9,173.2z"/>
<g id="XMLID_168_">
	<path id="XMLID_163_" class="st39" d="M325.2,245c-0.6,0-1.3-0.3-1.7-0.7s-0.7-1.1-0.7-1.7v-48.8c0-1.3-1.1-2.4-2.4-2.4H313
		c-1.3,0-2.4-1.1-2.4-2.4c0-1.3,1.1-2.4,2.4-2.4h7.3c4,0,7.3,3.3,7.3,7.3v48.8c0,0.6-0.3,1.3-0.7,1.7S325.8,245,325.2,245z"/>
	<path id="XMLID_159_" class="st39" d="M305.4,191.4h-4.9c-1.3,0-2.4-1.1-2.4-2.4c0-1.3,1.1-2.4,2.4-2.4h4.9c1.3,0,2.4,1.1,2.4,2.4
		C307.8,190.3,306.7,191.4,305.4,191.4z"/>
</g>
<g id="XMLID_166_">
	<path id="XMLID_169_" class="st39" d="M162.6,207.7c-0.5-0.5-0.7-1.1-0.7-1.7v-48.8c0-4,3.3-7.3,7.3-7.3h7.3c1.3,0,2.4,1.1,2.4,2.4
		c0,1.3-1.1,2.4-2.4,2.4h-7.3c-1.3,0-2.4,1.1-2.4,2.4V206c0,0.6-0.3,1.3-0.7,1.7c-0.5,0.5-1.1,0.7-1.7,0.7
		C163.7,208.4,163.1,208.2,162.6,207.7z"/>
	<path id="XMLID_167_" class="st39" d="M182.3,152.4c0-1.3,1.1-2.4,2.4-2.4h4.9c1.3,0,2.4,1.1,2.4,2.4c0,1.3-1.1,2.4-2.4,2.4h-4.9
		C183.4,154.8,182.3,153.7,182.3,152.4z"/>
</g>
<g id="XMLID_165_">
	<path id="XMLID_171_" class="st39" d="M222.6,66.6c-0.5-0.5-0.7-1.1-0.7-1.7V16.1c0-4,3.3-7.3,7.3-7.3h7.3c1.3,0,2.4,1.1,2.4,2.4
		s-1.1,2.4-2.4,2.4h-7.3c-1.3,0-2.4,1.1-2.4,2.4v48.8c0,0.6-0.3,1.3-0.7,1.7c-0.5,0.5-1.1,0.7-1.7,0.7
		C223.7,67.3,223.1,67,222.6,66.6z"/>
	<path id="XMLID_170_" class="st39" d="M224.3,80.3c-1.3,0-2.4-1.1-2.4-2.4V73c0-1.3,1.1-2.4,2.4-2.4s2.4,1.1,2.4,2.4v4.9
		C226.8,79.2,225.7,80.3,224.3,80.3z"/>
</g>
<g id="XMLID_172_">
	<path id="XMLID_174_" class="st39" d="M312.1,97.7c0.5-0.5,1.1-0.7,1.7-0.7h48.8c4,0,7.3,3.3,7.3,7.3v7.3c0,1.3-1.1,2.4-2.4,2.4
		s-2.4-1.1-2.4-2.4v-7.3c0-1.3-1.1-2.4-2.4-2.4h-48.8c-0.6,0-1.3-0.3-1.7-0.7c-0.5-0.5-0.7-1.1-0.7-1.7
		C311.4,98.8,311.6,98.2,312.1,97.7z"/>
	<path id="XMLID_173_" class="st39" d="M298.4,99.4c0-1.3,1.1-2.4,2.4-2.4h4.9c1.3,0,2.4,1.1,2.4,2.4c0,1.3-1.1,2.4-2.4,2.4h-4.9
		C299.5,101.9,298.4,100.8,298.4,99.4z"/>
</g>
<g id="XMLID_176_">
	<path id="XMLID_178_" class="st39" d="M177.1,127.6c-0.5,0.5-1.1,0.7-1.7,0.7h-48.8c-4,0-7.3-3.3-7.3-7.3v-7.3
		c0-1.3,1.1-2.4,2.4-2.4c1.3,0,2.4,1.1,2.4,2.4v7.3c0,1.3,1.1,2.4,2.4,2.4h48.8c0.6,0,1.3,0.3,1.7,0.7c0.5,0.5,0.7,1.1,0.7,1.7
		C177.8,126.5,177.6,127.1,177.1,127.6z"/>
	<path id="XMLID_177_" class="st39" d="M190.8,125.9c0,1.3-1.1,2.4-2.4,2.4h-4.9c-1.3,0-2.4-1.1-2.4-2.4c0-1.3,1.1-2.4,2.4-2.4h4.9
		C189.7,123.4,190.8,124.5,190.8,125.9z"/>
</g>
</svg>
