<?xml version="1.0" encoding="utf-8"?>
<!-- Generator: Adobe Illustrator 19.0.0, SVG Export Plug-In . SVG Version: 6.00 Build 0)  -->
<svg version="1.1" id="Layer_1" xmlns="http://www.w3.org/2000/svg" xmlns:xlink="http://www.w3.org/1999/xlink" x="0px" y="0px"
	 viewBox="0 0 318 292.5" style="enable-background:new 0 0 318 292.5;" xml:space="preserve">
<style type="text/css">
	.st0{fill:#F05565;}
	.st1{fill:#EFEBDE;}
	.st2{fill:#D5D0BB;}
	.st3{fill:#36495E;}
	.st4{fill:#7F6E5D;}
	.st5{fill:#EDDCC7;}
	.st6{fill:#D75A4A;}
	.st7{fill:#F29C21;}
	.st8{fill:#D6C4B1;}
	.st9{fill:#A34740;}
	.st10{fill:#E18C25;}
	.st11{fill:#5E5E5E;}
</style>
<g>
	<g>
		<polygon class="st0" points="250.8,29.8 250.8,48.5 218.2,48.5 218.2,29.8 106.5,29.8 106.5,48.5 73.9,48.5 73.9,29.8 36.6,29.8 
			36.6,81.1 288.1,81.1 288.1,29.8 		"/>
		<polygon class="st1" points="73.9,81.1 36.6,81.1 36.6,281.3 288.1,281.3 288.1,81.1 250.8,81.1 218.2,81.1 106.5,81.1 		"/>
		<path class="st2" d="M208.9,113.7h-9.3H167h-9.3h-32.6h-9.3H73.9v41.9v9.3v32.6v9.3v41.9h41.9h9.3h32.6h9.3h32.6h9.3h41.9v-41.9
			v-9.3v-32.6v-9.3v-41.9H208.9z M167,123h32.6v32.6H167C167,155.6,167,123,167,123z M199.6,197.5H167v-32.6h32.6V197.5z
			 M125.1,164.9h32.6v32.6h-32.6V164.9z M125.1,123h32.6v32.6h-32.6V123z M83.2,123h32.6v32.6H83.2V123z M83.2,164.9h32.6v32.6H83.2
			V164.9z M115.8,239.4H83.2v-32.6h32.6V239.4z M157.7,239.4h-32.6v-32.6h32.6V239.4z M199.6,239.4H167v-32.6h32.6V239.4z
			 M241.5,239.4h-32.6v-32.6h32.6V239.4z M241.5,197.5h-32.6v-32.6h32.6V197.5z M208.9,155.6V123h32.6v32.6H208.9z"/>
		<rect x="73.9" y="11.2" class="st3" width="32.6" height="37.2"/>
		<rect x="218.2" y="11.2" class="st3" width="32.6" height="37.2"/>
		<rect x="125.1" y="164.9" class="st4" width="32.6" height="32.6"/>
	</g>
	<g>
		<polygon class="st5" points="198.8,237 198.8,237 189.5,271 211.2,249.3 		"/>
		<path class="st6" d="M288.5,172l-5.8-5.8c-3.6-3.6-9.5-3.6-13.1,0l-16.7,16.7l12.3,12.3L288.5,172z"/>
		
			<rect x="223.3" y="177.9" transform="matrix(-0.7071 -0.7071 0.7071 -0.7071 243.2904 532.9989)" class="st7" width="17.5" height="76.5"/>
		<polygon class="st8" points="225.1,263.4 225.2,263.3 211.2,249.3 189.5,271 188.9,273.2 		"/>
		<path class="st9" d="M279.2,209.2l16.7-16.7c3.6-3.6,3.6-9.5,0-13.1l-7.5-7.5l-23.2,23.2L279.2,209.2z"/>
		
			<rect x="235.3" y="191.1" transform="matrix(0.7071 0.7071 -0.7071 0.7071 233.9488 -106.2238)" class="st10" width="19.8" height="76.5"/>
		<path class="st11" d="M185.6,281.2c-1.2,0-2.4-0.5-3.3-1.4c-1.8-1.8-1.8-4.8,0-6.6l10.3-10.3c1.8-1.8,4.8-1.8,6.6,0
			c1.8,1.8,1.8,4.8,0,6.6l-10.3,10.3C188,280.7,186.8,281.2,185.6,281.2z"/>
	</g>
</g>
</svg>
