<?xml version="1.0" encoding="utf-8"?>
<!-- Generator: Adobe Illustrator 19.0.0, SVG Export Plug-In . SVG Version: 6.00 Build 0)  -->
<svg version="1.1" id="Layer_1" xmlns="http://www.w3.org/2000/svg" xmlns:xlink="http://www.w3.org/1999/xlink" x="0px" y="0px"
	 viewBox="-340 104.5 318 292.5" style="enable-background:new -340 104.5 318 292.5;" xml:space="preserve">
<style type="text/css">
	.st0{fill:#5F4B8B;}
	.st1{fill:#EFEBDE;}
	.st2{fill:#D5D0BB;}
	.st3{fill:#36495E;}
	.st4{fill:#7F6E5D;}
	.st5{fill:#EDDCC7;}
	.st6{fill:#D75A4A;}
	.st7{fill:#F29C21;}
	.st8{fill:#D6C4B1;}
	.st9{fill:#A34740;}
	.st10{fill:#E18C25;}
	.st11{fill:#5E5E5E;}
</style>
<g>
	<polygon class="st0" points="-89.2,134.3 -89.2,153 -121.8,153 -121.8,134.3 -233.5,134.3 -233.5,153 -266.1,153 -266.1,134.3 
		-303.4,134.3 -303.4,185.6 -51.9,185.6 -51.9,134.3 	"/>
	<polygon class="st1" points="-266.1,185.6 -303.4,185.6 -303.4,385.8 -51.9,385.8 -51.9,185.6 -89.2,185.6 -121.8,185.6 
		-233.5,185.6 	"/>
	<path class="st2" d="M-131.1,218.2h-9.3H-173h-9.3h-32.6h-9.3h-41.9v41.9v9.3V302v9.3v41.9h41.9h9.3h32.6h9.3h32.6h9.3h41.9v-41.9
		V302v-32.6v-9.3v-41.9L-131.1,218.2L-131.1,218.2z M-173,227.5h32.6v32.6H-173V227.5z M-140.4,302H-173v-32.6h32.6V302z
		 M-214.9,269.4h32.6V302h-32.6V269.4z M-214.9,227.5h32.6v32.6h-32.6V227.5z M-256.8,227.5h32.6v32.6h-32.6V227.5z M-256.8,269.4
		h32.6V302h-32.6V269.4z M-224.2,343.9h-32.6v-32.6h32.6C-224.2,311.3-224.2,343.9-224.2,343.9z M-182.3,343.9h-32.6v-32.6h32.6
		V343.9z M-140.4,343.9H-173v-32.6h32.6V343.9z M-98.5,343.9h-32.6v-32.6h32.6V343.9z M-98.5,302h-32.6v-32.6h32.6V302z
		 M-131.1,260.1v-32.6h32.6v32.6H-131.1z"/>
	<rect x="-266.1" y="115.7" class="st3" width="32.6" height="37.2"/>
	<rect x="-121.8" y="115.7" class="st3" width="32.6" height="37.2"/>
	<rect x="-214.9" y="269.4" class="st4" width="32.6" height="32.6"/>
	<g>
		<polygon class="st5" points="-141.2,341.5 -141.2,341.5 -150.5,375.5 -128.8,353.8 		"/>
		<path class="st6" d="M-51.5,276.5l-5.8-5.8c-3.6-3.6-9.5-3.6-13.1,0l-16.7,16.7l12.3,12.3L-51.5,276.5z"/>
		
			<rect x="-116.7" y="282.3" transform="matrix(0.7071 0.7071 -0.7071 0.7071 195.0634 170.2287)" class="st7" width="17.5" height="76.5"/>
		<polygon class="st8" points="-114.9,367.9 -114.8,367.8 -128.8,353.8 -150.5,375.5 -151.1,377.7 		"/>
		<path class="st9" d="M-60.8,313.7l16.7-16.7c3.6-3.6,3.6-9.5,0-13.1l-7.5-7.5l-23.2,23.2L-60.8,313.7z"/>
		
			<rect x="-104.7" y="295.6" transform="matrix(-0.7071 -0.7071 0.7071 -0.7071 -397.9621 502.8197)" class="st10" width="19.8" height="76.5"/>
		<path class="st11" d="M-154.4,385.7c-1.2,0-2.4-0.5-3.3-1.4c-1.8-1.8-1.8-4.8,0-6.6l10.3-10.3c1.8-1.8,4.8-1.8,6.6,0
			s1.8,4.8,0,6.6l-10.3,10.3C-152,385.2-153.2,385.7-154.4,385.7z"/>
	</g>
</g>
</svg>
