<?xml version="1.0" encoding="utf-8"?>
<!-- Generator: Adobe Illustrator 19.0.0, SVG Export Plug-In . SVG Version: 6.00 Build 0)  -->
<svg version="1.1" id="Layer_1" xmlns="http://www.w3.org/2000/svg" xmlns:xlink="http://www.w3.org/1999/xlink" x="0px" y="0px"
	 viewBox="0 0 318 292.5" style="enable-background:new 0 0 318 292.5;" xml:space="preserve">
<style type="text/css">
	.st0{fill:#6C6B70;}
	.st1{fill:#BABABF;}
	.st2{fill:#D1C4F7;}
	.st3{fill:#3E3654;}
	.st4{fill:#48A0DC;}
	.st5{fill:#26B99A;}
	.st6{fill:#FFFFFF;}
	.st7{fill:#FDC794;}
	.st8{fill:#FFE9EC;}
	.st9{fill:#F9A671;}
</style>
<path class="st0" d="M222.1,273.2H95.9c-6.6,0-12-5.4-12-12v-68.6c0-6.6,5.4-12,12-12h126.1c6.6,0,12,5.4,12,12v68.6
	C234.1,267.8,228.7,273.2,222.1,273.2z"/>
<path class="st1" d="M222.1,283.1H95.9c-6.6,0-12-5.4-12-12v-68.6c0-6.6,5.4-12,12-12h126.1c6.6,0,12,5.4,12,12v68.6
	C234.1,277.7,228.7,283.1,222.1,283.1z"/>
<path class="st1" d="M222.1,102H95.9c-6.6,0-12-5.4-12-12V21.4c0-6.6,5.4-12,12-12h126.1c6.6,0,12,5.4,12,12V90
	C234.1,96.6,228.7,102,222.1,102z"/>
<rect x="83.9" y="37.5" class="st2" width="150.1" height="199.2"/>
<circle class="st0" cx="159" cy="260.6" r="12.6"/>
<path class="st0" d="M184.4,27.7h-50.8c-1.1,0-2-0.9-2-2v-4.5c0-1.1,0.9-2,2-2h50.8c1.1,0,2,0.9,2,2v4.5
	C186.4,26.8,185.5,27.7,184.4,27.7z"/>
<path class="st3" d="M-761.4,272l-1.9-3.1l-1.1-1.9l-1.8-3l-1-1.6l-5.9-9.7l7.4-0.2c-4.6-16.8-19.4-29.3-37.2-30.5
	c1.3-0.2,2.6-0.3,3.9-0.3c19.5-0.5,36.3,12.5,41.2,30.6l7.2-0.2l-5.8,10.6L-761.4,272z"/>
<path class="st4" d="M203.5,184.6c-0.7,0-1.4-0.2-1.9-1c-0.7-1-0.7-2.6,0.5-3.4c13.2-10.1,20.7-25.3,20.7-41.9c0-29.1-23.8-53-53-53
	c-17.1,0-33.2,8.4-43.3,22.4c4.6,4.1,7.2,9.9,7.2,15.9c0,9.9-7,18.5-16.4,20.7c1.7,14.2,8.9,27.2,20.5,35.9c1,0.7,1.2,2.4,0.5,3.4
	c-0.7,1-2.4,1.2-3.4,0.5c-13.2-9.9-21.4-24.8-22.6-41.2v-0.5l0.5-2.2l1.7-0.2c8.2-1.2,14.4-8.2,14.4-16.4c0-5.3-2.4-10.1-6.7-13.2
	l-1.2-1l1-3.4l0.2-0.2C133,90,150.8,80.6,169.8,80.6c31.8,0,57.8,26,57.8,57.8c0,18.1-8.2,34.7-22.6,45.7
	C204.5,184.6,204,184.6,203.5,184.6"/>
<path class="st5" d="M133.7,123.9c0-12-9.6-21.7-21.7-21.7s-21.7,9.6-21.7,21.7c0,12,9.6,21.7,21.7,21.7S133.7,136,133.7,123.9"/>
<g>
	<path class="st6" d="M109.7,136c-0.7,0-1.2-0.2-1.7-0.7l-7.2-7.2c-1-1-1-2.4,0-3.4c1-1,2.4-1,3.4,0l7.2,7.2c1,1,1,2.4,0,3.4
		C110.9,135.7,110.4,136,109.7,136"/>
	<path class="st6" d="M109.7,136c-0.5,0-1-0.2-1.4-0.5c-1.2-0.7-1.4-2.2-0.5-3.4l12-16.8c0.7-1,2.2-1.4,3.4-0.5
		c1,0.7,1.4,2.2,0.5,3.4l-12,16.8C111.1,135.7,110.4,136,109.7,136"/>
</g>
<path class="st7" d="M169.8,222.6L169.8,222.6c-18.5,0-33.7-15.2-33.7-33.7v-53c0-18.5,15.2-33.7,33.7-33.7s33.7,15.2,33.7,33.7v53
	C203.5,207.5,188.4,222.6,169.8,222.6"/>
<path class="st8" d="M145.8,160V136c0-13.2,10.8-24.1,24.1-24.1s24.1,10.8,24.1,24.1V160H145.8z"/>
<g>
	<path class="st9" d="M193.9,184.1h-48.1c-1.4,0-2.4-1-2.4-2.4c0-1.4,1-2.4,2.4-2.4h48.1c1.4,0,2.4,1,2.4,2.4
		C196.3,183.1,195.3,184.1,193.9,184.1z"/>
	<path class="st9" d="M193.9,193.7h-48.1c-1.4,0-2.4-1-2.4-2.4c0-1.4,1-2.4,2.4-2.4h48.1c1.4,0,2.4,1,2.4,2.4
		C196.3,192.8,195.3,193.7,193.9,193.7z"/>
</g>
<path class="st6" d="M169.8,145.6c-13.2,0-24.1,6.5-24.1,14.4h48.1C193.9,152.1,183.1,145.6,169.8,145.6"/>
</svg>
