<?xml version="1.0" encoding="utf-8"?>
<!-- Generator: Adobe Illustrator 19.0.0, SVG Export Plug-In . SVG Version: 6.00 Build 0)  -->
<svg version="1.1" id="Layer_1" xmlns="http://www.w3.org/2000/svg" xmlns:xlink="http://www.w3.org/1999/xlink" x="0px" y="0px"
	 viewBox="0 0 318 292.5" style="enable-background:new 0 0 318 292.5;" xml:space="preserve">
<style type="text/css">
	.st0{fill:#6C6B70;}
	.st1{fill:#BABABF;}
	.st2{fill:#5F4B8B;}
	.st3{fill:#3E3654;}
	.st4{fill:#48A0DC;}
	.st5{fill:#26B99A;}
	.st6{fill:#FFFFFF;}
	.st7{fill:#FDC794;}
	.st8{fill:#FFE9EC;}
	.st9{fill:#F9A671;}
	.st10{fill:#FFD24D;}
	.st11{fill:#FAD4C6;}
</style>
<path class="st0" d="M233.7,274.9H107.6c-6.6,0-12-5.4-12-12v-68.6c0-6.6,5.4-12,12-12h126.1c6.6,0,12,5.4,12,12v68.6
	C245.7,269.5,240.3,274.9,233.7,274.9z"/>
<path class="st1" d="M233.7,284.8H107.6c-6.6,0-12-5.4-12-12v-68.6c0-6.6,5.4-12,12-12h126.1c6.6,0,12,5.4,12,12v68.6
	C245.7,279.4,240.3,284.8,233.7,284.8z"/>
<path class="st1" d="M233.7,103.7H107.6c-6.6,0-12-5.4-12-12V23.1c0-6.6,5.4-12,12-12h126.1c6.6,0,12,5.4,12,12v68.6
	C245.7,98.3,240.3,103.7,233.7,103.7z"/>
<rect x="95.6" y="39.2" class="st2" width="150.1" height="199.2"/>
<circle class="st0" cx="170.6" cy="262.3" r="12.6"/>
<path class="st0" d="M196,29.4h-50.8c-1.1,0-2-0.9-2-2v-4.5c0-1.1,0.9-2,2-2H196c1.1,0,2,0.9,2,2v4.5C198,28.5,197.1,29.4,196,29.4z
	"/>
<path class="st3" d="M-761.4,272l-1.9-3.1l-1.1-1.9l-1.8-3l-1-1.6l-5.9-9.7l7.4-0.2c-4.6-16.8-19.4-29.3-37.2-30.5
	c1.3-0.2,2.6-0.3,3.9-0.3c19.5-0.5,36.3,12.5,41.2,30.6l7.2-0.2l-5.8,10.6L-761.4,272z"/>
<path class="st4" d="M603.7,197.6c-0.7,0-1.4-0.2-1.9-1c-0.7-1-0.7-2.6,0.5-3.4c13.2-10.1,20.7-25.3,20.7-41.9c0-29.1-23.8-53-53-53
	c-17.1,0-33.2,8.4-43.3,22.4c4.6,4.1,7.2,9.9,7.2,15.9c0,9.9-7,18.5-16.4,20.7c1.7,14.2,8.9,27.2,20.5,35.9c1,0.7,1.2,2.4,0.5,3.4
	c-0.7,1-2.4,1.2-3.4,0.5c-13.2-9.9-21.4-24.8-22.6-41.2v-0.5l0.5-2.2l1.7-0.2c8.2-1.2,14.4-8.2,14.4-16.4c0-5.3-2.4-10.1-6.7-13.2
	l-1.2-1l1-3.4l0.2-0.2C533.1,103,551,93.6,570,93.6c31.8,0,57.8,26,57.8,57.8c0,18.1-8.2,34.7-22.6,45.7
	C604.6,197.6,604.1,197.6,603.7,197.6"/>
<path class="st5" d="M591.8,19.3c0-12-9.6-21.7-21.7-21.7c-12,0-21.7,9.6-21.7,21.7s9.6,21.7,21.7,21.7
	C582.1,40.9,591.8,31.3,591.8,19.3"/>
<g>
	<path class="st6" d="M613.2,48.4c-0.7,0-1.2-0.2-1.7-0.7l-7.2-7.2c-1-1-1-2.4,0-3.4c1-1,2.4-1,3.4,0l7.2,7.2c1,1,1,2.4,0,3.4
		C614.5,48.1,614,48.4,613.2,48.4"/>
	<path class="st6" d="M613.2,48.4c-0.5,0-1-0.2-1.4-0.5c-1.2-0.7-1.4-2.2-0.5-3.4l12-16.8c0.7-1,2.2-1.4,3.4-0.5
		c1,0.7,1.4,2.2,0.5,3.4l-12,16.8C614.7,48.1,614,48.4,613.2,48.4"/>
</g>
<path class="st7" d="M428.4,174.4L428.4,174.4c-18.5,0-33.7-15.2-33.7-33.7v-53c0-18.5,15.2-33.7,33.7-33.7
	c18.5,0,33.7,15.2,33.7,33.7v53C462,159.3,446.9,174.4,428.4,174.4"/>
<path class="st8" d="M438,47.5V23.5c0-13.2,10.8-24.1,24.1-24.1s24.1,10.8,24.1,24.1v24.1H438z"/>
<g>
	<path class="st9" d="M546-19.8h-48.1c-1.4,0-2.4-1-2.4-2.4c0-1.4,1-2.4,2.4-2.4H546c1.4,0,2.4,1,2.4,2.4
		C548.4-20.8,547.5-19.8,546-19.8z"/>
	<path class="st9" d="M546-10.2h-48.1c-1.4,0-2.4-1-2.4-2.4s1-2.4,2.4-2.4H546c1.4,0,2.4,1,2.4,2.4S547.5-10.2,546-10.2z"/>
</g>
<path class="st6" d="M293.9-98.4c-13.2,0-24.1,6.5-24.1,14.4H318C318-91.9,307.2-98.4,293.9-98.4"/>
<path class="st10" d="M204.4,119.2c-1.4,0-2.7-0.7-3.5-2c-1.2-1.9-0.6-4.5,1.3-5.7c7.6-4.7,12.1-12.8,12.1-21.6
	c0-14-11.4-25.4-25.4-25.4c-8.9,0-17.3,4.8-21.9,12.5c-1.2,2-3.7,2.6-5.7,1.4c-2-1.2-2.6-3.7-1.4-5.7c6-10.2,17.1-16.5,29-16.5
	c18.6,0,33.7,15.1,33.7,33.7c0,11.8-6,22.5-16,28.7C205.9,119,205.1,119.2,204.4,119.2z"/>
<g>
	<path class="st11" d="M197.6,201.4l-16.4-0.8l-0.8-16.4c4.7-4.7,12.4-4.7,17.2,0C202.3,189,202.3,196.7,197.6,201.4z"/>
	<path class="st11" d="M180.4,184.3l-16.4-0.8l-0.8-16.4c4.7-4.7,12.4-4.7,17.2,0C185.1,171.8,185.1,179.5,180.4,184.3z"/>
	<path class="st11" d="M163.2,167.1l-16.4-0.8l-0.8-16.4c4.7-4.7,12.4-4.7,17.2,0C168,154.7,168,162.4,163.2,167.1z"/>
</g>
<path class="st11" d="M146.1,149.9l50.7-50.7c4.7-4.7,4.7-12.4,0-17.2c-4.7-4.7-12.4-4.7-17.2,0c0,0-70.9,70.9-82.1,82.1
	c-11.5,11.5-16.2,27.2-13.9,42.2l-58.4,58.4h80.8l18-18c15,2.3,30.6-2.4,42.2-13.9c12.9-12.9,31.3-31.3,31.3-31.3L146.1,149.9z"/>
</svg>
