<?xml version="1.0" encoding="utf-8"?>
<!-- Generator: Adobe Illustrator 19.0.0, SVG Export Plug-In . SVG Version: 6.00 Build 0)  -->
<svg version="1.1" id="Layer_1" xmlns="http://www.w3.org/2000/svg" xmlns:xlink="http://www.w3.org/1999/xlink" x="0px" y="0px"
	 viewBox="0 0 500 294.9" style="enable-background:new 0 0 500 294.9;" xml:space="preserve">
<style type="text/css">
	.st0{fill:none;stroke:#000000;stroke-miterlimit:10;}
</style>
<rect id="XMLID_1_" x="148.5" y="147" width="185.6" height="3.2"/>
<polygon id="XMLID_2_" points="318,139.8 345,148.6 318,157.5 "/>
<path id="XMLID_17_" d="M286.5,150.1h-9.9c-0.4-1-0.9-1.9-1.3-2.8c-0.5-0.9-0.9-1.9-1.4-2.7c-3.8-6.9-8.6-13.8-14.3-20.3
	c-7.5-8.5-15.7-15.3-24.1-20.5c-1.2-0.7-2.4-1.4-3.6-2.1c-3.6-2-7.2-3.7-10.8-5c-0.6-0.2-1.2-0.4-1.8-0.6c-0.6-0.2-1.2-0.8-1.8-1
	c-4.7-1.5-9.2-2.9-13.5-2.9h-1v-2.4c1,0,0.6,0,0.8,0c19.7-0.9,45,11.8,65.1,34.5C276.2,132.4,282.2,141.1,286.5,150.1z"/>
<path id="XMLID_5_" d="M195,150.1h-9.9c-0.4-1-0.9-1.9-1.3-2.8c-0.5-0.9-0.9-1.9-1.4-2.7c-3.8-6.9-8.6-13.8-14.3-20.3
	c-7.5-8.5-15.7-15.3-24.1-20.5c-1.2-0.7-2.4-1.4-3.6-2.1c-3.6-2-7.2-3.7-10.8-5c-0.6-0.2-1.2-0.4-1.8-0.6c-0.6-0.2-1.2-0.8-1.8-1
	c-4.7-1.5-9.2-2.9-13.5-2.9H112v-2.4c0,0,0.3,0,0.5,0c19.7-0.9,44.9,11.8,65,34.5C184.8,132.4,190.6,141.1,195,150.1z"/>
<path id="XMLID_6_" d="M286.5,147.1h-9.9c-0.4,3-0.9,2-1.3,3c-0.5,0.9-0.9,1.9-1.4,2.8c-3.8,6.9-8.6,13.9-14.3,20.4
	c-7.5,8.5-15.7,15.4-24.1,20.5c-1.2,0.7-2.4,1.5-3.6,2.1c-3.6,2-7.2,3.7-10.8,5c-0.6,0.2-1.2,0.4-1.8,0.6c-0.6,0.2-1.2,0.6-1.8,0.8
	c-4.7,1.5-9.2,2.8-13.5,2.8h-1v2.6c1,0,0.6,0,0.8,0c19.7,0.9,45-12,65.1-34.6C276.2,164.9,282.2,156.1,286.5,147.1z"/>
<path id="XMLID_7_" d="M195,147.1h-9.9c-0.4,3-0.9,2-1.3,3c-0.5,0.9-0.9,1.9-1.4,2.8c-3.8,6.9-8.6,13.9-14.3,20.4
	c-7.5,8.5-15.7,15.4-24.1,20.5c-1.2,0.7-2.4,1.5-3.6,2.1c-3.6,2-7.2,3.7-10.8,5c-0.6,0.2-1.2,0.4-1.8,0.6c-0.6,0.2-1.2,0.6-1.8,0.8
	c-4.7,1.5-9.2,2.8-13.5,2.8H112v2.6c0,0,0.3,0,0.5,0c19.7,0.9,44.9-12,65-34.6C184.8,164.9,190.6,156.1,195,147.1z"/>
<ellipse id="XMLID_3_" class="st0" cx="82.6" cy="63.3" rx="58.4" ry="32.5"/>
<ellipse id="XMLID_11_" class="st0" cx="407.2" cy="148.7" rx="58.4" ry="32.5"/>
<ellipse id="XMLID_8_" class="st0" cx="77.5" cy="234.1" rx="58.4" ry="32.5"/>
<ellipse id="XMLID_9_" class="st0" cx="216.8" cy="237.2" rx="58.4" ry="32.5"/>
<ellipse id="XMLID_10_" class="st0" cx="219.9" cy="60.2" rx="58.4" ry="32.5"/>
<g id="XMLID_43_">
	<path id="XMLID_183_" d="M381,134.9c0.5-0.1,1-0.1,1.6-0.1c1.1,0,1.9,0.3,2.4,0.7c0.5,0.5,0.8,1.2,0.8,2.1c0,1-0.3,1.8-0.9,2.3
		c-0.6,0.6-1.5,0.9-2.6,0.9c-0.5,0-1,0-1.4-0.1V134.9z M381.7,140.2c0.2,0,0.5,0,0.8,0c1.6,0,2.5-0.9,2.5-2.5c0-1.4-0.8-2.3-2.4-2.3
		c-0.4,0-0.7,0-0.9,0.1V140.2z"/>
	<path id="XMLID_186_" d="M387.7,135.3c0,0.3-0.2,0.5-0.5,0.5c-0.3,0-0.5-0.2-0.5-0.5c0-0.3,0.2-0.5,0.5-0.5
		C387.5,134.8,387.7,135,387.7,135.3z M386.8,140.8v-4.3h0.8v4.3H386.8z"/>
	<path id="XMLID_189_" d="M389,140.8v-3.7h-0.6v-0.6h0.6v-0.2c0-1.1,0.7-1.9,1.9-1.9c0.4,0,0.9,0.1,1.1,0.3l-0.2,0.6
		c-0.2-0.1-0.5-0.2-0.9-0.2c-0.8,0-1.1,0.6-1.1,1.3v0.2h2.5v4.3h-0.8v-3.7h-1.7v3.7H389z"/>
	<path id="XMLID_191_" d="M396.6,140.6c-0.2,0.1-0.7,0.2-1.2,0.2c-1.3,0-2.1-0.9-2.1-2.2c0-1.3,0.9-2.3,2.3-2.3
		c0.5,0,0.9,0.1,1.1,0.2l-0.2,0.6c-0.2-0.1-0.5-0.2-0.9-0.2c-1,0-1.5,0.7-1.5,1.6c0,1,0.6,1.6,1.5,1.6c0.4,0,0.7-0.1,1-0.2
		L396.6,140.6z"/>
	<path id="XMLID_193_" d="M401.1,139.6c0,0.4,0,0.8,0,1.2h-0.7l0-0.7h0c-0.2,0.3-0.7,0.8-1.4,0.8c-0.7,0-1.5-0.4-1.5-1.9v-2.5h0.8
		v2.4c0,0.8,0.2,1.4,1,1.4c0.5,0,0.9-0.4,1-0.7c0-0.1,0.1-0.3,0.1-0.4v-2.6h0.8V139.6z"/>
	<path id="XMLID_195_" d="M402.4,134.5h0.8v6.3h-0.8V134.5z"/>
	<path id="XMLID_197_" d="M408.2,134.5v5.2c0,0.4,0,0.8,0,1.1h-0.7l0-0.7h0c-0.2,0.5-0.8,0.8-1.5,0.8c-1,0-1.8-0.9-1.8-2.2
		c0-1.4,0.9-2.3,1.9-2.3c0.7,0,1.1,0.3,1.3,0.7h0v-2.6H408.2z M407.4,138.3c0-0.1,0-0.2,0-0.3c-0.1-0.5-0.5-0.9-1.1-0.9
		c-0.8,0-1.3,0.7-1.3,1.7c0,0.9,0.4,1.6,1.3,1.6c0.5,0,1-0.3,1.1-0.9c0-0.1,0-0.2,0-0.3V138.3z"/>
	<path id="XMLID_200_" d="M411.8,140.8l-0.1-0.5h0c-0.2,0.3-0.7,0.6-1.3,0.6c-0.9,0-1.3-0.6-1.3-1.2c0-1,0.9-1.6,2.6-1.6V138
		c0-0.4-0.1-1-1-1c-0.4,0-0.8,0.1-1.1,0.3l-0.2-0.5c0.4-0.2,0.9-0.4,1.4-0.4c1.3,0,1.6,0.9,1.6,1.8v1.6c0,0.4,0,0.7,0.1,1H411.8z
		 M411.7,138.6c-0.8,0-1.8,0.1-1.8,1c0,0.5,0.3,0.7,0.7,0.7c0.6,0,0.9-0.4,1-0.7c0-0.1,0-0.2,0-0.2V138.6z"/>
	<path id="XMLID_203_" d="M417.4,134.5v5.2c0,0.4,0,0.8,0,1.1h-0.7l0-0.7h0c-0.2,0.5-0.8,0.8-1.5,0.8c-1,0-1.8-0.9-1.8-2.2
		c0-1.4,0.9-2.3,1.9-2.3c0.7,0,1.1,0.3,1.3,0.7h0v-2.6H417.4z M416.7,138.3c0-0.1,0-0.2,0-0.3c-0.1-0.5-0.5-0.9-1.1-0.9
		c-0.8,0-1.3,0.7-1.3,1.7c0,0.9,0.4,1.6,1.3,1.6c0.5,0,1-0.3,1.1-0.9c0-0.1,0-0.2,0-0.3V138.3z"/>
	<path id="XMLID_206_" d="M419.2,138.8c0,1.1,0.7,1.5,1.5,1.5c0.6,0,0.9-0.1,1.2-0.2l0.1,0.6c-0.3,0.1-0.7,0.3-1.4,0.3
		c-1.3,0-2.1-0.9-2.1-2.2s0.8-2.3,2-2.3c1.4,0,1.8,1.2,1.8,2c0,0.2,0,0.3,0,0.4H419.2z M421.5,138.2c0-0.5-0.2-1.3-1.1-1.3
		c-0.8,0-1.1,0.7-1.2,1.3H421.5z"/>
	<path id="XMLID_209_" d="M425,137.7c0-0.4,0-0.8,0-1.2h0.7l0,0.7h0c0.2-0.4,0.7-0.8,1.4-0.8c0.6,0,1.5,0.4,1.5,1.8v2.6h-0.8v-2.5
		c0-0.7-0.3-1.3-1-1.3c-0.5,0-0.9,0.4-1,0.8c0,0.1-0.1,0.2-0.1,0.4v2.6H425V137.7z"/>
	<path id="XMLID_211_" d="M433.8,138.6c0,1.6-1.1,2.3-2.1,2.3c-1.2,0-2.1-0.8-2.1-2.2c0-1.4,0.9-2.3,2.1-2.3
		C433,136.4,433.8,137.3,433.8,138.6z M430.4,138.7c0,0.9,0.5,1.6,1.3,1.6c0.7,0,1.3-0.7,1.3-1.7c0-0.7-0.4-1.6-1.3-1.6
		C430.8,137,430.4,137.9,430.4,138.7z"/>
	<path id="XMLID_214_" d="M377.8,147.1c0,0.3,0,0.7,0,1.2v2.5c0,1-0.2,1.6-0.6,2c-0.4,0.4-1,0.5-1.6,0.5c-0.5,0-1.1-0.1-1.4-0.4
		l0.2-0.6c0.3,0.2,0.7,0.3,1.3,0.3c0.8,0,1.4-0.4,1.4-1.5v-0.5h0c-0.2,0.4-0.7,0.7-1.4,0.7c-1.1,0-1.8-0.9-1.8-2.1
		c0-1.5,0.9-2.3,1.9-2.3c0.7,0,1.2,0.4,1.3,0.7h0l0-0.6H377.8z M377,148.8c0-0.1,0-0.2,0-0.4c-0.1-0.5-0.5-0.8-1.1-0.8
		c-0.7,0-1.3,0.6-1.3,1.6c0,0.8,0.4,1.5,1.3,1.5c0.5,0,0.9-0.3,1.1-0.8c0-0.1,0.1-0.3,0.1-0.4V148.8z"/>
	<path id="XMLID_217_" d="M379.5,149.4c0,1.1,0.7,1.5,1.5,1.5c0.6,0,0.9-0.1,1.2-0.2l0.1,0.6c-0.3,0.1-0.7,0.3-1.4,0.3
		c-1.3,0-2.1-0.9-2.1-2.2c0-1.3,0.8-2.3,2-2.3c1.4,0,1.8,1.2,1.8,2c0,0.2,0,0.3,0,0.4H379.5z M381.8,148.9c0-0.5-0.2-1.3-1.1-1.3
		c-0.8,0-1.1,0.7-1.2,1.3H381.8z"/>
	<path id="XMLID_220_" d="M383.5,148.5c0-0.5,0-0.9,0-1.3h0.7l0,0.8h0c0.2-0.6,0.7-0.9,1.2-0.9c0.1,0,0.2,0,0.2,0v0.7
		c-0.1,0-0.2,0-0.3,0c-0.5,0-0.9,0.4-1,1c0,0.1,0,0.2,0,0.4v2.3h-0.8V148.5z"/>
	<path id="XMLID_222_" d="M386.7,149.4c0,1.1,0.7,1.5,1.5,1.5c0.6,0,0.9-0.1,1.2-0.2l0.1,0.6c-0.3,0.1-0.7,0.3-1.4,0.3
		c-1.3,0-2.1-0.9-2.1-2.2c0-1.3,0.8-2.3,2-2.3c1.4,0,1.8,1.2,1.8,2c0,0.2,0,0.3,0,0.4H386.7z M389,148.9c0-0.5-0.2-1.3-1.1-1.3
		c-0.8,0-1.1,0.7-1.2,1.3H389z"/>
	<path id="XMLID_225_" d="M390.7,148.3c0-0.4,0-0.8,0-1.2h0.7l0,0.7h0c0.2-0.4,0.7-0.8,1.4-0.8c0.6,0,1.5,0.4,1.5,1.8v2.6h-0.8V149
		c0-0.7-0.3-1.3-1-1.3c-0.5,0-0.9,0.4-1,0.8c0,0.1-0.1,0.2-0.1,0.4v2.6h-0.8V148.3z"/>
	<path id="XMLID_227_" d="M398.7,151.3c-0.2,0.1-0.7,0.2-1.2,0.2c-1.3,0-2.1-0.9-2.1-2.2c0-1.3,0.9-2.3,2.3-2.3
		c0.5,0,0.9,0.1,1.1,0.2l-0.2,0.6c-0.2-0.1-0.5-0.2-0.9-0.2c-1,0-1.5,0.7-1.5,1.6c0,1,0.6,1.6,1.5,1.6c0.4,0,0.7-0.1,1-0.2
		L398.7,151.3z"/>
	<path id="XMLID_229_" d="M400.5,145.9c0,0.3-0.2,0.5-0.5,0.5c-0.3,0-0.5-0.2-0.5-0.5c0-0.3,0.2-0.5,0.5-0.5
		C400.3,145.4,400.5,145.7,400.5,145.9z M399.6,151.4v-4.3h0.8v4.3H399.6z"/>
	<path id="XMLID_232_" d="M404,151.4l-0.1-0.5h0c-0.2,0.3-0.7,0.6-1.3,0.6c-0.9,0-1.3-0.6-1.3-1.2c0-1,0.9-1.6,2.6-1.6v-0.1
		c0-0.4-0.1-1-1-1c-0.4,0-0.8,0.1-1.1,0.3l-0.2-0.5c0.4-0.2,0.9-0.4,1.4-0.4c1.3,0,1.6,0.9,1.6,1.8v1.6c0,0.4,0,0.7,0.1,1H404z
		 M403.9,149.2c-0.8,0-1.8,0.1-1.8,1c0,0.5,0.3,0.7,0.7,0.7c0.6,0,0.9-0.4,1-0.7c0-0.1,0-0.2,0-0.2V149.2z"/>
	<path id="XMLID_235_" d="M405.9,148.3c0-0.4,0-0.8,0-1.2h0.7l0,0.7h0c0.2-0.4,0.6-0.8,1.3-0.8c0.6,0,1,0.4,1.2,0.9h0
		c0.1-0.2,0.3-0.4,0.5-0.6c0.3-0.2,0.5-0.3,0.9-0.3c0.6,0,1.4,0.4,1.4,1.9v2.5h-0.8V149c0-0.8-0.3-1.3-0.9-1.3
		c-0.4,0-0.8,0.3-0.9,0.7c0,0.1-0.1,0.2-0.1,0.4v2.6h-0.8v-2.6c0-0.7-0.3-1.2-0.9-1.2c-0.5,0-0.8,0.4-1,0.8c0,0.1-0.1,0.2-0.1,0.4
		v2.6h-0.8V148.3z"/>
	<path id="XMLID_237_" d="M413.8,149.4c0,1.1,0.7,1.5,1.5,1.5c0.6,0,0.9-0.1,1.2-0.2l0.1,0.6c-0.3,0.1-0.7,0.3-1.4,0.3
		c-1.3,0-2.1-0.9-2.1-2.2c0-1.3,0.8-2.3,2-2.3c1.4,0,1.8,1.2,1.8,2c0,0.2,0,0.3,0,0.4H413.8z M416,148.9c0-0.5-0.2-1.3-1.1-1.3
		c-0.8,0-1.1,0.7-1.2,1.3H416z"/>
	<path id="XMLID_240_" d="M417.8,148.3c0-0.4,0-0.8,0-1.2h0.7l0,0.7h0c0.2-0.4,0.7-0.8,1.4-0.8c0.6,0,1.5,0.4,1.5,1.8v2.6h-0.8V149
		c0-0.7-0.3-1.3-1-1.3c-0.5,0-0.9,0.4-1,0.8c0,0.1-0.1,0.2-0.1,0.4v2.6h-0.8V148.3z"/>
	<path id="XMLID_242_" d="M423.6,145.9v1.2h1.1v0.6h-1.1v2.3c0,0.5,0.2,0.8,0.6,0.8c0.2,0,0.4,0,0.5-0.1l0,0.6
		c-0.2,0.1-0.4,0.1-0.7,0.1c-0.4,0-0.7-0.1-0.8-0.3c-0.2-0.2-0.3-0.6-0.3-1.1v-2.3h-0.7v-0.6h0.7v-1L423.6,145.9z"/>
	<path id="XMLID_244_" d="M429.4,149.2c0,1.6-1.1,2.3-2.1,2.3c-1.2,0-2.1-0.8-2.1-2.2c0-1.4,0.9-2.3,2.1-2.3
		C428.6,147,429.4,147.9,429.4,149.2z M426,149.3c0,0.9,0.5,1.6,1.3,1.6c0.7,0,1.3-0.7,1.3-1.7c0-0.7-0.4-1.6-1.3-1.6
		C426.4,147.6,426,148.5,426,149.3z"/>
	<path id="XMLID_247_" d="M435.9,145.1v5.2c0,0.4,0,0.8,0,1.1h-0.7l0-0.7h0c-0.2,0.5-0.8,0.8-1.5,0.8c-1,0-1.8-0.9-1.8-2.2
		c0-1.4,0.9-2.3,1.9-2.3c0.7,0,1.1,0.3,1.3,0.7h0v-2.6H435.9z M435.2,148.9c0-0.1,0-0.2,0-0.3c-0.1-0.5-0.5-0.9-1.1-0.9
		c-0.8,0-1.3,0.7-1.3,1.7c0,0.9,0.4,1.6,1.3,1.6c0.5,0,1-0.3,1.1-0.9c0-0.1,0-0.2,0-0.3V148.9z"/>
	<path id="XMLID_250_" d="M437.7,149.4c0,1.1,0.7,1.5,1.5,1.5c0.6,0,0.9-0.1,1.2-0.2l0.1,0.6c-0.3,0.1-0.7,0.3-1.4,0.3
		c-1.3,0-2.1-0.9-2.1-2.2c0-1.3,0.8-2.3,2-2.3c1.4,0,1.8,1.2,1.8,2c0,0.2,0,0.3,0,0.4H437.7z M440,148.9c0-0.5-0.2-1.3-1.1-1.3
		c-0.8,0-1.1,0.7-1.2,1.3H440z"/>
	<path id="XMLID_253_" d="M395.3,160c0,1.1,0.7,1.5,1.5,1.5c0.6,0,0.9-0.1,1.2-0.2l0.1,0.6c-0.3,0.1-0.7,0.3-1.4,0.3
		c-1.3,0-2.1-0.9-2.1-2.2c0-1.3,0.8-2.3,2-2.3c1.4,0,1.8,1.2,1.8,2c0,0.2,0,0.3,0,0.4H395.3z M397.6,159.5c0-0.5-0.2-1.3-1.1-1.3
		c-0.8,0-1.1,0.7-1.2,1.3H397.6z"/>
	<path id="XMLID_256_" d="M399.2,161.2c0.2,0.2,0.6,0.3,1,0.3c0.6,0,0.8-0.3,0.8-0.6c0-0.4-0.2-0.6-0.8-0.8
		c-0.8-0.3-1.1-0.7-1.1-1.2c0-0.7,0.6-1.3,1.5-1.3c0.4,0,0.8,0.1,1.1,0.3l-0.2,0.6c-0.2-0.1-0.5-0.2-0.9-0.2c-0.5,0-0.7,0.3-0.7,0.6
		c0,0.4,0.3,0.5,0.8,0.7c0.7,0.3,1.1,0.7,1.1,1.3c0,0.8-0.6,1.3-1.6,1.3c-0.5,0-0.9-0.1-1.2-0.3L399.2,161.2z"/>
	<path id="XMLID_258_" d="M405.9,161.9c-0.2,0.1-0.7,0.2-1.2,0.2c-1.3,0-2.1-0.9-2.1-2.2c0-1.3,0.9-2.3,2.3-2.3
		c0.5,0,0.9,0.1,1.1,0.2l-0.2,0.6c-0.2-0.1-0.5-0.2-0.9-0.2c-1,0-1.5,0.7-1.5,1.6c0,1,0.6,1.6,1.5,1.6c0.4,0,0.7-0.1,1-0.2
		L405.9,161.9z"/>
	<path id="XMLID_260_" d="M409.1,162l-0.1-0.5h0c-0.2,0.3-0.7,0.6-1.3,0.6c-0.9,0-1.3-0.6-1.3-1.2c0-1,0.9-1.6,2.6-1.6v-0.1
		c0-0.4-0.1-1-1-1c-0.4,0-0.8,0.1-1.1,0.3l-0.2-0.5c0.4-0.2,0.9-0.4,1.4-0.4c1.3,0,1.6,0.9,1.6,1.8v1.6c0,0.4,0,0.7,0.1,1H409.1z
		 M409,159.9c-0.8,0-1.8,0.1-1.8,1c0,0.5,0.3,0.7,0.7,0.7c0.6,0,0.9-0.4,1-0.7c0-0.1,0-0.2,0-0.2V159.9z"/>
	<path id="XMLID_263_" d="M411,155.8h0.8v6.3H411V155.8z"/>
	<path id="XMLID_265_" d="M415.5,162l-0.1-0.5h0c-0.2,0.3-0.7,0.6-1.3,0.6c-0.9,0-1.3-0.6-1.3-1.2c0-1,0.9-1.6,2.6-1.6v-0.1
		c0-0.4-0.1-1-1-1c-0.4,0-0.8,0.1-1.1,0.3l-0.2-0.5c0.4-0.2,0.9-0.4,1.4-0.4c1.3,0,1.6,0.9,1.6,1.8v1.6c0,0.4,0,0.7,0.1,1H415.5z
		 M415.4,159.9c-0.8,0-1.8,0.1-1.8,1c0,0.5,0.3,0.7,0.7,0.7c0.6,0,0.9-0.4,1-0.7c0-0.1,0-0.2,0-0.2V159.9z"/>
	<path id="XMLID_268_" d="M417.3,161.2c0.2,0.2,0.6,0.3,1,0.3c0.6,0,0.8-0.3,0.8-0.6c0-0.4-0.2-0.6-0.8-0.8
		c-0.8-0.3-1.1-0.7-1.1-1.2c0-0.7,0.6-1.3,1.5-1.3c0.4,0,0.8,0.1,1.1,0.3l-0.2,0.6c-0.2-0.1-0.5-0.2-0.9-0.2c-0.5,0-0.7,0.3-0.7,0.6
		c0,0.4,0.3,0.5,0.8,0.7c0.7,0.3,1.1,0.7,1.1,1.3c0,0.8-0.6,1.3-1.6,1.3c-0.5,0-0.9-0.1-1.2-0.3L417.3,161.2z"/>
</g>
<g id="XMLID_39_">
	<path id="XMLID_404_" d="M42.9,48.1H46v0.6h-2.3v1.9h2.1v0.6h-2.1v2.6h-0.7V48.1z"/>
	<path id="XMLID_406_" d="M48.9,53.7l-0.1-0.5h0c-0.2,0.3-0.7,0.6-1.2,0.6c-0.8,0-1.2-0.6-1.2-1.2c0-1,0.9-1.5,2.5-1.5v-0.1
		c0-0.3-0.1-0.9-0.9-0.9c-0.4,0-0.8,0.1-1.1,0.3l-0.2-0.5c0.3-0.2,0.8-0.4,1.3-0.4c1.2,0,1.5,0.9,1.5,1.7v1.5c0,0.4,0,0.7,0.1,1
		H48.9z M48.8,51.7c-0.8,0-1.7,0.1-1.7,0.9c0,0.5,0.3,0.7,0.7,0.7c0.5,0,0.9-0.3,1-0.7c0-0.1,0-0.2,0-0.2V51.7z"/>
	<path id="XMLID_409_" d="M50.7,47.8h0.7v6h-0.7V47.8z"/>
	<path id="XMLID_411_" d="M53.6,48.5v1.2h1.1v0.6h-1.1v2.2c0,0.5,0.1,0.8,0.6,0.8c0.2,0,0.3,0,0.4-0.1l0,0.6
		c-0.1,0.1-0.4,0.1-0.7,0.1c-0.3,0-0.6-0.1-0.8-0.3c-0.2-0.2-0.3-0.6-0.3-1.1v-2.2h-0.6v-0.6h0.6v-1L53.6,48.5z"/>
	<path id="XMLID_413_" d="M57.7,53.7l-0.1-0.5h0c-0.2,0.3-0.7,0.6-1.2,0.6c-0.8,0-1.2-0.6-1.2-1.2c0-1,0.9-1.5,2.5-1.5v-0.1
		c0-0.3-0.1-0.9-0.9-0.9c-0.4,0-0.8,0.1-1.1,0.3l-0.2-0.5c0.3-0.2,0.8-0.4,1.3-0.4c1.2,0,1.5,0.9,1.5,1.7v1.5c0,0.4,0,0.7,0.1,1
		H57.7z M57.6,51.7c-0.8,0-1.7,0.1-1.7,0.9c0,0.5,0.3,0.7,0.7,0.7c0.5,0,0.9-0.3,1-0.7c0-0.1,0-0.2,0-0.2V51.7z"/>
	<path id="XMLID_416_" d="M64.8,47.8v4.9c0,0.4,0,0.8,0,1.1h-0.7l0-0.7h0c-0.2,0.5-0.7,0.8-1.4,0.8c-1,0-1.7-0.8-1.7-2.1
		c0-1.4,0.8-2.2,1.8-2.2c0.6,0,1,0.3,1.2,0.6h0v-2.4H64.8z M64.1,51.3c0-0.1,0-0.2,0-0.3c-0.1-0.5-0.5-0.9-1.1-0.9
		c-0.8,0-1.2,0.7-1.2,1.6c0,0.8,0.4,1.5,1.2,1.5c0.5,0,1-0.3,1.1-0.9c0-0.1,0-0.2,0-0.3V51.3z"/>
	<path id="XMLID_419_" d="M66.5,51.8c0,1,0.7,1.4,1.4,1.4c0.5,0,0.9-0.1,1.1-0.2l0.1,0.5c-0.3,0.1-0.7,0.3-1.4,0.3
		c-1.3,0-2-0.8-2-2.1c0-1.2,0.7-2.2,1.9-2.2c1.3,0,1.7,1.2,1.7,1.9c0,0.2,0,0.3,0,0.3H66.5z M68.6,51.3c0-0.5-0.2-1.2-1-1.2
		c-0.8,0-1.1,0.7-1.1,1.2H68.6z"/>
	<path id="XMLID_422_" d="M72.9,48.5c0,0.3-0.2,0.5-0.5,0.5c-0.3,0-0.4-0.2-0.4-0.5c0-0.3,0.2-0.5,0.5-0.5
		C72.7,48.1,72.9,48.3,72.9,48.5z M72.1,53.7v-4.1h0.7v4.1H72.1z"/>
	<path id="XMLID_425_" d="M74,50.8c0-0.4,0-0.8,0-1.1h0.7l0,0.7h0c0.2-0.4,0.7-0.8,1.3-0.8c0.6,0,1.4,0.3,1.4,1.7v2.4h-0.7v-2.4
		c0-0.7-0.2-1.2-0.9-1.2c-0.5,0-0.9,0.3-1,0.8c0,0.1-0.1,0.2-0.1,0.3v2.5H74V50.8z"/>
	<path id="XMLID_427_" d="M79.6,48.5v1.2h1.1v0.6h-1.1v2.2c0,0.5,0.1,0.8,0.6,0.8c0.2,0,0.3,0,0.4-0.1l0,0.6
		c-0.1,0.1-0.4,0.1-0.7,0.1c-0.3,0-0.6-0.1-0.8-0.3c-0.2-0.2-0.3-0.6-0.3-1.1v-2.2h-0.6v-0.6h0.6v-1L79.6,48.5z"/>
	<path id="XMLID_429_" d="M81.8,51.8c0,1,0.7,1.4,1.4,1.4c0.5,0,0.9-0.1,1.1-0.2l0.1,0.5c-0.3,0.1-0.7,0.3-1.4,0.3
		c-1.3,0-2-0.8-2-2.1c0-1.2,0.7-2.2,1.9-2.2c1.3,0,1.7,1.2,1.7,1.9c0,0.2,0,0.3,0,0.3H81.8z M84,51.3c0-0.5-0.2-1.2-1-1.2
		c-0.7,0-1.1,0.7-1.1,1.2H84z"/>
	<path id="XMLID_432_" d="M89.1,49.7c0,0.3,0,0.6,0,1.1v2.4c0,0.9-0.2,1.5-0.6,1.9c-0.4,0.4-1,0.5-1.5,0.5c-0.5,0-1-0.1-1.4-0.3
		l0.2-0.6c0.3,0.2,0.7,0.3,1.2,0.3c0.8,0,1.3-0.4,1.3-1.4V53h0c-0.2,0.4-0.7,0.7-1.3,0.7c-1,0-1.7-0.9-1.7-2c0-1.4,0.9-2.2,1.8-2.2
		c0.7,0,1.1,0.4,1.3,0.7h0l0-0.6H89.1z M88.4,51.3c0-0.1,0-0.2,0-0.3c-0.1-0.4-0.5-0.8-1-0.8c-0.7,0-1.2,0.6-1.2,1.5
		c0,0.8,0.4,1.5,1.2,1.5c0.5,0,0.9-0.3,1-0.8c0-0.1,0.1-0.3,0.1-0.4V51.3z"/>
	<path id="XMLID_435_" d="M90.3,50.9c0-0.5,0-0.9,0-1.3h0.6l0,0.8h0c0.2-0.5,0.6-0.9,1.1-0.9c0.1,0,0.1,0,0.2,0v0.7
		c-0.1,0-0.2,0-0.3,0c-0.5,0-0.9,0.4-1,1c0,0.1,0,0.2,0,0.3v2.2h-0.7V50.9z"/>
	<path id="XMLID_437_" d="M95.3,53.7l-0.1-0.5h0c-0.2,0.3-0.7,0.6-1.2,0.6c-0.8,0-1.2-0.6-1.2-1.2c0-1,0.9-1.5,2.5-1.5v-0.1
		c0-0.3-0.1-0.9-0.9-0.9c-0.4,0-0.8,0.1-1.1,0.3L93,49.9c0.3-0.2,0.8-0.4,1.3-0.4c1.2,0,1.5,0.9,1.5,1.7v1.5c0,0.4,0,0.7,0.1,1H95.3
		z M95.1,51.7c-0.8,0-1.7,0.1-1.7,0.9c0,0.5,0.3,0.7,0.7,0.7c0.5,0,0.9-0.3,1-0.7c0-0.1,0-0.2,0-0.2V51.7z"/>
	<path id="XMLID_440_" d="M100,53.6c-0.2,0.1-0.6,0.2-1.1,0.2l-0.2,0.3c0.3,0,0.6,0.3,0.6,0.6c0,0.5-0.4,0.7-0.9,0.7
		c-0.2,0-0.4-0.1-0.6-0.1l0.1-0.4c0.1,0.1,0.3,0.1,0.5,0.1c0.2,0,0.4-0.1,0.4-0.3c0-0.2-0.3-0.3-0.7-0.4l0.4-0.6
		c-1-0.1-1.7-0.9-1.7-2.1c0-1.3,0.9-2.2,2.2-2.2c0.4,0,0.8,0.1,1,0.2l-0.2,0.6c-0.2-0.1-0.5-0.2-0.9-0.2c-0.9,0-1.4,0.7-1.4,1.5
		c0,0.9,0.6,1.5,1.4,1.5c0.4,0,0.7-0.1,0.9-0.2L100,53.6z"/>
	<path id="XMLID_442_" d="M103.1,53.7l-0.1-0.5h0c-0.2,0.3-0.7,0.6-1.2,0.6c-0.8,0-1.2-0.6-1.2-1.2c0-1,0.9-1.5,2.5-1.5v-0.1
		c0-0.3-0.1-0.9-0.9-0.9c-0.4,0-0.8,0.1-1.1,0.3l-0.2-0.5c0.3-0.2,0.8-0.4,1.3-0.4c1.2,0,1.5,0.9,1.5,1.7v1.5c0,0.4,0,0.7,0.1,1
		H103.1z M101.2,49c0-0.5,0.2-0.9,0.6-0.9c0.2,0,0.3,0.1,0.5,0.2c0.1,0.1,0.3,0.1,0.4,0.1c0.1,0,0.2-0.1,0.2-0.4h0.4
		c0,0.6-0.2,0.9-0.6,0.9c-0.2,0-0.3-0.1-0.5-0.2c-0.2-0.1-0.3-0.2-0.4-0.2c-0.1,0-0.2,0.1-0.2,0.4H101.2z M103,51.7
		c-0.8,0-1.7,0.1-1.7,0.9c0,0.5,0.3,0.7,0.7,0.7c0.5,0,0.9-0.3,1-0.7c0-0.1,0-0.2,0-0.2V51.7z"/>
	<path id="XMLID_446_" d="M108.6,51.7c0,1.5-1,2.2-2,2.2c-1.1,0-2-0.8-2-2.1c0-1.4,0.9-2.2,2-2.2C107.8,49.6,108.6,50.4,108.6,51.7z
		 M105.3,51.7c0,0.9,0.5,1.6,1.2,1.6c0.7,0,1.2-0.7,1.2-1.6c0-0.7-0.3-1.6-1.2-1.6S105.3,50.9,105.3,51.7z"/>
	<path id="XMLID_449_" d="M114.8,47.8v4.9c0,0.4,0,0.8,0,1.1h-0.7l0-0.7h0c-0.2,0.5-0.7,0.8-1.4,0.8c-1,0-1.7-0.8-1.7-2.1
		c0-1.4,0.8-2.2,1.8-2.2c0.6,0,1,0.3,1.2,0.6h0v-2.4H114.8z M114.1,51.3c0-0.1,0-0.2,0-0.3c-0.1-0.5-0.5-0.9-1.1-0.9
		c-0.8,0-1.2,0.7-1.2,1.6c0,0.8,0.4,1.5,1.2,1.5c0.5,0,1-0.3,1.1-0.9c0-0.1,0-0.2,0-0.3V51.3z"/>
	<path id="XMLID_452_" d="M118.3,53.7l-0.1-0.5h0c-0.2,0.3-0.7,0.6-1.2,0.6c-0.8,0-1.2-0.6-1.2-1.2c0-1,0.9-1.5,2.5-1.5v-0.1
		c0-0.3-0.1-0.9-0.9-0.9c-0.4,0-0.8,0.1-1.1,0.3l-0.2-0.5c0.3-0.2,0.8-0.4,1.3-0.4c1.2,0,1.5,0.9,1.5,1.7v1.5c0,0.4,0,0.7,0.1,1
		H118.3z M118.2,51.7c-0.8,0-1.7,0.1-1.7,0.9c0,0.5,0.3,0.7,0.7,0.7c0.5,0,0.9-0.3,1-0.7c0-0.1,0-0.2,0-0.2V51.7z"/>
	<path id="XMLID_455_" d="M120,53c0.2,0.1,0.6,0.3,1,0.3c0.5,0,0.8-0.3,0.8-0.6c0-0.4-0.2-0.5-0.8-0.7c-0.7-0.3-1.1-0.7-1.1-1.2
		c0-0.7,0.5-1.2,1.4-1.2c0.4,0,0.8,0.1,1,0.3l-0.2,0.5c-0.2-0.1-0.5-0.2-0.8-0.2c-0.4,0-0.7,0.3-0.7,0.6c0,0.3,0.2,0.5,0.8,0.7
		c0.7,0.3,1.1,0.6,1.1,1.2c0,0.7-0.6,1.2-1.5,1.2c-0.4,0-0.9-0.1-1.1-0.3L120,53z"/>
	<path id="XMLID_457_" d="M50.5,61.9c0,1,0.7,1.4,1.4,1.4c0.5,0,0.9-0.1,1.1-0.2l0.1,0.5c-0.3,0.1-0.7,0.3-1.4,0.3
		c-1.3,0-2-0.8-2-2.1c0-1.2,0.7-2.2,1.9-2.2c1.3,0,1.7,1.2,1.7,1.9c0,0.2,0,0.3,0,0.3H50.5z M52.6,61.4c0-0.5-0.2-1.2-1-1.2
		c-0.8,0-1.1,0.7-1.1,1.2H52.6z"/>
	<path id="XMLID_460_" d="M54.2,63.1c0.2,0.1,0.6,0.3,1,0.3c0.5,0,0.8-0.3,0.8-0.6c0-0.4-0.2-0.5-0.8-0.7c-0.7-0.3-1.1-0.7-1.1-1.2
		c0-0.7,0.5-1.2,1.4-1.2c0.4,0,0.8,0.1,1,0.3l-0.2,0.5c-0.2-0.1-0.5-0.2-0.8-0.2c-0.4,0-0.7,0.3-0.7,0.6c0,0.3,0.2,0.5,0.8,0.7
		c0.7,0.3,1.1,0.6,1.1,1.2c0,0.7-0.6,1.2-1.5,1.2c-0.4,0-0.9-0.1-1.1-0.3L54.2,63.1z"/>
	<path id="XMLID_462_" d="M60.5,63.7c-0.2,0.1-0.6,0.2-1.2,0.2c-1.2,0-2-0.8-2-2.1c0-1.3,0.9-2.2,2.2-2.2c0.4,0,0.8,0.1,1,0.2
		l-0.2,0.6c-0.2-0.1-0.5-0.2-0.9-0.2c-0.9,0-1.4,0.7-1.4,1.5c0,0.9,0.6,1.5,1.4,1.5c0.4,0,0.7-0.1,0.9-0.2L60.5,63.7z"/>
	<path id="XMLID_464_" d="M63.6,63.8l-0.1-0.5h0c-0.2,0.3-0.7,0.6-1.2,0.6c-0.8,0-1.2-0.6-1.2-1.2c0-1,0.9-1.5,2.5-1.5v-0.1
		c0-0.3-0.1-0.9-0.9-0.9c-0.4,0-0.8,0.1-1.1,0.3L61.3,60c0.3-0.2,0.8-0.4,1.3-0.4c1.2,0,1.5,0.9,1.5,1.7v1.5c0,0.4,0,0.7,0.1,1H63.6
		z M63.5,61.8c-0.8,0-1.7,0.1-1.7,0.9c0,0.5,0.3,0.7,0.7,0.7c0.5,0,0.9-0.3,1-0.7c0-0.1,0-0.2,0-0.2V61.8z"/>
	<path id="XMLID_467_" d="M65.4,57.9h0.7v6h-0.7V57.9z"/>
	<path id="XMLID_469_" d="M69.7,63.8l-0.1-0.5h0c-0.2,0.3-0.7,0.6-1.2,0.6c-0.8,0-1.2-0.6-1.2-1.2c0-1,0.9-1.5,2.5-1.5v-0.1
		c0-0.3-0.1-0.9-0.9-0.9c-0.4,0-0.8,0.1-1.1,0.3L67.4,60c0.3-0.2,0.8-0.4,1.3-0.4c1.2,0,1.5,0.9,1.5,1.7v1.5c0,0.4,0,0.7,0.1,1H69.7
		z M69.6,61.8c-0.8,0-1.7,0.1-1.7,0.9c0,0.5,0.3,0.7,0.7,0.7c0.5,0,0.9-0.3,1-0.7c0-0.1,0-0.2,0-0.2V61.8z"/>
	<path id="XMLID_472_" d="M71.4,63.1c0.2,0.1,0.6,0.3,1,0.3c0.5,0,0.8-0.3,0.8-0.6c0-0.4-0.2-0.5-0.8-0.7c-0.7-0.3-1.1-0.7-1.1-1.2
		c0-0.7,0.5-1.2,1.4-1.2c0.4,0,0.8,0.1,1,0.3l-0.2,0.5c-0.2-0.1-0.5-0.2-0.8-0.2c-0.4,0-0.7,0.3-0.7,0.6c0,0.3,0.2,0.5,0.8,0.7
		c0.7,0.3,1.1,0.6,1.1,1.2c0,0.7-0.6,1.2-1.5,1.2c-0.4,0-0.9-0.1-1.1-0.3L71.4,63.1z"/>
	<path id="XMLID_474_" d="M80.1,57.9v4.9c0,0.4,0,0.8,0,1.1h-0.7l0-0.7h0c-0.2,0.5-0.7,0.8-1.4,0.8c-1,0-1.7-0.8-1.7-2.1
		c0-1.4,0.8-2.2,1.8-2.2c0.6,0,1,0.3,1.2,0.6h0v-2.4H80.1z M79.4,61.4c0-0.1,0-0.2,0-0.3c-0.1-0.5-0.5-0.9-1.1-0.9
		c-0.8,0-1.2,0.7-1.2,1.6c0,0.8,0.4,1.5,1.2,1.5c0.5,0,1-0.3,1.1-0.9c0-0.1,0-0.2,0-0.3V61.4z"/>
	<path id="XMLID_477_" d="M81.8,61.9c0,1,0.7,1.4,1.4,1.4c0.5,0,0.9-0.1,1.1-0.2l0.1,0.5c-0.3,0.1-0.7,0.3-1.4,0.3
		c-1.3,0-2-0.8-2-2.1c0-1.2,0.7-2.2,1.9-2.2c1.3,0,1.7,1.2,1.7,1.9c0,0.2,0,0.3,0,0.3H81.8z M83.9,61.4c0-0.5-0.2-1.2-1-1.2
		c-0.8,0-1.1,0.7-1.1,1.2H83.9z"/>
	<path id="XMLID_480_" d="M90.9,57.9v4.9c0,0.4,0,0.8,0,1.1h-0.7l0-0.7h0c-0.2,0.5-0.7,0.8-1.4,0.8c-1,0-1.7-0.8-1.7-2.1
		c0-1.4,0.8-2.2,1.8-2.2c0.6,0,1,0.3,1.2,0.6h0v-2.4H90.9z M90.1,61.4c0-0.1,0-0.2,0-0.3c-0.1-0.5-0.5-0.9-1.1-0.9
		c-0.8,0-1.2,0.7-1.2,1.6c0,0.8,0.4,1.5,1.2,1.5c0.5,0,1-0.3,1.1-0.9c0-0.1,0-0.2,0-0.3V61.4z"/>
	<path id="XMLID_483_" d="M92.9,58.6c0,0.3-0.2,0.5-0.5,0.5c-0.3,0-0.4-0.2-0.4-0.5c0-0.3,0.2-0.5,0.5-0.5
		C92.8,58.2,92.9,58.4,92.9,58.6z M92.1,63.8v-4.1h0.7v4.1H92.1z"/>
	<path id="XMLID_486_" d="M94.4,59.8l0.8,2.3c0.1,0.4,0.2,0.7,0.3,1h0c0.1-0.3,0.2-0.7,0.3-1l0.8-2.3h0.8l-1.6,4.1h-0.7l-1.5-4.1
		H94.4z"/>
	<path id="XMLID_488_" d="M98.5,61.9c0,1,0.7,1.4,1.4,1.4c0.5,0,0.9-0.1,1.1-0.2l0.1,0.5c-0.3,0.1-0.7,0.3-1.4,0.3
		c-1.3,0-2-0.8-2-2.1c0-1.2,0.7-2.2,1.9-2.2c1.3,0,1.7,1.2,1.7,1.9c0,0.2,0,0.3,0,0.3H98.5z M100.6,61.4c0-0.5-0.2-1.2-1-1.2
		c-0.8,0-1.1,0.7-1.1,1.2H100.6z"/>
	<path id="XMLID_491_" d="M102.3,61c0-0.5,0-0.9,0-1.3h0.6l0,0.8h0c0.2-0.5,0.6-0.9,1.1-0.9c0.1,0,0.1,0,0.2,0v0.7
		c-0.1,0-0.2,0-0.3,0c-0.5,0-0.9,0.4-1,1c0,0.1,0,0.2,0,0.3v2.2h-0.7V61z"/>
	<path id="XMLID_493_" d="M104.9,63.1c0.2,0.1,0.6,0.3,1,0.3c0.5,0,0.8-0.3,0.8-0.6c0-0.4-0.2-0.5-0.8-0.7c-0.7-0.3-1.1-0.7-1.1-1.2
		c0-0.7,0.5-1.2,1.4-1.2c0.4,0,0.8,0.1,1,0.3l-0.2,0.5c-0.2-0.1-0.5-0.2-0.8-0.2c-0.4,0-0.7,0.3-0.7,0.6c0,0.3,0.2,0.5,0.8,0.7
		c0.7,0.3,1.1,0.6,1.1,1.2c0,0.7-0.6,1.2-1.5,1.2c-0.4,0-0.9-0.1-1.1-0.3L104.9,63.1z"/>
	<path id="XMLID_495_" d="M112,61.8c0,1.5-1,2.2-2,2.2c-1.1,0-2-0.8-2-2.1c0-1.4,0.9-2.2,2-2.2C111.2,59.7,112,60.5,112,61.8z
		 M108.8,61.8c0,0.9,0.5,1.6,1.2,1.6c0.7,0,1.2-0.7,1.2-1.6c0-0.7-0.3-1.6-1.2-1.6S108.8,61,108.8,61.8z"/>
	<path id="XMLID_498_" d="M112.9,63.1c0.2,0.1,0.6,0.3,1,0.3c0.5,0,0.8-0.3,0.8-0.6c0-0.4-0.2-0.5-0.8-0.7c-0.7-0.3-1.1-0.7-1.1-1.2
		c0-0.7,0.5-1.2,1.4-1.2c0.4,0,0.8,0.1,1,0.3l-0.2,0.5c-0.2-0.1-0.5-0.2-0.8-0.2c-0.4,0-0.7,0.3-0.7,0.6c0,0.3,0.2,0.5,0.8,0.7
		c0.7,0.3,1.1,0.6,1.1,1.2c0,0.7-0.6,1.2-1.5,1.2c-0.4,0-0.9-0.1-1.1-0.3L112.9,63.1z"/>
	<path id="XMLID_500_" d="M52.2,68h0.7v6h-0.7V68z"/>
	<path id="XMLID_502_" d="M57.9,71.9c0,1.5-1,2.2-2,2.2c-1.1,0-2-0.8-2-2.1c0-1.4,0.9-2.2,2-2.2C57.1,69.8,57.9,70.6,57.9,71.9z
		 M54.6,71.9c0,0.9,0.5,1.6,1.2,1.6c0.7,0,1.2-0.7,1.2-1.6c0-0.7-0.3-1.6-1.2-1.6S54.6,71.2,54.6,71.9z"/>
	<path id="XMLID_505_" d="M61.7,73.8c-0.2,0.1-0.6,0.2-1.2,0.2c-1.2,0-2-0.8-2-2.1c0-1.3,0.9-2.2,2.2-2.2c0.4,0,0.8,0.1,1,0.2
		l-0.2,0.6c-0.2-0.1-0.5-0.2-0.9-0.2c-0.9,0-1.4,0.7-1.4,1.5c0,0.9,0.6,1.5,1.4,1.5c0.4,0,0.7-0.1,0.9-0.2L61.7,73.8z"/>
	<path id="XMLID_507_" d="M64.8,74l-0.1-0.5h0c-0.2,0.3-0.7,0.6-1.2,0.6c-0.8,0-1.2-0.6-1.2-1.2c0-1,0.9-1.5,2.5-1.5v-0.1
		c0-0.3-0.1-0.9-0.9-0.9c-0.4,0-0.8,0.1-1.1,0.3l-0.2-0.5c0.3-0.2,0.8-0.4,1.3-0.4c1.2,0,1.5,0.9,1.5,1.7V73c0,0.4,0,0.7,0.1,1H64.8
		z M64.7,71.9c-0.8,0-1.7,0.1-1.7,0.9c0,0.5,0.3,0.7,0.7,0.7c0.5,0,0.9-0.3,1-0.7c0-0.1,0-0.2,0-0.2V71.9z"/>
	<path id="XMLID_510_" d="M67.5,68.7c0,0.3-0.2,0.5-0.5,0.5c-0.3,0-0.4-0.2-0.4-0.5c0-0.3,0.2-0.5,0.5-0.5
		C67.3,68.3,67.5,68.5,67.5,68.7z M66.6,74v-4.1h0.7V74H66.6z"/>
	<path id="XMLID_513_" d="M68.5,73.2c0.2,0.1,0.6,0.3,1,0.3c0.5,0,0.8-0.3,0.8-0.6c0-0.4-0.2-0.5-0.8-0.7c-0.7-0.3-1.1-0.7-1.1-1.2
		c0-0.7,0.5-1.2,1.4-1.2c0.4,0,0.8,0.1,1,0.3l-0.2,0.5c-0.2-0.1-0.5-0.2-0.8-0.2c-0.4,0-0.7,0.3-0.7,0.6c0,0.3,0.2,0.5,0.8,0.7
		c0.7,0.3,1.1,0.6,1.1,1.2c0,0.7-0.6,1.2-1.5,1.2c-0.4,0-0.9-0.1-1.1-0.3L68.5,73.2z"/>
	<path id="XMLID_515_" d="M77.2,68v4.9c0,0.4,0,0.8,0,1.1h-0.7l0-0.7h0c-0.2,0.5-0.7,0.8-1.4,0.8c-1,0-1.7-0.8-1.7-2.1
		c0-1.4,0.8-2.2,1.8-2.2c0.6,0,1,0.3,1.2,0.6h0V68H77.2z M76.5,71.5c0-0.1,0-0.2,0-0.3c-0.1-0.5-0.5-0.9-1.1-0.9
		c-0.8,0-1.2,0.7-1.2,1.6c0,0.8,0.4,1.5,1.2,1.5c0.5,0,1-0.3,1.1-0.9c0-0.1,0-0.2,0-0.3V71.5z"/>
	<path id="XMLID_518_" d="M78.9,72.1c0,1,0.7,1.4,1.4,1.4c0.5,0,0.9-0.1,1.1-0.2l0.1,0.5c-0.3,0.1-0.7,0.3-1.4,0.3
		c-1.3,0-2-0.8-2-2.1c0-1.2,0.7-2.2,1.9-2.2c1.3,0,1.7,1.2,1.7,1.9c0,0.2,0,0.3,0,0.3H78.9z M81.1,71.5c0-0.5-0.2-1.2-1-1.2
		c-0.8,0-1.1,0.7-1.1,1.2H81.1z"/>
	<path id="XMLID_521_" d="M85.4,68.7v1.2h1.1v0.6h-1.1v2.2c0,0.5,0.1,0.8,0.6,0.8c0.2,0,0.3,0,0.4-0.1l0,0.6C86.2,74,86,74,85.7,74
		c-0.3,0-0.6-0.1-0.8-0.3c-0.2-0.2-0.3-0.6-0.3-1.1v-2.2H84v-0.6h0.6v-1L85.4,68.7z"/>
	<path id="XMLID_523_" d="M87.3,71.2c0-0.5,0-0.9,0-1.3h0.6l0,0.8h0c0.2-0.5,0.6-0.9,1.1-0.9c0.1,0,0.1,0,0.2,0v0.7
		c-0.1,0-0.2,0-0.3,0c-0.5,0-0.9,0.4-1,1c0,0.1,0,0.2,0,0.3V74h-0.7V71.2z"/>
	<path id="XMLID_525_" d="M92.2,74l-0.1-0.5h0c-0.2,0.3-0.7,0.6-1.2,0.6c-0.8,0-1.2-0.6-1.2-1.2c0-1,0.9-1.5,2.5-1.5v-0.1
		c0-0.3-0.1-0.9-0.9-0.9c-0.4,0-0.8,0.1-1.1,0.3l-0.2-0.5c0.3-0.2,0.8-0.4,1.3-0.4c1.2,0,1.5,0.9,1.5,1.7V73c0,0.4,0,0.7,0.1,1H92.2
		z M92.1,71.9c-0.8,0-1.7,0.1-1.7,0.9c0,0.5,0.3,0.7,0.7,0.7c0.5,0,0.9-0.3,1-0.7c0-0.1,0-0.2,0-0.2V71.9z"/>
	<path id="XMLID_528_" d="M94,74c0-0.3,0-0.7,0-1.1V68h0.7v2.6h0c0.3-0.5,0.7-0.7,1.4-0.7c1,0,1.7,0.8,1.7,2.1
		c0,1.5-0.9,2.2-1.8,2.2c-0.6,0-1.1-0.2-1.4-0.8h0l0,0.7H94z M94.8,72.3c0,0.1,0,0.2,0,0.3c0.1,0.5,0.6,0.9,1.1,0.9
		c0.8,0,1.2-0.6,1.2-1.6c0-0.8-0.4-1.5-1.2-1.5c-0.5,0-1,0.3-1.1,0.9c0,0.1,0,0.2,0,0.3V72.3z"/>
	<path id="XMLID_531_" d="M101.1,74l-0.1-0.5h0c-0.2,0.3-0.7,0.6-1.2,0.6c-0.8,0-1.2-0.6-1.2-1.2c0-1,0.9-1.5,2.5-1.5v-0.1
		c0-0.3-0.1-0.9-0.9-0.9c-0.4,0-0.8,0.1-1.1,0.3l-0.2-0.5c0.3-0.2,0.8-0.4,1.3-0.4c1.2,0,1.5,0.9,1.5,1.7V73c0,0.4,0,0.7,0.1,1
		H101.1z M101,71.9c-0.8,0-1.7,0.1-1.7,0.9c0,0.5,0.3,0.7,0.7,0.7c0.5,0,0.9-0.3,1-0.7c0-0.1,0-0.2,0-0.2V71.9z"/>
	<path id="XMLID_534_" d="M102.9,68h0.7v6h-0.7V68z"/>
	<path id="XMLID_536_" d="M104.9,68h0.7v2.5h0c0.1-0.2,0.3-0.4,0.5-0.5c0.2-0.1,0.5-0.2,0.8-0.2c0.5,0,1.4,0.3,1.4,1.7V74h-0.7v-2.3
		c0-0.7-0.2-1.2-0.9-1.2c-0.5,0-0.9,0.3-1,0.7c0,0.1-0.1,0.2-0.1,0.4V74h-0.7V68z"/>
	<path id="XMLID_538_" d="M113.2,71.9c0,1.5-1,2.2-2,2.2c-1.1,0-2-0.8-2-2.1c0-1.4,0.9-2.2,2-2.2C112.4,69.8,113.2,70.6,113.2,71.9z
		 M110,71.9c0,0.9,0.5,1.6,1.2,1.6c0.7,0,1.2-0.7,1.2-1.6c0-0.7-0.3-1.6-1.2-1.6S110,71.2,110,71.9z"/>
</g>
<g id="XMLID_40_">
	<path id="XMLID_541_" d="M37.6,231.3c0.3,0.2,0.7,0.3,1.2,0.3c0.7,0,1.1-0.4,1.1-0.9c0-0.5-0.3-0.8-1-1c-0.8-0.3-1.4-0.7-1.4-1.5
		c0-0.8,0.7-1.4,1.7-1.4c0.5,0,0.9,0.1,1.1,0.3l-0.2,0.5c-0.2-0.1-0.5-0.2-1-0.2c-0.7,0-1,0.4-1,0.8c0,0.5,0.3,0.7,1,1
		c0.9,0.3,1.3,0.8,1.3,1.5c0,0.8-0.6,1.5-1.8,1.5c-0.5,0-1-0.1-1.3-0.3L37.6,231.3z"/>
	<path id="XMLID_543_" d="M42.2,227.4c0,0.2-0.2,0.4-0.4,0.4c-0.2,0-0.4-0.2-0.4-0.4c0-0.2,0.2-0.4,0.4-0.4
		C42,227,42.2,227.2,42.2,227.4z M41.4,232.1v-3.7h0.7v3.7H41.4z"/>
	<path id="XMLID_546_" d="M43.1,231.4c0.2,0.1,0.5,0.3,0.9,0.3c0.5,0,0.7-0.2,0.7-0.5c0-0.3-0.2-0.5-0.7-0.7c-0.7-0.2-1-0.6-1-1
		c0-0.6,0.5-1.1,1.3-1.1c0.4,0,0.7,0.1,0.9,0.2l-0.2,0.5c-0.1-0.1-0.4-0.2-0.8-0.2c-0.4,0-0.6,0.2-0.6,0.5c0,0.3,0.2,0.4,0.7,0.6
		c0.6,0.2,1,0.6,1,1.1c0,0.6-0.5,1.1-1.4,1.1c-0.4,0-0.8-0.1-1-0.3L43.1,231.4z"/>
	<path id="XMLID_548_" d="M47,227.4v1.1h1v0.5h-1v2c0,0.5,0.1,0.7,0.5,0.7c0.2,0,0.3,0,0.4,0l0,0.5c-0.1,0.1-0.3,0.1-0.6,0.1
		c-0.3,0-0.6-0.1-0.7-0.3c-0.2-0.2-0.3-0.5-0.3-1v-2h-0.6v-0.5h0.6v-0.9L47,227.4z"/>
	<path id="XMLID_550_" d="M49.1,230.4c0,0.9,0.6,1.3,1.3,1.3c0.5,0,0.8-0.1,1-0.2l0.1,0.5c-0.2,0.1-0.6,0.2-1.2,0.2
		c-1.1,0-1.8-0.7-1.8-1.9s0.7-2,1.7-2c1.2,0,1.5,1.1,1.5,1.7c0,0.1,0,0.2,0,0.3H49.1z M51,229.9c0-0.4-0.2-1.1-0.9-1.1
		c-0.7,0-1,0.6-1,1.1H51z"/>
	<path id="XMLID_553_" d="M52.5,229.4c0-0.4,0-0.7,0-1H53l0,0.6h0c0.2-0.3,0.5-0.7,1.2-0.7c0.5,0,0.9,0.3,1,0.7h0
		c0.1-0.2,0.3-0.4,0.4-0.5c0.2-0.2,0.5-0.3,0.8-0.3c0.5,0,1.2,0.3,1.2,1.6v2.2h-0.7V230c0-0.7-0.3-1.1-0.8-1.1
		c-0.4,0-0.7,0.3-0.8,0.6c0,0.1-0.1,0.2-0.1,0.3v2.3h-0.7v-2.2c0-0.6-0.3-1-0.8-1c-0.4,0-0.7,0.3-0.8,0.7c0,0.1-0.1,0.2-0.1,0.3v2.2
		h-0.7V229.4z"/>
	<path id="XMLID_555_" d="M60.9,232.1l-0.1-0.5h0c-0.2,0.3-0.6,0.5-1.1,0.5c-0.7,0-1.1-0.5-1.1-1.1c0-0.9,0.8-1.4,2.2-1.4v-0.1
		c0-0.3-0.1-0.9-0.8-0.9c-0.3,0-0.7,0.1-1,0.3l-0.2-0.4c0.3-0.2,0.7-0.3,1.2-0.3c1.1,0,1.4,0.8,1.4,1.5v1.4c0,0.3,0,0.6,0.1,0.9
		H60.9z M60.8,230.2c-0.7,0-1.6,0.1-1.6,0.8c0,0.4,0.3,0.6,0.6,0.6c0.5,0,0.8-0.3,0.9-0.6c0-0.1,0-0.1,0-0.2V230.2z"/>
	<path id="XMLID_558_" d="M62.4,231.4c0.2,0.1,0.5,0.3,0.9,0.3c0.5,0,0.7-0.2,0.7-0.5c0-0.3-0.2-0.5-0.7-0.7c-0.7-0.2-1-0.6-1-1
		c0-0.6,0.5-1.1,1.3-1.1c0.4,0,0.7,0.1,0.9,0.2l-0.2,0.5c-0.1-0.1-0.4-0.2-0.8-0.2c-0.4,0-0.6,0.2-0.6,0.5c0,0.3,0.2,0.4,0.7,0.6
		c0.6,0.2,1,0.6,1,1.1c0,0.6-0.5,1.1-1.4,1.1c-0.4,0-0.8-0.1-1-0.3L62.4,231.4z"/>
	<path id="XMLID_560_" d="M69.1,232.1l-0.1-0.5h0c-0.2,0.3-0.6,0.5-1.1,0.5c-0.7,0-1.1-0.5-1.1-1.1c0-0.9,0.8-1.4,2.2-1.4v-0.1
		c0-0.3-0.1-0.9-0.8-0.9c-0.3,0-0.7,0.1-1,0.3l-0.2-0.4c0.3-0.2,0.7-0.3,1.2-0.3c1.1,0,1.4,0.8,1.4,1.5v1.4c0,0.3,0,0.6,0.1,0.9
		H69.1z M69,230.2c-0.7,0-1.6,0.1-1.6,0.8c0,0.4,0.3,0.6,0.6,0.6c0.5,0,0.8-0.3,0.9-0.6c0-0.1,0-0.1,0-0.2V230.2z"/>
	<path id="XMLID_563_" d="M70.8,229.4c0-0.4,0-0.7,0-1h0.6l0,0.6h0c0.2-0.3,0.6-0.7,1.2-0.7c0.5,0,1.3,0.3,1.3,1.6v2.2h-0.7V230
		c0-0.6-0.2-1.1-0.9-1.1c-0.4,0-0.8,0.3-0.9,0.7c0,0.1,0,0.2,0,0.3v2.2h-0.7V229.4z"/>
	<path id="XMLID_565_" d="M75.7,227.4v1.1h1v0.5h-1v2c0,0.5,0.1,0.7,0.5,0.7c0.2,0,0.3,0,0.4,0l0,0.5c-0.1,0.1-0.3,0.1-0.6,0.1
		c-0.3,0-0.6-0.1-0.7-0.3c-0.2-0.2-0.3-0.5-0.3-1v-2h-0.6v-0.5h0.6v-0.9L75.7,227.4z"/>
	<path id="XMLID_567_" d="M78.2,227.4c0,0.2-0.2,0.4-0.4,0.4c-0.2,0-0.4-0.2-0.4-0.4c0-0.2,0.2-0.4,0.4-0.4
		C78,227,78.2,227.2,78.2,227.4z M77.5,232.1v-3.7h0.7v3.7H77.5z"/>
	<path id="XMLID_570_" d="M82.4,228.4c0,0.3,0,0.6,0,1v2.1c0,0.8-0.2,1.4-0.5,1.7c-0.4,0.3-0.9,0.4-1.3,0.4c-0.4,0-0.9-0.1-1.2-0.3
		l0.2-0.5c0.2,0.2,0.6,0.3,1.1,0.3c0.7,0,1.2-0.4,1.2-1.3v-0.4h0c-0.2,0.3-0.6,0.6-1.2,0.6c-0.9,0-1.6-0.8-1.6-1.8
		c0-1.2,0.8-2,1.7-2c0.6,0,1,0.3,1.1,0.6h0l0-0.6H82.4z M81.7,229.9c0-0.1,0-0.2,0-0.3c-0.1-0.4-0.4-0.7-0.9-0.7
		c-0.6,0-1.1,0.5-1.1,1.4c0,0.7,0.4,1.3,1.1,1.3c0.4,0,0.8-0.3,0.9-0.7c0-0.1,0.1-0.2,0.1-0.4V229.9z"/>
	<path id="XMLID_573_" d="M86.8,230.2c0,1.4-0.9,2-1.8,2c-1,0-1.8-0.7-1.8-1.9c0-1.2,0.8-2,1.8-2C86.1,228.3,86.8,229.1,86.8,230.2z
		 M83.9,230.3c0,0.8,0.5,1.4,1.1,1.4c0.6,0,1.1-0.6,1.1-1.4c0-0.6-0.3-1.4-1.1-1.4C84.2,228.8,83.9,229.6,83.9,230.3z"/>
	<path id="XMLID_576_" d="M87.6,231.4c0.2,0.1,0.5,0.3,0.9,0.3c0.5,0,0.7-0.2,0.7-0.5c0-0.3-0.2-0.5-0.7-0.7c-0.7-0.2-1-0.6-1-1
		c0-0.6,0.5-1.1,1.3-1.1c0.4,0,0.7,0.1,0.9,0.2l-0.2,0.5c-0.1-0.1-0.4-0.2-0.8-0.2c-0.4,0-0.6,0.2-0.6,0.5c0,0.3,0.2,0.4,0.7,0.6
		c0.6,0.2,1,0.6,1,1.1c0,0.6-0.5,1.1-1.4,1.1c-0.4,0-0.8-0.1-1-0.3L87.6,231.4z"/>
	<path id="XMLID_578_" d="M92.6,230.4c0,0.9,0.6,1.3,1.3,1.3c0.5,0,0.8-0.1,1-0.2L95,232c-0.2,0.1-0.6,0.2-1.2,0.2
		c-1.1,0-1.8-0.7-1.8-1.9s0.7-2,1.7-2c1.2,0,1.5,1.1,1.5,1.7c0,0.1,0,0.2,0,0.3H92.6z M94.6,229.9c0-0.4-0.2-1.1-0.9-1.1
		c-0.7,0-1,0.6-1,1.1H94.6z"/>
	<path id="XMLID_581_" d="M100.9,226.7v4.4c0,0.3,0,0.7,0,1h-0.6l0-0.6h0c-0.2,0.4-0.7,0.7-1.3,0.7c-0.9,0-1.6-0.8-1.6-1.9
		c0-1.2,0.8-2,1.6-2c0.6,0,0.9,0.3,1.1,0.6h0v-2.2H100.9z M100.2,229.9c0-0.1,0-0.2,0-0.3c-0.1-0.4-0.5-0.8-1-0.8
		c-0.7,0-1.1,0.6-1.1,1.4c0,0.7,0.4,1.4,1.1,1.4c0.4,0,0.9-0.3,1-0.8c0-0.1,0-0.2,0-0.3V229.9z"/>
	<path id="XMLID_584_" d="M102.3,230.4c0,0.9,0.6,1.3,1.3,1.3c0.5,0,0.8-0.1,1-0.2l0.1,0.5c-0.2,0.1-0.6,0.2-1.2,0.2
		c-1.1,0-1.8-0.7-1.8-1.9s0.7-2,1.7-2c1.2,0,1.5,1.1,1.5,1.7c0,0.1,0,0.2,0,0.3H102.3z M104.3,229.9c0-0.4-0.2-1.1-0.9-1.1
		c-0.7,0-1,0.6-1,1.1H104.3z"/>
	<path id="XMLID_587_" d="M44.2,240.2c0,0.4,0,0.7,0,1h-0.6l0-0.6h0c-0.2,0.3-0.6,0.7-1.2,0.7c-0.6,0-1.3-0.3-1.3-1.6v-2.2h0.7v2
		c0,0.7,0.2,1.2,0.8,1.2c0.4,0,0.8-0.3,0.9-0.6c0-0.1,0.1-0.2,0.1-0.3v-2.3h0.7V240.2z"/>
	<path id="XMLID_589_" d="M46.2,236.5v1.1h1v0.5h-1v2c0,0.5,0.1,0.7,0.5,0.7c0.2,0,0.3,0,0.4,0l0,0.5c-0.1,0.1-0.3,0.1-0.6,0.1
		c-0.3,0-0.6-0.1-0.7-0.3c-0.2-0.2-0.3-0.5-0.3-1v-2h-0.6v-0.5h0.6v-0.9L46.2,236.5z"/>
	<path id="XMLID_591_" d="M48.6,236.5c0,0.2-0.2,0.4-0.4,0.4c-0.2,0-0.4-0.2-0.4-0.4c0-0.2,0.2-0.4,0.4-0.4
		C48.4,236.1,48.6,236.3,48.6,236.5z M47.9,241.2v-3.7h0.7v3.7H47.9z"/>
	<path id="XMLID_594_" d="M49.6,235.8h0.7v5.4h-0.7V235.8z"/>
	<path id="XMLID_596_" d="M52.2,236.5c0,0.2-0.2,0.4-0.4,0.4c-0.2,0-0.4-0.2-0.4-0.4c0-0.2,0.2-0.4,0.4-0.4
		C52,236.1,52.2,236.3,52.2,236.5z M51.4,241.2v-3.7h0.7v3.7H51.4z"/>
	<path id="XMLID_599_" d="M52.8,240.8l1.7-2.2c0.2-0.2,0.3-0.4,0.5-0.6v0h-2v-0.5h2.8l0,0.4l-1.6,2.1c-0.2,0.2-0.3,0.4-0.5,0.6v0
		h2.2v0.5h-3V240.8z"/>
	<path id="XMLID_601_" d="M58.5,241.2l-0.1-0.5h0c-0.2,0.3-0.6,0.5-1.1,0.5c-0.7,0-1.1-0.5-1.1-1.1c0-0.9,0.8-1.4,2.2-1.4v-0.1
		c0-0.3-0.1-0.9-0.8-0.9c-0.3,0-0.7,0.1-1,0.3l-0.2-0.4c0.3-0.2,0.7-0.3,1.2-0.3c1.1,0,1.4,0.8,1.4,1.5v1.4c0,0.3,0,0.6,0.1,0.9
		H58.5z M58.4,239.3c-0.7,0-1.6,0.1-1.6,0.8c0,0.4,0.3,0.6,0.6,0.6c0.5,0,0.8-0.3,0.9-0.6c0-0.1,0-0.1,0-0.2V239.3z"/>
	<path id="XMLID_604_" d="M62.7,241.1c-0.2,0.1-0.5,0.2-0.9,0.2l-0.2,0.3c0.3,0,0.5,0.2,0.5,0.5c0,0.4-0.4,0.6-0.8,0.6
		c-0.2,0-0.4-0.1-0.5-0.1l0.1-0.3c0.1,0.1,0.3,0.1,0.4,0.1c0.2,0,0.3-0.1,0.3-0.2c0-0.2-0.2-0.3-0.6-0.3l0.3-0.6
		c-0.9-0.1-1.5-0.8-1.5-1.9c0-1.1,0.8-2,2-2c0.4,0,0.7,0.1,0.9,0.2l-0.2,0.5c-0.2-0.1-0.4-0.2-0.8-0.2c-0.8,0-1.3,0.6-1.3,1.4
		c0,0.9,0.5,1.4,1.3,1.4c0.4,0,0.6-0.1,0.8-0.2L62.7,241.1z"/>
	<path id="XMLID_606_" d="M65.6,241.2l-0.1-0.5h0c-0.2,0.3-0.6,0.5-1.1,0.5c-0.7,0-1.1-0.5-1.1-1.1c0-0.9,0.8-1.4,2.2-1.4v-0.1
		c0-0.3-0.1-0.9-0.8-0.9c-0.3,0-0.7,0.1-1,0.3l-0.2-0.4c0.3-0.2,0.7-0.3,1.2-0.3c1.1,0,1.4,0.8,1.4,1.5v1.4c0,0.3,0,0.6,0.1,0.9
		H65.6z M63.8,236.9c0-0.5,0.2-0.8,0.5-0.8c0.2,0,0.3,0.1,0.5,0.2c0.1,0.1,0.2,0.1,0.3,0.1c0.1,0,0.2-0.1,0.2-0.3h0.3
		c0,0.5-0.2,0.8-0.5,0.8c-0.2,0-0.3-0.1-0.5-0.2c-0.2-0.1-0.2-0.1-0.3-0.1c-0.1,0-0.2,0.1-0.2,0.3H63.8z M65.5,239.3
		c-0.7,0-1.6,0.1-1.6,0.8c0,0.4,0.3,0.6,0.6,0.6c0.5,0,0.8-0.3,0.9-0.6c0-0.1,0-0.1,0-0.2V239.3z"/>
	<path id="XMLID_610_" d="M70.5,239.4c0,1.4-0.9,2-1.8,2c-1,0-1.8-0.7-1.8-1.9c0-1.2,0.8-2,1.8-2C69.8,237.5,70.5,238.2,70.5,239.4z
		 M67.6,239.4c0,0.8,0.5,1.4,1.1,1.4c0.6,0,1.1-0.6,1.1-1.4c0-0.6-0.3-1.4-1.1-1.4C67.9,238,67.6,238.7,67.6,239.4z"/>
	<path id="XMLID_613_" d="M75.6,241.1c-0.2,0.1-0.6,0.2-1.1,0.2c-1.1,0-1.8-0.8-1.8-1.9c0-1.1,0.8-2,2-2c0.4,0,0.7,0.1,0.9,0.2
		l-0.2,0.5c-0.2-0.1-0.4-0.2-0.8-0.2c-0.8,0-1.3,0.6-1.3,1.4c0,0.9,0.5,1.4,1.3,1.4c0.4,0,0.6-0.1,0.8-0.2L75.6,241.1z"/>
	<path id="XMLID_615_" d="M79.6,239.4c0,1.4-0.9,2-1.8,2c-1,0-1.8-0.7-1.8-1.9c0-1.2,0.8-2,1.8-2C78.9,237.5,79.6,238.2,79.6,239.4z
		 M76.7,239.4c0,0.8,0.5,1.4,1.1,1.4c0.6,0,1.1-0.6,1.1-1.4c0-0.6-0.3-1.4-1.1-1.4C77.1,238,76.7,238.7,76.7,239.4z"/>
	<path id="XMLID_618_" d="M80.5,238.5c0-0.4,0-0.7,0-1H81l0,0.6h0c0.2-0.3,0.5-0.7,1.2-0.7c0.5,0,0.9,0.3,1,0.7h0
		c0.1-0.2,0.3-0.4,0.4-0.5c0.2-0.2,0.5-0.3,0.8-0.3c0.5,0,1.2,0.3,1.2,1.6v2.2h-0.7v-2.1c0-0.7-0.3-1.1-0.8-1.1
		c-0.4,0-0.7,0.3-0.8,0.6c0,0.1-0.1,0.2-0.1,0.3v2.3h-0.7V239c0-0.6-0.3-1-0.8-1c-0.4,0-0.7,0.3-0.8,0.7c0,0.1-0.1,0.2-0.1,0.3v2.2
		h-0.7V238.5z"/>
	<path id="XMLID_620_" d="M86.8,238.7c0-0.5,0-0.9,0-1.2h0.6l0,0.6h0c0.3-0.4,0.7-0.7,1.3-0.7c0.9,0,1.6,0.8,1.6,1.9
		c0,1.3-0.8,2-1.7,2c-0.5,0-0.9-0.2-1.1-0.6h0v2h-0.7V238.7z M87.5,239.7c0,0.1,0,0.2,0,0.3c0.1,0.5,0.5,0.8,1,0.8
		c0.7,0,1.1-0.6,1.1-1.4c0-0.7-0.4-1.4-1.1-1.4c-0.5,0-0.9,0.3-1,0.8c0,0.1,0,0.2,0,0.3V239.7z"/>
	<path id="XMLID_623_" d="M91.1,235.8h0.7v5.4h-0.7V235.8z"/>
	<path id="XMLID_625_" d="M93.3,239.5c0,0.9,0.6,1.3,1.3,1.3c0.5,0,0.8-0.1,1-0.2l0.1,0.5c-0.2,0.1-0.6,0.2-1.2,0.2
		c-1.1,0-1.8-0.7-1.8-1.9s0.7-2,1.7-2c1.2,0,1.5,1.1,1.5,1.7c0,0.1,0,0.2,0,0.3H93.3z M95.3,239c0-0.4-0.2-1.1-0.9-1.1
		c-0.7,0-1,0.6-1,1.1H95.3z"/>
	<path id="XMLID_628_" d="M97,237.5l0.5,0.8c0.1,0.2,0.3,0.4,0.4,0.6h0c0.1-0.2,0.2-0.4,0.4-0.6l0.5-0.8h0.7l-1.3,1.8l1.3,1.9h-0.8
		l-0.5-0.8c-0.1-0.2-0.3-0.4-0.4-0.6h0c-0.1,0.2-0.3,0.4-0.4,0.6l-0.5,0.8h-0.7l1.3-1.9l-1.2-1.8H97z"/>
	<path id="XMLID_630_" d="M102.3,241.2l-0.1-0.5h0c-0.2,0.3-0.6,0.5-1.1,0.5c-0.7,0-1.1-0.5-1.1-1.1c0-0.9,0.8-1.4,2.2-1.4v-0.1
		c0-0.3-0.1-0.9-0.8-0.9c-0.3,0-0.7,0.1-1,0.3l-0.2-0.4c0.3-0.2,0.7-0.3,1.2-0.3c1.1,0,1.4,0.8,1.4,1.5v1.4c0,0.3,0,0.6,0.1,0.9
		H102.3z M102.2,239.3c-0.7,0-1.6,0.1-1.6,0.8c0,0.4,0.3,0.6,0.6,0.6c0.5,0,0.8-0.3,0.9-0.6c0-0.1,0-0.1,0-0.2V239.3z"/>
</g>
<g id="XMLID_38_">
	<path id="XMLID_270_" d="M186.6,45.7c0.5-0.1,1-0.1,1.6-0.1c1.1,0,1.8,0.2,2.3,0.7c0.5,0.5,0.8,1.1,0.8,2.1c0,0.9-0.3,1.7-0.8,2.2
		c-0.5,0.5-1.4,0.8-2.6,0.8c-0.5,0-1,0-1.4-0.1V45.7z M187.4,50.8c0.2,0,0.5,0,0.8,0c1.6,0,2.5-0.9,2.5-2.4c0-1.4-0.8-2.2-2.3-2.2
		c-0.4,0-0.7,0-0.9,0.1V50.8z"/>
	<path id="XMLID_273_" d="M193.1,46c0,0.3-0.2,0.5-0.5,0.5c-0.3,0-0.5-0.2-0.5-0.5c0-0.3,0.2-0.5,0.5-0.5
		C193,45.6,193.1,45.8,193.1,46z M192.3,51.4v-4.1h0.8v4.1H192.3z"/>
	<path id="XMLID_276_" d="M194.2,50.6c0.2,0.1,0.6,0.3,1,0.3c0.5,0,0.8-0.3,0.8-0.6c0-0.4-0.2-0.6-0.8-0.8c-0.7-0.3-1.1-0.7-1.1-1.2
		c0-0.7,0.5-1.2,1.4-1.2c0.4,0,0.8,0.1,1,0.3l-0.2,0.5c-0.2-0.1-0.5-0.2-0.8-0.2c-0.4,0-0.7,0.3-0.7,0.6c0,0.3,0.2,0.5,0.8,0.7
		c0.7,0.3,1.1,0.6,1.1,1.2c0,0.7-0.6,1.2-1.5,1.2c-0.5,0-0.9-0.1-1.2-0.3L194.2,50.6z"/>
	<path id="XMLID_278_" d="M198.6,46v1.2h1.1v0.6h-1.1V50c0,0.5,0.1,0.8,0.6,0.8c0.2,0,0.3,0,0.4-0.1l0,0.6c-0.1,0.1-0.4,0.1-0.7,0.1
		c-0.4,0-0.6-0.1-0.8-0.3c-0.2-0.2-0.3-0.6-0.3-1.1v-2.3h-0.6v-0.6h0.6v-1L198.6,46z"/>
	<path id="XMLID_280_" d="M202.8,51.4l-0.1-0.5h0c-0.2,0.3-0.7,0.6-1.3,0.6c-0.8,0-1.3-0.6-1.3-1.2c0-1,0.9-1.5,2.5-1.5v-0.1
		c0-0.3-0.1-1-0.9-1c-0.4,0-0.8,0.1-1.1,0.3l-0.2-0.5c0.3-0.2,0.8-0.4,1.4-0.4c1.3,0,1.6,0.9,1.6,1.7v1.5c0,0.4,0,0.7,0.1,1H202.8z
		 M202.7,49.2c-0.8,0-1.8,0.1-1.8,0.9c0,0.5,0.3,0.7,0.7,0.7c0.5,0,0.9-0.3,1-0.7c0-0.1,0-0.2,0-0.2V49.2z"/>
	<path id="XMLID_283_" d="M204.7,48.3c0-0.4,0-0.8,0-1.1h0.7l0,0.7h0c0.2-0.4,0.7-0.8,1.4-0.8c0.6,0,1.5,0.3,1.5,1.8v2.5h-0.8V49
		c0-0.7-0.2-1.2-1-1.2c-0.5,0-0.9,0.4-1,0.8c0,0.1-0.1,0.2-0.1,0.4v2.5h-0.8V48.3z"/>
	<path id="XMLID_285_" d="M212.4,51.2c-0.2,0.1-0.6,0.2-1.2,0.2c-1.2,0-2.1-0.8-2.1-2.1c0-1.3,0.9-2.2,2.2-2.2c0.4,0,0.8,0.1,1,0.2
		l-0.2,0.6c-0.2-0.1-0.5-0.2-0.9-0.2c-1,0-1.5,0.7-1.5,1.6c0,1,0.6,1.5,1.4,1.5c0.4,0,0.7-0.1,0.9-0.2L212.4,51.2z"/>
	<path id="XMLID_287_" d="M214.1,46c0,0.3-0.2,0.5-0.5,0.5c-0.3,0-0.5-0.2-0.5-0.5c0-0.3,0.2-0.5,0.5-0.5
		C213.9,45.6,214.1,45.8,214.1,46z M213.3,51.4v-4.1h0.8v4.1H213.3z"/>
	<path id="XMLID_290_" d="M217.6,51.4l-0.1-0.5h0c-0.2,0.3-0.7,0.6-1.3,0.6c-0.8,0-1.3-0.6-1.3-1.2c0-1,0.9-1.5,2.5-1.5v-0.1
		c0-0.3-0.1-1-0.9-1c-0.4,0-0.8,0.1-1.1,0.3l-0.2-0.5c0.3-0.2,0.8-0.4,1.4-0.4c1.3,0,1.6,0.9,1.6,1.7v1.5c0,0.4,0,0.7,0.1,1H217.6z
		 M217.4,49.2c-0.8,0-1.8,0.1-1.8,0.9c0,0.5,0.3,0.7,0.7,0.7c0.5,0,0.9-0.3,1-0.7c0-0.1,0-0.2,0-0.2V49.2z"/>
	<path id="XMLID_293_" d="M219.4,48.3c0-0.4,0-0.8,0-1.1h0.7l0,0.7h0c0.2-0.4,0.6-0.8,1.3-0.8c0.6,0,1,0.3,1.2,0.8h0
		c0.1-0.2,0.3-0.4,0.5-0.5c0.2-0.2,0.5-0.3,0.9-0.3c0.5,0,1.4,0.4,1.4,1.8v2.4h-0.7V49c0-0.8-0.3-1.3-0.9-1.3
		c-0.4,0-0.8,0.3-0.9,0.7c0,0.1-0.1,0.2-0.1,0.4v2.6H222v-2.5c0-0.7-0.3-1.1-0.9-1.1c-0.5,0-0.8,0.4-0.9,0.8c0,0.1-0.1,0.2-0.1,0.4
		v2.5h-0.7V48.3z"/>
	<path id="XMLID_295_" d="M227,49.4c0,1,0.7,1.4,1.4,1.4c0.5,0,0.9-0.1,1.1-0.2l0.1,0.5c-0.3,0.1-0.7,0.3-1.4,0.3
		c-1.3,0-2-0.8-2-2.1c0-1.3,0.7-2.2,1.9-2.2c1.4,0,1.7,1.2,1.7,2c0,0.2,0,0.3,0,0.4H227z M229.2,48.9c0-0.5-0.2-1.2-1-1.2
		c-0.8,0-1.1,0.7-1.2,1.2H229.2z"/>
	<path id="XMLID_298_" d="M230.8,48.3c0-0.4,0-0.8,0-1.1h0.7l0,0.7h0c0.2-0.4,0.7-0.8,1.4-0.8c0.6,0,1.5,0.3,1.5,1.8v2.5h-0.8V49
		c0-0.7-0.2-1.2-1-1.2c-0.5,0-0.9,0.4-1,0.8c0,0.1-0.1,0.2-0.1,0.4v2.5h-0.8V48.3z"/>
	<path id="XMLID_300_" d="M236.5,46v1.2h1.1v0.6h-1.1V50c0,0.5,0.1,0.8,0.6,0.8c0.2,0,0.3,0,0.4-0.1l0,0.6c-0.1,0.1-0.4,0.1-0.7,0.1
		c-0.4,0-0.6-0.1-0.8-0.3c-0.2-0.2-0.3-0.6-0.3-1.1v-2.3h-0.6v-0.6h0.6v-1L236.5,46z"/>
	<path id="XMLID_302_" d="M242.1,49.2c0,1.5-1.1,2.2-2.1,2.2c-1.1,0-2-0.8-2-2.1c0-1.4,0.9-2.2,2.1-2.2
		C241.3,47.1,242.1,48,242.1,49.2z M238.8,49.3c0,0.9,0.5,1.6,1.3,1.6c0.7,0,1.3-0.7,1.3-1.6c0-0.7-0.4-1.6-1.2-1.6
		C239.2,47.7,238.8,48.5,238.8,49.3z"/>
	<path id="XMLID_305_" d="M248.4,45.3v5c0,0.4,0,0.8,0,1.1h-0.7l0-0.7h0c-0.2,0.5-0.7,0.8-1.4,0.8c-1,0-1.8-0.8-1.8-2.1
		c0-1.4,0.8-2.2,1.9-2.2c0.6,0,1.1,0.3,1.3,0.6h0v-2.5H248.4z M247.7,48.9c0-0.1,0-0.2,0-0.3c-0.1-0.5-0.5-0.9-1.1-0.9
		c-0.8,0-1.2,0.7-1.2,1.6c0,0.8,0.4,1.5,1.2,1.5c0.5,0,1-0.3,1.1-0.9c0-0.1,0-0.2,0-0.3V48.9z"/>
	<path id="XMLID_308_" d="M253.4,49.2c0,1.5-1.1,2.2-2.1,2.2c-1.1,0-2-0.8-2-2.1c0-1.4,0.9-2.2,2.1-2.2
		C252.6,47.1,253.4,48,253.4,49.2z M250.1,49.3c0,0.9,0.5,1.6,1.3,1.6c0.7,0,1.3-0.7,1.3-1.6c0-0.7-0.4-1.6-1.2-1.6
		C250.5,47.7,250.1,48.5,250.1,49.3z"/>
	<path id="XMLID_311_" d="M183.7,58.6c0-0.4,0-0.8,0-1.1h0.7l0,0.7h0c0.2-0.4,0.6-0.8,1.3-0.8c0.6,0,1,0.3,1.2,0.8h0
		c0.1-0.2,0.3-0.4,0.5-0.5c0.2-0.2,0.5-0.3,0.9-0.3c0.5,0,1.4,0.4,1.4,1.8v2.4h-0.7v-2.3c0-0.8-0.3-1.3-0.9-1.3
		c-0.4,0-0.8,0.3-0.9,0.7c0,0.1-0.1,0.2-0.1,0.4v2.6h-0.7v-2.5c0-0.7-0.3-1.1-0.9-1.1c-0.5,0-0.8,0.4-0.9,0.8c0,0.1-0.1,0.2-0.1,0.4
		v2.5h-0.7V58.6z"/>
	<path id="XMLID_313_" d="M191.3,59.7c0,1,0.7,1.4,1.4,1.4c0.5,0,0.9-0.1,1.1-0.2l0.1,0.5c-0.3,0.1-0.7,0.3-1.4,0.3
		c-1.3,0-2-0.8-2-2.1c0-1.3,0.7-2.2,1.9-2.2c1.4,0,1.7,1.2,1.7,2c0,0.2,0,0.3,0,0.4H191.3z M193.5,59.2c0-0.5-0.2-1.2-1-1.2
		c-0.8,0-1.1,0.7-1.2,1.2H193.5z M193.6,55.7l-1,1.2h-0.5l0.8-1.2H193.6z"/>
	<path id="XMLID_317_" d="M198.7,55.6v5c0,0.4,0,0.8,0,1.1h-0.7l0-0.7h0c-0.2,0.5-0.7,0.8-1.4,0.8c-1,0-1.8-0.8-1.8-2.1
		c0-1.4,0.8-2.2,1.9-2.2c0.6,0,1.1,0.3,1.3,0.6h0v-2.5H198.7z M197.9,59.2c0-0.1,0-0.2,0-0.3c-0.1-0.5-0.5-0.9-1.1-0.9
		c-0.8,0-1.2,0.7-1.2,1.6c0,0.8,0.4,1.5,1.2,1.5c0.5,0,1-0.3,1.1-0.9c0-0.1,0-0.2,0-0.3V59.2z"/>
	<path id="XMLID_320_" d="M200.8,56.3c0,0.3-0.2,0.5-0.5,0.5c-0.3,0-0.5-0.2-0.5-0.5c0-0.3,0.2-0.5,0.5-0.5
		C200.6,55.9,200.8,56.1,200.8,56.3z M200,61.6v-4.1h0.8v4.1H200z"/>
	<path id="XMLID_323_" d="M204.9,61.5c-0.2,0.1-0.6,0.2-1.2,0.2c-1.2,0-2.1-0.8-2.1-2.1c0-1.3,0.9-2.2,2.2-2.2c0.4,0,0.8,0.1,1,0.2
		l-0.2,0.6c-0.2-0.1-0.5-0.2-0.9-0.2c-1,0-1.5,0.7-1.5,1.6c0,1,0.6,1.5,1.4,1.5c0.4,0,0.7-0.1,0.9-0.2L204.9,61.5z"/>
	<path id="XMLID_325_" d="M209.5,59.5c0,1.5-1.1,2.2-2.1,2.2c-1.1,0-2-0.8-2-2.1c0-1.4,0.9-2.2,2.1-2.2
		C208.7,57.4,209.5,58.3,209.5,59.5z M206.2,59.6c0,0.9,0.5,1.6,1.3,1.6c0.7,0,1.3-0.7,1.3-1.6c0-0.7-0.4-1.6-1.2-1.6
		C206.6,58,206.2,58.8,206.2,59.6z"/>
	<path id="XMLID_328_" d="M212.7,59.7c0,1,0.7,1.4,1.4,1.4c0.5,0,0.9-0.1,1.1-0.2l0.1,0.5c-0.3,0.1-0.7,0.3-1.4,0.3
		c-1.3,0-2-0.8-2-2.1c0-1.3,0.7-2.2,1.9-2.2c1.4,0,1.7,1.2,1.7,2c0,0.2,0,0.3,0,0.4H212.7z M214.9,59.2c0-0.5-0.2-1.2-1-1.2
		c-0.8,0-1.1,0.7-1.2,1.2H214.9z"/>
	<path id="XMLID_331_" d="M216.6,58.6c0-0.4,0-0.8,0-1.1h0.7l0,0.7h0c0.2-0.4,0.6-0.8,1.3-0.8c0.6,0,1,0.3,1.2,0.8h0
		c0.1-0.2,0.3-0.4,0.5-0.5c0.2-0.2,0.5-0.3,0.9-0.3c0.5,0,1.4,0.4,1.4,1.8v2.4h-0.7v-2.3c0-0.8-0.3-1.3-0.9-1.3
		c-0.4,0-0.8,0.3-0.9,0.7c0,0.1-0.1,0.2-0.1,0.4v2.6h-0.7v-2.5c0-0.7-0.3-1.1-0.9-1.1c-0.5,0-0.8,0.4-0.9,0.8c0,0.1-0.1,0.2-0.1,0.4
		v2.5h-0.7V58.6z"/>
	<path id="XMLID_333_" d="M225.5,58.8c0-0.5,0-0.9,0-1.3h0.7l0,0.8h0c0.2-0.6,0.6-0.9,1.1-0.9c0.1,0,0.1,0,0.2,0v0.7
		c-0.1,0-0.2,0-0.3,0c-0.5,0-0.9,0.4-1,1c0,0.1,0,0.2,0,0.4v2.2h-0.7V58.8z"/>
	<path id="XMLID_335_" d="M228.7,59.7c0,1,0.7,1.4,1.4,1.4c0.5,0,0.9-0.1,1.1-0.2l0.1,0.5c-0.3,0.1-0.7,0.3-1.4,0.3
		c-1.3,0-2-0.8-2-2.1c0-1.3,0.7-2.2,1.9-2.2c1.4,0,1.7,1.2,1.7,2c0,0.2,0,0.3,0,0.4H228.7z M230.9,59.2c0-0.5-0.2-1.2-1-1.2
		c-0.8,0-1.1,0.7-1.2,1.2H230.9z"/>
	<path id="XMLID_338_" d="M232.5,55.6h0.8v6.1h-0.8V55.6z"/>
	<path id="XMLID_340_" d="M236.8,61.6l-0.1-0.5h0c-0.2,0.3-0.7,0.6-1.3,0.6c-0.8,0-1.3-0.6-1.3-1.2c0-1,0.9-1.5,2.5-1.5v-0.1
		c0-0.3-0.1-1-0.9-1c-0.4,0-0.8,0.1-1.1,0.3l-0.2-0.5c0.3-0.2,0.8-0.4,1.4-0.4c1.3,0,1.6,0.9,1.6,1.7v1.5c0,0.4,0,0.7,0.1,1H236.8z
		 M236.7,59.5c-0.8,0-1.8,0.1-1.8,0.9c0,0.5,0.3,0.7,0.7,0.7c0.5,0,0.9-0.3,1-0.7c0-0.1,0-0.2,0-0.2V59.5z"/>
	<path id="XMLID_343_" d="M241.6,61.5c-0.2,0.1-0.6,0.2-1.1,0.2l-0.2,0.3c0.3,0,0.6,0.3,0.6,0.6c0,0.5-0.4,0.7-0.9,0.7
		c-0.2,0-0.4-0.1-0.6-0.1l0.1-0.4c0.1,0.1,0.3,0.1,0.5,0.1c0.2,0,0.4-0.1,0.4-0.3c0-0.2-0.3-0.3-0.7-0.4l0.4-0.6
		c-1.1-0.1-1.7-0.9-1.7-2.1c0-1.3,0.9-2.2,2.2-2.2c0.4,0,0.8,0.1,1,0.2l-0.2,0.6c-0.2-0.1-0.5-0.2-0.9-0.2c-1,0-1.5,0.7-1.5,1.6
		c0,1,0.6,1.5,1.4,1.5c0.4,0,0.7-0.1,0.9-0.2L241.6,61.5z"/>
	<path id="XMLID_345_" d="M244.8,61.6l-0.1-0.5h0c-0.2,0.3-0.7,0.6-1.3,0.6c-0.8,0-1.3-0.6-1.3-1.2c0-1,0.9-1.5,2.5-1.5v-0.1
		c0-0.3-0.1-1-0.9-1c-0.4,0-0.8,0.1-1.1,0.3l-0.2-0.5c0.3-0.2,0.8-0.4,1.4-0.4c1.3,0,1.6,0.9,1.6,1.7v1.5c0,0.4,0,0.7,0.1,1H244.8z
		 M242.9,56.8c0-0.6,0.2-0.9,0.6-0.9c0.2,0,0.3,0.1,0.5,0.2c0.1,0.1,0.3,0.1,0.4,0.1c0.1,0,0.2-0.1,0.2-0.4h0.4
		c0,0.6-0.2,0.9-0.6,0.9c-0.2,0-0.3-0.1-0.5-0.2c-0.2-0.1-0.3-0.2-0.4-0.2c-0.1,0-0.2,0.1-0.2,0.4H242.9z M244.7,59.5
		c-0.8,0-1.8,0.1-1.8,0.9c0,0.5,0.3,0.7,0.7,0.7c0.5,0,0.9-0.3,1-0.7c0-0.1,0-0.2,0-0.2V59.5z"/>
	<path id="XMLID_349_" d="M250.4,59.5c0,1.5-1.1,2.2-2.1,2.2c-1.1,0-2-0.8-2-2.1c0-1.4,0.9-2.2,2.1-2.2
		C249.6,57.4,250.4,58.3,250.4,59.5z M247.1,59.6c0,0.9,0.5,1.6,1.3,1.6c0.7,0,1.3-0.7,1.3-1.6c0-0.7-0.4-1.6-1.2-1.6
		C247.5,58,247.1,58.8,247.1,59.6z"/>
	<path id="XMLID_352_" d="M255.5,61.6l-0.1-0.5h0c-0.2,0.3-0.7,0.6-1.3,0.6c-0.8,0-1.3-0.6-1.3-1.2c0-1,0.9-1.5,2.5-1.5v-0.1
		c0-0.3-0.1-1-0.9-1c-0.4,0-0.8,0.1-1.1,0.3l-0.2-0.5c0.3-0.2,0.8-0.4,1.4-0.4c1.3,0,1.6,0.9,1.6,1.7v1.5c0,0.4,0,0.7,0.1,1H255.5z
		 M255.3,59.5c-0.8,0-1.8,0.1-1.8,0.9c0,0.5,0.3,0.7,0.7,0.7c0.5,0,0.9-0.3,1-0.7c0-0.1,0-0.2,0-0.2V59.5z M255.7,55.7l-1,1.2h-0.5
		l0.8-1.2H255.7z"/>
	<path id="XMLID_356_" d="M181.9,69.1c0-0.5,0-1,0-1.4h0.7l0,0.7h0c0.3-0.5,0.8-0.8,1.5-0.8c1,0,1.8,0.8,1.8,2.1
		c0,1.5-0.9,2.2-1.9,2.2c-0.5,0-1-0.2-1.3-0.7h0v2.3h-0.7V69.1z M182.7,70.2c0,0.1,0,0.2,0,0.3c0.1,0.5,0.6,0.9,1.1,0.9
		c0.8,0,1.3-0.7,1.3-1.6c0-0.8-0.4-1.5-1.2-1.5c-0.5,0-1,0.4-1.1,0.9c0,0.1-0.1,0.2-0.1,0.3V70.2z"/>
	<path id="XMLID_359_" d="M186.8,65.8h0.8v6.1h-0.8V65.8z"/>
	<path id="XMLID_361_" d="M191.1,71.9l-0.1-0.5h0c-0.2,0.3-0.7,0.6-1.3,0.6c-0.8,0-1.3-0.6-1.3-1.2c0-1,0.9-1.5,2.5-1.5v-0.1
		c0-0.3-0.1-1-0.9-1c-0.4,0-0.8,0.1-1.1,0.3l-0.2-0.5c0.3-0.2,0.8-0.4,1.4-0.4c1.3,0,1.6,0.9,1.6,1.7v1.5c0,0.4,0,0.7,0.1,1H191.1z
		 M191,69.8c-0.8,0-1.8,0.1-1.8,0.9c0,0.5,0.3,0.7,0.7,0.7c0.5,0,0.9-0.3,1-0.7c0-0.1,0-0.2,0-0.2V69.8z"/>
	<path id="XMLID_364_" d="M193.8,66.6v1.2h1.1v0.6h-1.1v2.2c0,0.5,0.1,0.8,0.6,0.8c0.2,0,0.3,0,0.4-0.1l0,0.6
		c-0.1,0.1-0.4,0.1-0.7,0.1c-0.4,0-0.6-0.1-0.8-0.3c-0.2-0.2-0.3-0.6-0.3-1.1v-2.3h-0.6v-0.6h0.6v-1L193.8,66.6z"/>
	<path id="XMLID_366_" d="M198.1,71.9l-0.1-0.5h0c-0.2,0.3-0.7,0.6-1.3,0.6c-0.8,0-1.3-0.6-1.3-1.2c0-1,0.9-1.5,2.5-1.5v-0.1
		c0-0.3-0.1-1-0.9-1c-0.4,0-0.8,0.1-1.1,0.3l-0.2-0.5c0.3-0.2,0.8-0.4,1.4-0.4c1.3,0,1.6,0.9,1.6,1.7v1.5c0,0.4,0,0.7,0.1,1H198.1z
		 M197.9,69.8c-0.8,0-1.8,0.1-1.8,0.9c0,0.5,0.3,0.7,0.7,0.7c0.5,0,0.9-0.3,1-0.7c0-0.1,0-0.2,0-0.2V69.8z"/>
	<path id="XMLID_369_" d="M200,71.9v-3.6h-0.6v-0.6h0.6v-0.2c0-0.6,0.1-1.1,0.5-1.4c0.3-0.3,0.7-0.4,1-0.4c0.3,0,0.5,0.1,0.6,0.1
		l-0.1,0.6c-0.1-0.1-0.3-0.1-0.5-0.1c-0.6,0-0.8,0.6-0.8,1.2v0.2h1v0.6h-1v3.6H200z"/>
	<path id="XMLID_371_" d="M206,69.8c0,1.5-1.1,2.2-2.1,2.2c-1.1,0-2-0.8-2-2.1c0-1.4,0.9-2.2,2.1-2.2C205.2,67.7,206,68.5,206,69.8z
		 M202.7,69.8c0,0.9,0.5,1.6,1.3,1.6c0.7,0,1.3-0.7,1.3-1.6c0-0.7-0.4-1.6-1.2-1.6C203.1,68.2,202.7,69.1,202.7,69.8z"/>
	<path id="XMLID_374_" d="M207,69.1c0-0.5,0-0.9,0-1.3h0.7l0,0.8h0c0.2-0.6,0.6-0.9,1.1-0.9c0.1,0,0.1,0,0.2,0v0.7
		c-0.1,0-0.2,0-0.3,0c-0.5,0-0.9,0.4-1,1c0,0.1,0,0.2,0,0.4v2.2H207V69.1z"/>
	<path id="XMLID_376_" d="M209.8,68.9c0-0.4,0-0.8,0-1.1h0.7l0,0.7h0c0.2-0.4,0.6-0.8,1.3-0.8c0.6,0,1,0.3,1.2,0.8h0
		c0.1-0.2,0.3-0.4,0.5-0.5c0.2-0.2,0.5-0.3,0.9-0.3c0.5,0,1.4,0.4,1.4,1.8v2.4H215v-2.3c0-0.8-0.3-1.3-0.9-1.3
		c-0.4,0-0.8,0.3-0.9,0.7c0,0.1-0.1,0.2-0.1,0.4v2.6h-0.7v-2.5c0-0.7-0.3-1.1-0.9-1.1c-0.5,0-0.8,0.4-0.9,0.8c0,0.1-0.1,0.2-0.1,0.4
		v2.5h-0.7V68.9z"/>
	<path id="XMLID_378_" d="M219.3,71.9l-0.1-0.5h0c-0.2,0.3-0.7,0.6-1.3,0.6c-0.8,0-1.3-0.6-1.3-1.2c0-1,0.9-1.5,2.5-1.5v-0.1
		c0-0.3-0.1-1-0.9-1c-0.4,0-0.8,0.1-1.1,0.3l-0.2-0.5c0.3-0.2,0.8-0.4,1.4-0.4c1.3,0,1.6,0.9,1.6,1.7v1.5c0,0.4,0,0.7,0.1,1H219.3z
		 M219.1,69.8c-0.8,0-1.8,0.1-1.8,0.9c0,0.5,0.3,0.7,0.7,0.7c0.5,0,0.9-0.3,1-0.7c0-0.1,0-0.2,0-0.2V69.8z"/>
	<path id="XMLID_381_" d="M226.5,65.8v5c0,0.4,0,0.8,0,1.1h-0.7l0-0.7h0c-0.2,0.5-0.7,0.8-1.4,0.8c-1,0-1.8-0.8-1.8-2.1
		c0-1.4,0.8-2.2,1.9-2.2c0.6,0,1.1,0.3,1.3,0.6h0v-2.5H226.5z M225.7,69.5c0-0.1,0-0.2,0-0.3c-0.1-0.5-0.5-0.9-1.1-0.9
		c-0.8,0-1.2,0.7-1.2,1.6c0,0.8,0.4,1.5,1.2,1.5c0.5,0,1-0.3,1.1-0.9c0-0.1,0-0.2,0-0.3V69.5z"/>
	<path id="XMLID_384_" d="M228.2,70c0,1,0.7,1.4,1.4,1.4c0.5,0,0.9-0.1,1.1-0.2l0.1,0.5c-0.3,0.1-0.7,0.3-1.4,0.3
		c-1.3,0-2-0.8-2-2.1c0-1.3,0.7-2.2,1.9-2.2c1.4,0,1.7,1.2,1.7,2c0,0.2,0,0.3,0,0.4H228.2z M230.4,69.4c0-0.5-0.2-1.2-1-1.2
		c-0.8,0-1.1,0.7-1.2,1.2H230.4z"/>
	<path id="XMLID_387_" d="M234.3,70c0,1,0.7,1.4,1.4,1.4c0.5,0,0.9-0.1,1.1-0.2l0.1,0.5c-0.3,0.1-0.7,0.3-1.4,0.3
		c-1.3,0-2-0.8-2-2.1c0-1.3,0.7-2.2,1.9-2.2c1.4,0,1.7,1.2,1.7,2c0,0.2,0,0.3,0,0.4H234.3z M236.5,69.4c0-0.5-0.2-1.2-1-1.2
		c-0.8,0-1.1,0.7-1.2,1.2H236.5z"/>
	<path id="XMLID_390_" d="M238,71.1c0.2,0.1,0.6,0.3,1,0.3c0.5,0,0.8-0.3,0.8-0.6c0-0.4-0.2-0.6-0.8-0.8c-0.7-0.3-1.1-0.7-1.1-1.2
		c0-0.7,0.5-1.2,1.4-1.2c0.4,0,0.8,0.1,1,0.3l-0.2,0.5c-0.2-0.1-0.5-0.2-0.8-0.2c-0.4,0-0.7,0.3-0.7,0.6c0,0.3,0.2,0.5,0.8,0.7
		c0.7,0.3,1.1,0.6,1.1,1.2c0,0.7-0.6,1.2-1.5,1.2c-0.5,0-0.9-0.1-1.2-0.3L238,71.1z"/>
	<path id="XMLID_392_" d="M244.5,71.8c-0.2,0.1-0.6,0.2-1.2,0.2c-1.2,0-2.1-0.8-2.1-2.1c0-1.3,0.9-2.2,2.2-2.2c0.4,0,0.8,0.1,1,0.2
		l-0.2,0.6c-0.2-0.1-0.5-0.2-0.9-0.2c-1,0-1.5,0.7-1.5,1.6c0,1,0.6,1.5,1.4,1.5c0.4,0,0.7-0.1,0.9-0.2L244.5,71.8z"/>
	<path id="XMLID_394_" d="M247.7,71.9l-0.1-0.5h0c-0.2,0.3-0.7,0.6-1.3,0.6c-0.8,0-1.3-0.6-1.3-1.2c0-1,0.9-1.5,2.5-1.5v-0.1
		c0-0.3-0.1-1-0.9-1c-0.4,0-0.8,0.1-1.1,0.3l-0.2-0.5c0.3-0.2,0.8-0.4,1.4-0.4c1.3,0,1.6,0.9,1.6,1.7v1.5c0,0.4,0,0.7,0.1,1H247.7z
		 M247.6,69.8c-0.8,0-1.8,0.1-1.8,0.9c0,0.5,0.3,0.7,0.7,0.7c0.5,0,0.9-0.3,1-0.7c0-0.1,0-0.2,0-0.2V69.8z"/>
	<path id="XMLID_397_" d="M249.5,65.8h0.8v6.1h-0.8V65.8z"/>
	<path id="XMLID_399_" d="M253.8,71.9l-0.1-0.5h0c-0.2,0.3-0.7,0.6-1.3,0.6c-0.8,0-1.3-0.6-1.3-1.2c0-1,0.9-1.5,2.5-1.5v-0.1
		c0-0.3-0.1-1-0.9-1c-0.4,0-0.8,0.1-1.1,0.3l-0.2-0.5c0.3-0.2,0.8-0.4,1.4-0.4c1.3,0,1.6,0.9,1.6,1.7v1.5c0,0.4,0,0.7,0.1,1H253.8z
		 M253.7,69.8c-0.8,0-1.8,0.1-1.8,0.9c0,0.5,0.3,0.7,0.7,0.7c0.5,0,0.9-0.3,1-0.7c0-0.1,0-0.2,0-0.2V69.8z"/>
	<path id="XMLID_402_" d="M255.5,71.1c0.2,0.1,0.6,0.3,1,0.3c0.5,0,0.8-0.3,0.8-0.6c0-0.4-0.2-0.6-0.8-0.8c-0.7-0.3-1.1-0.7-1.1-1.2
		c0-0.7,0.5-1.2,1.4-1.2c0.4,0,0.8,0.1,1,0.3l-0.2,0.5c-0.2-0.1-0.5-0.2-0.8-0.2c-0.4,0-0.7,0.3-0.7,0.6c0,0.3,0.2,0.5,0.8,0.7
		c0.7,0.3,1.1,0.6,1.1,1.2c0,0.7-0.6,1.2-1.5,1.2c-0.5,0-0.9-0.1-1.2-0.3L255.5,71.1z"/>
</g>
<g id="XMLID_42_">
	<path id="XMLID_44_" d="M191.9,219.3c0.4-0.1,0.9-0.1,1.5-0.1c1,0,1.8,0.2,2.2,0.7c0.5,0.4,0.8,1.1,0.8,2c0,0.9-0.3,1.6-0.8,2.1
		c-0.5,0.5-1.4,0.8-2.4,0.8c-0.5,0-0.9,0-1.3-0.1V219.3z M192.6,224.2c0.2,0,0.4,0,0.7,0c1.5,0,2.3-0.9,2.3-2.3
		c0-1.3-0.7-2.1-2.2-2.1c-0.4,0-0.6,0-0.8,0.1V224.2z"/>
	<path id="XMLID_47_" d="M198.1,219.7c0,0.2-0.2,0.4-0.5,0.4c-0.3,0-0.4-0.2-0.4-0.4c0-0.3,0.2-0.4,0.4-0.4
		C198,219.2,198.1,219.4,198.1,219.7z M197.3,224.7v-4h0.7v4H197.3z"/>
	<path id="XMLID_50_" d="M199.3,224.7v-3.4h-0.6v-0.5h0.6v-0.2c0-1,0.6-1.7,1.7-1.7c0.4,0,0.8,0.1,1,0.3l-0.2,0.5
		c-0.2-0.1-0.5-0.2-0.8-0.2c-0.8,0-1,0.5-1,1.2v0.2h2.3v4h-0.7v-3.4H200v3.4H199.3z"/>
	<path id="XMLID_52_" d="M206.4,224.6c-0.2,0.1-0.6,0.2-1.1,0.2c-1.2,0-2-0.8-2-2c0-1.2,0.8-2.1,2.1-2.1c0.4,0,0.8,0.1,1,0.2
		l-0.2,0.6c-0.2-0.1-0.4-0.2-0.8-0.2c-0.9,0-1.4,0.7-1.4,1.5c0,0.9,0.6,1.5,1.4,1.5c0.4,0,0.7-0.1,0.9-0.2L206.4,224.6z"/>
	<path id="XMLID_54_" d="M210.5,223.7c0,0.4,0,0.8,0,1.1h-0.6l0-0.6h0c-0.2,0.3-0.6,0.7-1.3,0.7c-0.6,0-1.4-0.3-1.4-1.7v-2.3h0.7
		v2.2c0,0.8,0.2,1.3,0.9,1.3c0.5,0,0.8-0.3,0.9-0.7c0-0.1,0.1-0.2,0.1-0.4v-2.4h0.7V223.7z"/>
	<path id="XMLID_56_" d="M211.7,218.9h0.7v5.8h-0.7V218.9z"/>
	<path id="XMLID_58_" d="M217.1,218.9v4.8c0,0.4,0,0.8,0,1h-0.6l0-0.7h0c-0.2,0.4-0.7,0.8-1.3,0.8c-1,0-1.7-0.8-1.7-2
		c0-1.3,0.8-2.1,1.8-2.1c0.6,0,1,0.3,1.2,0.6h0v-2.4H217.1z M216.3,222.4c0-0.1,0-0.2,0-0.3c-0.1-0.5-0.5-0.8-1-0.8
		c-0.7,0-1.2,0.7-1.2,1.5c0,0.8,0.4,1.5,1.2,1.5c0.5,0,0.9-0.3,1.1-0.9c0-0.1,0-0.2,0-0.3V222.4z"/>
	<path id="XMLID_61_" d="M220.4,224.7l-0.1-0.5h0c-0.2,0.3-0.6,0.6-1.2,0.6c-0.8,0-1.2-0.6-1.2-1.1c0-1,0.9-1.5,2.4-1.5v-0.1
		c0-0.3-0.1-0.9-0.9-0.9c-0.4,0-0.8,0.1-1,0.3l-0.2-0.5c0.3-0.2,0.8-0.4,1.3-0.4c1.2,0,1.5,0.8,1.5,1.6v1.5c0,0.3,0,0.7,0.1,0.9
		H220.4z M220.3,222.7c-0.8,0-1.7,0.1-1.7,0.9c0,0.5,0.3,0.7,0.7,0.7c0.5,0,0.8-0.3,1-0.7c0-0.1,0-0.2,0-0.2V222.7z"/>
	<path id="XMLID_64_" d="M225.6,218.9v4.8c0,0.4,0,0.8,0,1H225l0-0.7h0c-0.2,0.4-0.7,0.8-1.3,0.8c-1,0-1.7-0.8-1.7-2
		c0-1.3,0.8-2.1,1.8-2.1c0.6,0,1,0.3,1.2,0.6h0v-2.4H225.6z M224.9,222.4c0-0.1,0-0.2,0-0.3c-0.1-0.5-0.5-0.8-1-0.8
		c-0.7,0-1.2,0.7-1.2,1.5c0,0.8,0.4,1.5,1.2,1.5c0.5,0,0.9-0.3,1.1-0.9c0-0.1,0-0.2,0-0.3V222.4z"/>
	<path id="XMLID_67_" d="M227.2,222.9c0,1,0.6,1.4,1.4,1.4c0.5,0,0.8-0.1,1.1-0.2l0.1,0.5c-0.3,0.1-0.7,0.2-1.3,0.2
		c-1.2,0-1.9-0.8-1.9-2s0.7-2.1,1.9-2.1c1.3,0,1.6,1.1,1.6,1.9c0,0.1,0,0.3,0,0.3H227.2z M229.3,222.4c0-0.5-0.2-1.2-1-1.2
		c-0.7,0-1,0.7-1.1,1.2H229.3z"/>
	<path id="XMLID_70_" d="M236.1,218.9v4.8c0,0.4,0,0.8,0,1h-0.6l0-0.7h0c-0.2,0.4-0.7,0.8-1.3,0.8c-1,0-1.7-0.8-1.7-2
		c0-1.3,0.8-2.1,1.8-2.1c0.6,0,1,0.3,1.2,0.6h0v-2.4H236.1z M235.3,222.4c0-0.1,0-0.2,0-0.3c-0.1-0.5-0.5-0.8-1-0.8
		c-0.7,0-1.2,0.7-1.2,1.5c0,0.8,0.4,1.5,1.2,1.5c0.5,0,0.9-0.3,1.1-0.9c0-0.1,0-0.2,0-0.3V222.4z"/>
	<path id="XMLID_73_" d="M239.4,224.7l-0.1-0.5h0c-0.2,0.3-0.6,0.6-1.2,0.6c-0.8,0-1.2-0.6-1.2-1.1c0-1,0.9-1.5,2.4-1.5v-0.1
		c0-0.3-0.1-0.9-0.9-0.9c-0.4,0-0.8,0.1-1,0.3l-0.2-0.5c0.3-0.2,0.8-0.4,1.3-0.4c1.2,0,1.5,0.8,1.5,1.6v1.5c0,0.3,0,0.7,0.1,0.9
		H239.4z M239.3,222.7c-0.8,0-1.7,0.1-1.7,0.9c0,0.5,0.3,0.7,0.7,0.7c0.5,0,0.8-0.3,1-0.7c0-0.1,0-0.2,0-0.2V222.7z"/>
	<path id="XMLID_76_" d="M176.3,233.5c0,0.4,0,0.8,0,1.1h-0.6l0-0.6h0c-0.2,0.3-0.6,0.7-1.3,0.7c-0.6,0-1.4-0.3-1.4-1.7v-2.3h0.7
		v2.2c0,0.8,0.2,1.3,0.9,1.3c0.5,0,0.8-0.3,0.9-0.7c0-0.1,0.1-0.2,0.1-0.4v-2.4h0.7V233.5z"/>
	<path id="XMLID_78_" d="M178.4,229.5v1.1h1v0.5h-1v2.1c0,0.5,0.1,0.8,0.5,0.8c0.2,0,0.3,0,0.4,0l0,0.5c-0.1,0.1-0.4,0.1-0.6,0.1
		c-0.3,0-0.6-0.1-0.8-0.3c-0.2-0.2-0.3-0.6-0.3-1v-2.2h-0.6v-0.5h0.6v-0.9L178.4,229.5z"/>
	<path id="XMLID_80_" d="M181,229.5c0,0.2-0.2,0.4-0.5,0.4c-0.3,0-0.4-0.2-0.4-0.4c0-0.3,0.2-0.5,0.4-0.5
		C180.9,229,181,229.2,181,229.5z M180.2,234.6v-4h0.7v4H180.2z"/>
	<path id="XMLID_83_" d="M182.2,228.7h0.7v5.8h-0.7V228.7z"/>
	<path id="XMLID_85_" d="M184.9,229.5c0,0.2-0.2,0.4-0.5,0.4c-0.3,0-0.4-0.2-0.4-0.4c0-0.3,0.2-0.5,0.4-0.5
		C184.7,229,184.9,229.2,184.9,229.5z M184.1,234.6v-4h0.7v4H184.1z"/>
	<path id="XMLID_88_" d="M185.6,234.1l1.8-2.3c0.2-0.2,0.3-0.4,0.5-0.6v0h-2.1v-0.6h3l0,0.5l-1.8,2.3c-0.2,0.2-0.3,0.4-0.5,0.6v0
		h2.3v0.6h-3.2V234.1z"/>
	<path id="XMLID_90_" d="M191.7,234.6l-0.1-0.5h0c-0.2,0.3-0.6,0.6-1.2,0.6c-0.8,0-1.2-0.6-1.2-1.1c0-1,0.9-1.5,2.4-1.5V232
		c0-0.3-0.1-0.9-0.9-0.9c-0.4,0-0.8,0.1-1,0.3l-0.2-0.5c0.3-0.2,0.8-0.4,1.3-0.4c1.2,0,1.5,0.8,1.5,1.6v1.5c0,0.3,0,0.7,0.1,0.9
		H191.7z M191.6,232.5c-0.8,0-1.7,0.1-1.7,0.9c0,0.5,0.3,0.7,0.7,0.7c0.5,0,0.8-0.3,1-0.7c0-0.1,0-0.2,0-0.2V232.5z"/>
	<path id="XMLID_93_" d="M196.3,234.4c-0.2,0.1-0.5,0.2-1,0.2L195,235c0.3,0,0.6,0.3,0.6,0.6c0,0.5-0.4,0.7-0.9,0.7
		c-0.2,0-0.4-0.1-0.6-0.1l0.1-0.4c0.1,0.1,0.3,0.1,0.4,0.1c0.2,0,0.4-0.1,0.4-0.3c0-0.2-0.3-0.3-0.6-0.3l0.3-0.6
		c-1-0.1-1.7-0.9-1.7-2c0-1.2,0.8-2.1,2.1-2.1c0.4,0,0.8,0.1,1,0.2l-0.2,0.6c-0.2-0.1-0.4-0.2-0.8-0.2c-0.9,0-1.4,0.7-1.4,1.5
		c0,0.9,0.6,1.5,1.4,1.5c0.4,0,0.7-0.1,0.9-0.2L196.3,234.4z"/>
	<path id="XMLID_95_" d="M199.3,234.6l-0.1-0.5h0c-0.2,0.3-0.6,0.6-1.2,0.6c-0.8,0-1.2-0.6-1.2-1.1c0-1,0.9-1.5,2.4-1.5V232
		c0-0.3-0.1-0.9-0.9-0.9c-0.4,0-0.8,0.1-1,0.3l-0.2-0.5c0.3-0.2,0.8-0.4,1.3-0.4c1.2,0,1.5,0.8,1.5,1.6v1.5c0,0.3,0,0.7,0.1,0.9
		H199.3z M197.5,229.9c0-0.5,0.2-0.9,0.6-0.9c0.2,0,0.3,0.1,0.5,0.2c0.1,0.1,0.2,0.1,0.3,0.1c0.1,0,0.2-0.1,0.2-0.4h0.4
		c0,0.5-0.2,0.8-0.6,0.8c-0.2,0-0.3-0.1-0.5-0.2c-0.2-0.1-0.3-0.1-0.4-0.1c-0.1,0-0.2,0.1-0.2,0.4H197.5z M199.2,232.5
		c-0.8,0-1.7,0.1-1.7,0.9c0,0.5,0.3,0.7,0.7,0.7c0.5,0,0.8-0.3,1-0.7c0-0.1,0-0.2,0-0.2V232.5z"/>
	<path id="XMLID_99_" d="M204.6,232.5c0,1.5-1,2.1-2,2.1c-1.1,0-1.9-0.8-1.9-2c0-1.3,0.9-2.1,2-2.1
		C203.9,230.5,204.6,231.3,204.6,232.5z M201.5,232.6c0,0.9,0.5,1.5,1.2,1.5c0.7,0,1.2-0.6,1.2-1.5c0-0.7-0.3-1.5-1.2-1.5
		S201.5,231.8,201.5,232.6z"/>
	<path id="XMLID_102_" d="M210.7,228.7v4.8c0,0.4,0,0.8,0,1h-0.6l0-0.7h0c-0.2,0.4-0.7,0.8-1.3,0.8c-1,0-1.7-0.8-1.7-2
		c0-1.3,0.8-2.1,1.8-2.1c0.6,0,1,0.3,1.2,0.6h0v-2.4H210.7z M210,232.2c0-0.1,0-0.2,0-0.3c-0.1-0.5-0.5-0.8-1-0.8
		c-0.7,0-1.2,0.7-1.2,1.5c0,0.8,0.4,1.5,1.2,1.5c0.5,0,0.9-0.3,1.1-0.9c0-0.1,0-0.2,0-0.3V232.2z"/>
	<path id="XMLID_105_" d="M214.1,234.6l-0.1-0.5h0c-0.2,0.3-0.6,0.6-1.2,0.6c-0.8,0-1.2-0.6-1.2-1.1c0-1,0.9-1.5,2.4-1.5V232
		c0-0.3-0.1-0.9-0.9-0.9c-0.4,0-0.8,0.1-1,0.3l-0.2-0.5c0.3-0.2,0.8-0.4,1.3-0.4c1.2,0,1.5,0.8,1.5,1.6v1.5c0,0.3,0,0.7,0.1,0.9
		H214.1z M214,232.5c-0.8,0-1.7,0.1-1.7,0.9c0,0.5,0.3,0.7,0.7,0.7c0.5,0,0.8-0.3,1-0.7c0-0.1,0-0.2,0-0.2V232.5z"/>
	<path id="XMLID_108_" d="M215.7,233.8c0.2,0.1,0.6,0.3,0.9,0.3c0.5,0,0.8-0.3,0.8-0.6c0-0.3-0.2-0.5-0.7-0.7c-0.7-0.3-1-0.6-1-1.1
		c0-0.6,0.5-1.2,1.4-1.2c0.4,0,0.8,0.1,1,0.2l-0.2,0.5c-0.2-0.1-0.4-0.2-0.8-0.2c-0.4,0-0.7,0.2-0.7,0.5c0,0.3,0.2,0.5,0.8,0.7
		c0.7,0.3,1,0.6,1,1.2c0,0.7-0.5,1.2-1.5,1.2c-0.4,0-0.8-0.1-1.1-0.3L215.7,233.8z"/>
	<path id="XMLID_110_" d="M220.9,234.6v-3.4h-0.6v-0.5h0.6v-0.2c0-0.6,0.1-1.1,0.5-1.4c0.3-0.3,0.6-0.4,1-0.4c0.3,0,0.5,0.1,0.6,0.1
		l-0.1,0.6c-0.1,0-0.3-0.1-0.5-0.1c-0.6,0-0.8,0.5-0.8,1.1v0.2h1v0.5h-1v3.4H220.9z"/>
	<path id="XMLID_112_" d="M223.5,232.7c0,1,0.6,1.4,1.4,1.4c0.5,0,0.8-0.1,1.1-0.2l0.1,0.5c-0.3,0.1-0.7,0.2-1.3,0.2
		c-1.2,0-1.9-0.8-1.9-2c0-1.2,0.7-2.1,1.9-2.1c1.3,0,1.6,1.1,1.6,1.9c0,0.1,0,0.3,0,0.3H223.5z M225.6,232.2c0-0.5-0.2-1.2-1-1.2
		c-0.7,0-1,0.7-1.1,1.2H225.6z"/>
	<path id="XMLID_115_" d="M227.2,231.8c0-0.5,0-0.9,0-1.2h0.6l0,0.8h0c0.2-0.5,0.6-0.9,1.1-0.9c0.1,0,0.1,0,0.2,0v0.7
		c-0.1,0-0.1,0-0.2,0c-0.5,0-0.9,0.4-1,0.9c0,0.1,0,0.2,0,0.3v2.1h-0.7V231.8z"/>
	<path id="XMLID_117_" d="M229.9,231.8c0-0.5,0-0.9,0-1.2h0.6l0,0.8h0c0.2-0.5,0.6-0.9,1.1-0.9c0.1,0,0.1,0,0.2,0v0.7
		c-0.1,0-0.1,0-0.2,0c-0.5,0-0.9,0.4-1,0.9c0,0.1,0,0.2,0,0.3v2.1h-0.7V231.8z"/>
	<path id="XMLID_119_" d="M234.7,234.6l-0.1-0.5h0c-0.2,0.3-0.6,0.6-1.2,0.6c-0.8,0-1.2-0.6-1.2-1.1c0-1,0.9-1.5,2.4-1.5V232
		c0-0.3-0.1-0.9-0.9-0.9c-0.4,0-0.8,0.1-1,0.3l-0.2-0.5c0.3-0.2,0.8-0.4,1.3-0.4c1.2,0,1.5,0.8,1.5,1.6v1.5c0,0.3,0,0.7,0.1,0.9
		H234.7z M234.6,232.5c-0.8,0-1.7,0.1-1.7,0.9c0,0.5,0.3,0.7,0.7,0.7c0.5,0,0.8-0.3,1-0.7c0-0.1,0-0.2,0-0.2V232.5z"/>
	<path id="XMLID_122_" d="M236.5,231.7c0-0.4,0-0.7,0-1.1h0.6l0,0.6h0c0.2-0.4,0.6-0.7,1.2-0.7c0.5,0,0.9,0.3,1.1,0.8h0
		c0.1-0.2,0.3-0.4,0.4-0.5c0.2-0.2,0.5-0.3,0.9-0.3c0.5,0,1.3,0.3,1.3,1.7v2.3h-0.7v-2.2c0-0.8-0.3-1.2-0.9-1.2
		c-0.4,0-0.7,0.3-0.9,0.7c0,0.1-0.1,0.2-0.1,0.4v2.4h-0.7v-2.4c0-0.6-0.3-1.1-0.8-1.1c-0.4,0-0.8,0.4-0.9,0.7c0,0.1-0.1,0.2-0.1,0.4
		v2.4h-0.7V231.7z"/>
	<path id="XMLID_124_" d="M243.7,232.7c0,1,0.6,1.4,1.4,1.4c0.5,0,0.8-0.1,1.1-0.2l0.1,0.5c-0.3,0.1-0.7,0.2-1.3,0.2
		c-1.2,0-1.9-0.8-1.9-2c0-1.2,0.7-2.1,1.9-2.1c1.3,0,1.6,1.1,1.6,1.9c0,0.1,0,0.3,0,0.3H243.7z M245.8,232.2c0-0.5-0.2-1.2-1-1.2
		c-0.7,0-1,0.7-1.1,1.2H245.8z"/>
	<path id="XMLID_127_" d="M247.4,231.7c0-0.4,0-0.7,0-1.1h0.6l0,0.7h0c0.2-0.4,0.7-0.7,1.3-0.7c0.5,0,1.4,0.3,1.4,1.7v2.4H250v-2.3
		c0-0.6-0.2-1.2-0.9-1.2c-0.5,0-0.8,0.3-1,0.7c0,0.1,0,0.2,0,0.3v2.4h-0.7V231.7z"/>
	<path id="XMLID_129_" d="M252.8,229.5v1.1h1v0.5h-1v2.1c0,0.5,0.1,0.8,0.5,0.8c0.2,0,0.3,0,0.4,0l0,0.5c-0.1,0.1-0.4,0.1-0.6,0.1
		c-0.3,0-0.6-0.1-0.8-0.3c-0.2-0.2-0.3-0.6-0.3-1v-2.2h-0.6v-0.5h0.6v-0.9L252.8,229.5z"/>
	<path id="XMLID_131_" d="M256.8,234.6l-0.1-0.5h0c-0.2,0.3-0.6,0.6-1.2,0.6c-0.8,0-1.2-0.6-1.2-1.1c0-1,0.9-1.5,2.4-1.5V232
		c0-0.3-0.1-0.9-0.9-0.9c-0.4,0-0.8,0.1-1,0.3l-0.2-0.5c0.3-0.2,0.8-0.4,1.3-0.4c1.2,0,1.5,0.8,1.5,1.6v1.5c0,0.3,0,0.7,0.1,0.9
		H256.8z M256.7,232.5c-0.8,0-1.7,0.1-1.7,0.9c0,0.5,0.3,0.7,0.7,0.7c0.5,0,0.8-0.3,1-0.7c0-0.1,0-0.2,0-0.2V232.5z"/>
	<path id="XMLID_134_" d="M258.4,233.8c0.2,0.1,0.6,0.3,0.9,0.3c0.5,0,0.8-0.3,0.8-0.6c0-0.3-0.2-0.5-0.7-0.7c-0.7-0.3-1-0.6-1-1.1
		c0-0.6,0.5-1.2,1.4-1.2c0.4,0,0.8,0.1,1,0.2l-0.2,0.5c-0.2-0.1-0.4-0.2-0.8-0.2c-0.4,0-0.7,0.2-0.7,0.5c0,0.3,0.2,0.5,0.8,0.7
		c0.7,0.3,1,0.6,1,1.2c0,0.7-0.5,1.2-1.5,1.2c-0.4,0-0.8-0.1-1.1-0.3L258.4,233.8z"/>
	<path id="XMLID_136_" d="M203.2,238.6v4.8c0,0.4,0,0.8,0,1h-0.6l0-0.7h0c-0.2,0.4-0.7,0.8-1.3,0.8c-1,0-1.7-0.8-1.7-2
		c0-1.3,0.8-2.1,1.8-2.1c0.6,0,1,0.3,1.2,0.6h0v-2.4H203.2z M202.5,242c0-0.1,0-0.2,0-0.3c-0.1-0.5-0.5-0.8-1-0.8
		c-0.7,0-1.2,0.7-1.2,1.5c0,0.8,0.4,1.5,1.2,1.5c0.5,0,0.9-0.3,1.1-0.9c0-0.1,0-0.2,0-0.3V242z"/>
	<path id="XMLID_139_" d="M204.8,242.5c0,1,0.6,1.4,1.4,1.4c0.5,0,0.8-0.1,1.1-0.2l0.1,0.5c-0.3,0.1-0.7,0.2-1.3,0.2
		c-1.2,0-1.9-0.8-1.9-2s0.7-2.1,1.9-2.1c1.3,0,1.6,1.1,1.6,1.9c0,0.1,0,0.3,0,0.3H204.8z M206.9,242c0-0.5-0.2-1.2-1-1.2
		c-0.7,0-1,0.7-1.1,1.2H206.9z"/>
	<path id="XMLID_142_" d="M213.7,240.4c0,0.3,0,0.6,0,1.1v2.3c0,0.9-0.2,1.5-0.6,1.8c-0.4,0.4-0.9,0.5-1.4,0.5c-0.5,0-1-0.1-1.3-0.3
		l0.2-0.5c0.3,0.2,0.7,0.3,1.2,0.3c0.7,0,1.3-0.4,1.3-1.4v-0.4h0c-0.2,0.4-0.6,0.7-1.3,0.7c-1,0-1.7-0.8-1.7-1.9
		c0-1.3,0.9-2.1,1.8-2.1c0.7,0,1.1,0.4,1.2,0.7h0l0-0.6H213.7z M212.9,242c0-0.1,0-0.2,0-0.3c-0.1-0.4-0.5-0.8-1-0.8
		c-0.7,0-1.2,0.6-1.2,1.5c0,0.8,0.4,1.4,1.2,1.4c0.4,0,0.8-0.3,1-0.7c0-0.1,0.1-0.3,0.1-0.4V242z"/>
	<path id="XMLID_145_" d="M215.2,242.5c0,1,0.6,1.4,1.4,1.4c0.5,0,0.8-0.1,1.1-0.2l0.1,0.5c-0.3,0.1-0.7,0.2-1.3,0.2
		c-1.2,0-1.9-0.8-1.9-2s0.7-2.1,1.9-2.1c1.3,0,1.6,1.1,1.6,1.9c0,0.1,0,0.3,0,0.3H215.2z M217.3,242c0-0.5-0.2-1.2-1-1.2
		c-0.7,0-1,0.7-1.1,1.2H217.3z"/>
	<path id="XMLID_148_" d="M218.8,243.6c0.2,0.1,0.6,0.3,0.9,0.3c0.5,0,0.8-0.3,0.8-0.6c0-0.3-0.2-0.5-0.7-0.7c-0.7-0.3-1-0.6-1-1.1
		c0-0.6,0.5-1.2,1.4-1.2c0.4,0,0.8,0.1,1,0.2l-0.2,0.5c-0.2-0.1-0.4-0.2-0.8-0.2c-0.4,0-0.7,0.2-0.7,0.5c0,0.3,0.2,0.5,0.8,0.7
		c0.7,0.3,1,0.6,1,1.2c0,0.7-0.5,1.2-1.5,1.2c-0.4,0-0.8-0.1-1.1-0.3L218.8,243.6z"/>
	<path id="XMLID_150_" d="M223,239.3v1.1h1v0.5h-1v2.1c0,0.5,0.1,0.8,0.5,0.8c0.2,0,0.3,0,0.4,0l0,0.5c-0.1,0.1-0.4,0.1-0.6,0.1
		c-0.3,0-0.6-0.1-0.8-0.3c-0.2-0.2-0.3-0.6-0.3-1V241h-0.6v-0.5h0.6v-0.9L223,239.3z"/>
	<path id="XMLID_152_" d="M227,244.4l-0.1-0.5h0c-0.2,0.3-0.6,0.6-1.2,0.6c-0.8,0-1.2-0.6-1.2-1.1c0-1,0.9-1.5,2.4-1.5v-0.1
		c0-0.3-0.1-0.9-0.9-0.9c-0.4,0-0.8,0.1-1,0.3l-0.2-0.5c0.3-0.2,0.8-0.4,1.3-0.4c1.2,0,1.5,0.8,1.5,1.6v1.5c0,0.3,0,0.7,0.1,0.9H227
		z M225.2,239.7c0-0.5,0.2-0.9,0.6-0.9c0.2,0,0.3,0.1,0.5,0.2c0.1,0.1,0.2,0.1,0.3,0.1c0.1,0,0.2-0.1,0.2-0.4h0.4
		c0,0.5-0.2,0.8-0.6,0.8c-0.2,0-0.3-0.1-0.5-0.2c-0.2-0.1-0.3-0.1-0.4-0.1c-0.1,0-0.2,0.1-0.2,0.4H225.2z M226.9,242.3
		c-0.8,0-1.7,0.1-1.7,0.9c0,0.5,0.3,0.7,0.7,0.7c0.5,0,0.8-0.3,1-0.7c0-0.1,0-0.2,0-0.2V242.3z"/>
	<path id="XMLID_156_" d="M232.4,242.4c0,1.5-1,2.1-2,2.1c-1.1,0-1.9-0.8-1.9-2c0-1.3,0.9-2.1,2-2.1
		C231.6,240.3,232.4,241.1,232.4,242.4z M229.2,242.4c0,0.9,0.5,1.5,1.2,1.5c0.7,0,1.2-0.6,1.2-1.5c0-0.7-0.3-1.5-1.2-1.5
		S229.2,241.6,229.2,242.4z"/>
	<path id="XMLID_159_" d="M200.7,252.3c0,1,0.6,1.4,1.4,1.4c0.5,0,0.8-0.1,1.1-0.2l0.1,0.5c-0.3,0.1-0.7,0.2-1.3,0.2
		c-1.2,0-1.9-0.8-1.9-2c0-1.2,0.7-2.1,1.9-2.1c1.3,0,1.6,1.1,1.6,1.9c0,0.1,0,0.3,0,0.3H200.7z M202.8,251.8c0-0.5-0.2-1.2-1-1.2
		c-0.7,0-1,0.7-1.1,1.2H202.8z"/>
	<path id="XMLID_162_" d="M204.7,250.2l0.6,0.9c0.1,0.2,0.3,0.4,0.4,0.6h0c0.1-0.2,0.3-0.4,0.4-0.7l0.6-0.8h0.8l-1.3,1.9l1.4,2h-0.8
		l-0.6-0.9c-0.2-0.2-0.3-0.5-0.4-0.7h0c-0.1,0.2-0.3,0.4-0.4,0.7l-0.6,0.9h-0.8l1.4-2l-1.3-1.9H204.7z"/>
	<path id="XMLID_164_" d="M208.9,249.1c0,0.2-0.2,0.4-0.5,0.4c-0.3,0-0.4-0.2-0.4-0.4c0-0.3,0.2-0.5,0.5-0.5
		C208.8,248.7,208.9,248.9,208.9,249.1z M208.1,254.2v-4h0.7v4H208.1z"/>
	<path id="XMLID_167_" d="M210,253.4c0.2,0.1,0.6,0.3,0.9,0.3c0.5,0,0.8-0.3,0.8-0.6c0-0.3-0.2-0.5-0.7-0.7c-0.7-0.3-1-0.6-1-1.1
		c0-0.6,0.5-1.2,1.4-1.2c0.4,0,0.8,0.1,1,0.2l-0.2,0.5c-0.2-0.1-0.4-0.2-0.8-0.2c-0.4,0-0.7,0.2-0.7,0.5c0,0.3,0.2,0.5,0.8,0.7
		c0.7,0.3,1,0.6,1,1.2c0,0.7-0.5,1.2-1.5,1.2c-0.4,0-0.8-0.1-1.1-0.3L210,253.4z"/>
	<path id="XMLID_169_" d="M214.2,249.1v1.1h1v0.5h-1v2.1c0,0.5,0.1,0.8,0.5,0.8c0.2,0,0.3,0,0.4,0l0,0.5c-0.1,0.1-0.4,0.1-0.6,0.1
		c-0.3,0-0.6-0.1-0.8-0.3c-0.2-0.2-0.3-0.6-0.3-1v-2.2h-0.6v-0.5h0.6v-0.9L214.2,249.1z"/>
	<path id="XMLID_171_" d="M216.3,252.3c0,1,0.6,1.4,1.4,1.4c0.5,0,0.8-0.1,1.1-0.2l0.1,0.5c-0.3,0.1-0.7,0.2-1.3,0.2
		c-1.2,0-1.9-0.8-1.9-2c0-1.2,0.7-2.1,1.9-2.1c1.3,0,1.6,1.1,1.6,1.9c0,0.1,0,0.3,0,0.3H216.3z M218.5,251.8c0-0.5-0.2-1.2-1-1.2
		c-0.7,0-1,0.7-1.1,1.2H218.5z"/>
	<path id="XMLID_174_" d="M220,251.3c0-0.4,0-0.7,0-1.1h0.6l0,0.7h0c0.2-0.4,0.7-0.7,1.3-0.7c0.5,0,1.4,0.3,1.4,1.7v2.4h-0.7v-2.3
		c0-0.6-0.2-1.2-0.9-1.2c-0.5,0-0.8,0.3-1,0.7c0,0.1,0,0.2,0,0.3v2.4H220V251.3z"/>
	<path id="XMLID_176_" d="M225.4,249.1v1.1h1v0.5h-1v2.1c0,0.5,0.1,0.8,0.5,0.8c0.2,0,0.3,0,0.4,0l0,0.5c-0.1,0.1-0.4,0.1-0.6,0.1
		c-0.3,0-0.6-0.1-0.8-0.3c-0.2-0.2-0.3-0.6-0.3-1v-2.2h-0.6v-0.5h0.6v-0.9L225.4,249.1z"/>
	<path id="XMLID_178_" d="M227.6,252.3c0,1,0.6,1.4,1.4,1.4c0.5,0,0.8-0.1,1.1-0.2l0.1,0.5c-0.3,0.1-0.7,0.2-1.3,0.2
		c-1.2,0-1.9-0.8-1.9-2c0-1.2,0.7-2.1,1.9-2.1c1.3,0,1.6,1.1,1.6,1.9c0,0.1,0,0.3,0,0.3H227.6z M229.7,251.8c0-0.5-0.2-1.2-1-1.2
		c-0.7,0-1,0.7-1.1,1.2H229.7z"/>
	<path id="XMLID_181_" d="M231.2,253.4c0.2,0.1,0.6,0.3,0.9,0.3c0.5,0,0.8-0.3,0.8-0.6c0-0.3-0.2-0.5-0.7-0.7c-0.7-0.3-1-0.6-1-1.1
		c0-0.6,0.5-1.2,1.4-1.2c0.4,0,0.8,0.1,1,0.2l-0.2,0.5c-0.2-0.1-0.4-0.2-0.8-0.2c-0.4,0-0.7,0.2-0.7,0.5c0,0.3,0.2,0.5,0.8,0.7
		c0.7,0.3,1,0.6,1,1.2c0,0.7-0.5,1.2-1.5,1.2c-0.4,0-0.8-0.1-1.1-0.3L231.2,253.4z"/>
</g>
</svg>
